  0
SECTION
  2
HEADER
  9
$ACADVER
  1
AC1009
  9
$EXTMIN
 10
0.0
 20
0.0
 30
0.0
  9
$EXTMAX
 10
1000.0
 20
1000.0
 30
0.0
  9
$FILLMODE
 70
 0
  9
$SPLFRAME
 70
 1
  0
ENDSEC
  0
SECTION
  2
TABLES
  0
TABLE
  2
LAYER
 70
1
  0
LAYER
  2
0
 70
     0
 62
     7
  6
CONTINUOUS
  0
ENDTAB
  0
ENDSEC
  0
SECTION
  2
ENTITIES
  0
LINE
  8
0
 62
     0
 10
298.847
 20
133.608
 30
0.0
 11
299.081
 21
133.598
 31
0.0
  0
LINE
  8
0
 62
     0
 10
299.081
 20
133.598
 30
0.0
 11
299.315
 21
133.572
 31
0.0
  0
LINE
  8
0
 62
     0
 10
299.315
 20
133.572
 30
0.0
 11
299.547
 21
133.525
 31
0.0
  0
LINE
  8
0
 62
     0
 10
299.547
 20
133.525
 30
0.0
 11
299.773
 21
133.461
 31
0.0
  0
LINE
  8
0
 62
     0
 10
299.773
 20
133.461
 30
0.0
 11
299.995
 21
133.379
 31
0.0
  0
LINE
  8
0
 62
     0
 10
299.995
 20
133.379
 30
0.0
 11
300.207
 21
133.281
 31
0.0
  0
LINE
  8
0
 62
     0
 10
300.207
 20
133.281
 30
0.0
 11
300.414
 21
133.165
 31
0.0
  0
LINE
  8
0
 62
     0
 10
300.414
 20
133.165
 30
0.0
 11
300.609
 21
133.036
 31
0.0
  0
LINE
  8
0
 62
     0
 10
300.609
 20
133.036
 30
0.0
 11
300.794
 21
132.89
 31
0.0
  0
LINE
  8
0
 62
     0
 10
300.794
 20
132.89
 30
0.0
 11
300.968
 21
132.73
 31
0.0
  0
LINE
  8
0
 62
     0
 10
300.968
 20
132.73
 30
0.0
 11
301.128
 21
132.556
 31
0.0
  0
LINE
  8
0
 62
     0
 10
301.128
 20
132.556
 30
0.0
 11
301.274
 21
132.372
 31
0.0
  0
LINE
  8
0
 62
     0
 10
301.274
 20
132.372
 30
0.0
 11
301.403
 21
132.176
 31
0.0
  0
LINE
  8
0
 62
     0
 10
301.403
 20
132.176
 30
0.0
 11
301.519
 21
131.969
 31
0.0
  0
LINE
  8
0
 62
     0
 10
301.519
 20
131.969
 30
0.0
 11
301.618
 21
131.755
 31
0.0
  0
LINE
  8
0
 62
     0
 10
301.618
 20
131.755
 30
0.0
 11
301.699
 21
131.535
 31
0.0
  0
LINE
  8
0
 62
     0
 10
301.699
 20
131.535
 30
0.0
 11
301.763
 21
131.308
 31
0.0
  0
LINE
  8
0
 62
     0
 10
301.763
 20
131.308
 30
0.0
 11
301.81
 21
131.078
 31
0.0
  0
LINE
  8
0
 62
     0
 10
301.81
 20
131.078
 30
0.0
 11
301.836
 21
130.844
 31
0.0
  0
LINE
  8
0
 62
     0
 10
301.836
 20
130.844
 30
0.0
 11
301.847
 21
130.608
 31
0.0
  0
LINE
  8
0
 62
     0
 10
301.847
 20
130.608
 30
0.0
 11
301.847
 21
3.3569
 31
0.0
  0
LINE
  8
0
 62
     0
 10
301.847
 20
3.3569
 30
0.0
 11
301.836
 21
3.12126
 31
0.0
  0
LINE
  8
0
 62
     0
 10
301.836
 20
3.12126
 30
0.0
 11
301.81
 21
2.88699
 31
0.0
  0
LINE
  8
0
 62
     0
 10
301.81
 20
2.88699
 30
0.0
 11
301.763
 21
2.65686
 31
0.0
  0
LINE
  8
0
 62
     0
 10
301.763
 20
2.65686
 30
0.0
 11
301.699
 21
2.42948
 31
0.0
  0
LINE
  8
0
 62
     0
 10
301.699
 20
2.42948
 30
0.0
 11
301.618
 21
2.20762
 31
0.0
  0
LINE
  8
0
 62
     0
 10
301.618
 20
2.20762
 30
0.0
 11
301.519
 21
1.9954
 31
0.0
  0
LINE
  8
0
 62
     0
 10
301.519
 20
1.9954
 30
0.0
 11
301.403
 21
1.78869
 31
0.0
  0
LINE
  8
0
 62
     0
 10
301.403
 20
1.78869
 30
0.0
 11
301.274
 21
1.59301
 31
0.0
  0
LINE
  8
0
 62
     0
 10
301.274
 20
1.59301
 30
0.0
 11
301.128
 21
1.40836
 31
0.0
  0
LINE
  8
0
 62
     0
 10
301.128
 20
1.40836
 30
0.0
 11
300.968
 21
1.23472
 31
0.0
  0
LINE
  8
0
 62
     0
 10
300.968
 20
1.23472
 30
0.0
 11
300.794
 21
1.07487
 31
0.0
  0
LINE
  8
0
 62
     0
 10
300.794
 20
1.07487
 30
0.0
 11
300.609
 21
0.928797
 31
0.0
  0
LINE
  8
0
 62
     0
 10
300.609
 20
0.928797
 30
0.0
 11
300.414
 21
0.799264
 31
0.0
  0
LINE
  8
0
 62
     0
 10
300.414
 20
0.799264
 30
0.0
 11
300.207
 21
0.683507
 31
0.0
  0
LINE
  8
0
 62
     0
 10
300.207
 20
0.683507
 30
0.0
 11
299.995
 21
0.585668
 31
0.0
  0
LINE
  8
0
 62
     0
 10
299.995
 20
0.585668
 30
0.0
 11
299.773
 21
0.502984
 31
0.0
  0
LINE
  8
0
 62
     0
 10
299.773
 20
0.502984
 30
0.0
 11
299.547
 21
0.439593
 31
0.0
  0
LINE
  8
0
 62
     0
 10
299.547
 20
0.439593
 30
0.0
 11
299.315
 21
0.39274
 31
0.0
  0
LINE
  8
0
 62
     0
 10
299.315
 20
0.39274
 30
0.0
 11
299.081
 21
0.366557
 31
0.0
  0
LINE
  8
0
 62
     0
 10
299.081
 20
0.366557
 30
0.0
 11
298.847
 21
0.356912
 31
0.0
  0
LINE
  8
0
 62
     0
 10
298.847
 20
0.356912
 30
0.0
 11
3.09507
 21
0.356912
 31
0.0
  0
LINE
  8
0
 62
     0
 10
3.09507
 20
0.356912
 30
0.0
 11
2.85943
 21
0.366557
 31
0.0
  0
LINE
  8
0
 62
     0
 10
2.85943
 20
0.366557
 30
0.0
 11
2.62516
 21
0.39274
 31
0.0
  0
LINE
  8
0
 62
     0
 10
2.62516
 20
0.39274
 30
0.0
 11
2.39503
 21
0.439593
 31
0.0
  0
LINE
  8
0
 62
     0
 10
2.39503
 20
0.439593
 30
0.0
 11
2.16765
 21
0.502984
 31
0.0
  0
LINE
  8
0
 62
     0
 10
2.16765
 20
0.502984
 30
0.0
 11
1.94717
 21
0.585668
 31
0.0
  0
LINE
  8
0
 62
     0
 10
1.94717
 20
0.585668
 30
0.0
 11
1.73357
 21
0.683507
 31
0.0
  0
LINE
  8
0
 62
     0
 10
1.73357
 20
0.683507
 30
0.0
 11
1.52687
 21
0.799264
 31
0.0
  0
LINE
  8
0
 62
     0
 10
1.52687
 20
0.799264
 30
0.0
 11
1.33119
 21
0.928797
 31
0.0
  0
LINE
  8
0
 62
     0
 10
1.33119
 20
0.928797
 30
0.0
 11
1.14653
 21
1.07487
 31
0.0
  0
LINE
  8
0
 62
     0
 10
1.14653
 20
1.07487
 30
0.0
 11
0.972894
 21
1.23472
 31
0.0
  0
LINE
  8
0
 62
     0
 10
0.972894
 20
1.23472
 30
0.0
 11
0.813043
 21
1.40836
 31
0.0
  0
LINE
  8
0
 62
     0
 10
0.813043
 20
1.40836
 30
0.0
 11
0.666972
 21
1.59301
 31
0.0
  0
LINE
  8
0
 62
     0
 10
0.666972
 20
1.59301
 30
0.0
 11
0.537436
 21
1.78869
 31
0.0
  0
LINE
  8
0
 62
     0
 10
0.537436
 20
1.78869
 30
0.0
 11
0.421679
 21
1.9954
 31
0.0
  0
LINE
  8
0
 62
     0
 10
0.421679
 20
1.9954
 30
0.0
 11
0.323839
 21
2.20762
 31
0.0
  0
LINE
  8
0
 62
     0
 10
0.323839
 20
2.20762
 30
0.0
 11
0.241157
 21
2.42948
 31
0.0
  0
LINE
  8
0
 62
     0
 10
0.241157
 20
2.42948
 30
0.0
 11
0.177767
 21
2.65686
 31
0.0
  0
LINE
  8
0
 62
     0
 10
0.177767
 20
2.65686
 30
0.0
 11
0.130914
 21
2.88699
 31
0.0
  0
LINE
  8
0
 62
     0
 10
0.130914
 20
2.88699
 30
0.0
 11
0.104731
 21
3.12126
 31
0.0
  0
LINE
  8
0
 62
     0
 10
0.104731
 20
3.12126
 30
0.0
 11
0.0950846
 21
3.3569
 31
0.0
  0
LINE
  8
0
 62
     0
 10
0.0950846
 20
3.3569
 30
0.0
 11
0.0950846
 21
130.608
 31
0.0
  0
LINE
  8
0
 62
     0
 10
0.0950846
 20
130.608
 30
0.0
 11
0.104731
 21
130.844
 31
0.0
  0
LINE
  8
0
 62
     0
 10
0.104731
 20
130.844
 30
0.0
 11
0.130914
 21
131.078
 31
0.0
  0
LINE
  8
0
 62
     0
 10
0.130914
 20
131.078
 30
0.0
 11
0.177767
 21
131.308
 31
0.0
  0
LINE
  8
0
 62
     0
 10
0.177767
 20
131.308
 30
0.0
 11
0.241157
 21
131.535
 31
0.0
  0
LINE
  8
0
 62
     0
 10
0.241157
 20
131.535
 30
0.0
 11
0.323839
 21
131.755
 31
0.0
  0
LINE
  8
0
 62
     0
 10
0.323839
 20
131.755
 30
0.0
 11
0.421679
 21
131.969
 31
0.0
  0
LINE
  8
0
 62
     0
 10
0.421679
 20
131.969
 30
0.0
 11
0.537436
 21
132.176
 31
0.0
  0
LINE
  8
0
 62
     0
 10
0.537436
 20
132.176
 30
0.0
 11
0.666972
 21
132.372
 31
0.0
  0
LINE
  8
0
 62
     0
 10
0.666972
 20
132.372
 30
0.0
 11
0.813043
 21
132.556
 31
0.0
  0
LINE
  8
0
 62
     0
 10
0.813043
 20
132.556
 30
0.0
 11
0.972894
 21
132.73
 31
0.0
  0
LINE
  8
0
 62
     0
 10
0.972894
 20
132.73
 30
0.0
 11
1.14653
 21
132.89
 31
0.0
  0
LINE
  8
0
 62
     0
 10
1.14653
 20
132.89
 30
0.0
 11
1.33119
 21
133.036
 31
0.0
  0
LINE
  8
0
 62
     0
 10
1.33119
 20
133.036
 30
0.0
 11
1.52687
 21
133.165
 31
0.0
  0
LINE
  8
0
 62
     0
 10
1.52687
 20
133.165
 30
0.0
 11
1.73357
 21
133.281
 31
0.0
  0
LINE
  8
0
 62
     0
 10
1.73357
 20
133.281
 30
0.0
 11
1.94717
 21
133.379
 31
0.0
  0
LINE
  8
0
 62
     0
 10
1.94717
 20
133.379
 30
0.0
 11
2.16765
 21
133.461
 31
0.0
  0
LINE
  8
0
 62
     0
 10
2.16765
 20
133.461
 30
0.0
 11
2.39503
 21
133.525
 31
0.0
  0
LINE
  8
0
 62
     0
 10
2.39503
 20
133.525
 30
0.0
 11
2.62516
 21
133.572
 31
0.0
  0
LINE
  8
0
 62
     0
 10
2.62516
 20
133.572
 30
0.0
 11
2.85943
 21
133.598
 31
0.0
  0
LINE
  8
0
 62
     0
 10
2.85943
 20
133.598
 30
0.0
 11
3.09507
 21
133.608
 31
0.0
  0
LINE
  8
0
 62
     0
 10
3.09507
 20
133.608
 30
0.0
 11
298.847
 21
133.608
 31
0.0
  0
LINE
  8
0
 62
     0
 10
3.63114
 20
5.78362
 30
0.0
 11
3.21359
 21
5.57004
 31
0.0
  0
LINE
  8
0
 62
     0
 10
3.21359
 20
5.57004
 30
0.0
 11
2.88148
 21
5.23794
 31
0.0
  0
LINE
  8
0
 62
     0
 10
2.88148
 20
5.23794
 30
0.0
 11
2.66788
 21
4.82039
 31
0.0
  0
LINE
  8
0
 62
     0
 10
2.66788
 20
4.82039
 30
0.0
 11
2.59485
 21
4.35599
 31
0.0
  0
LINE
  8
0
 62
     0
 10
2.59485
 20
4.35599
 30
0.0
 11
2.66788
 21
3.89297
 31
0.0
  0
LINE
  8
0
 62
     0
 10
2.66788
 20
3.89297
 30
0.0
 11
2.88148
 21
3.47541
 31
0.0
  0
LINE
  8
0
 62
     0
 10
2.88148
 20
3.47541
 30
0.0
 11
3.21359
 21
3.14331
 31
0.0
  0
LINE
  8
0
 62
     0
 10
3.21359
 20
3.14331
 30
0.0
 11
3.63114
 21
2.92971
 31
0.0
  0
LINE
  8
0
 62
     0
 10
3.63114
 20
2.92971
 30
0.0
 11
4.09554
 21
2.85667
 31
0.0
  0
LINE
  8
0
 62
     0
 10
4.09554
 20
2.85667
 30
0.0
 11
4.55856
 21
2.92971
 31
0.0
  0
LINE
  8
0
 62
     0
 10
4.55856
 20
2.92971
 30
0.0
 11
4.97611
 21
3.14331
 31
0.0
  0
LINE
  8
0
 62
     0
 10
4.97611
 20
3.14331
 30
0.0
 11
5.30821
 21
3.47541
 31
0.0
  0
LINE
  8
0
 62
     0
 10
5.30821
 20
3.47541
 30
0.0
 11
5.52178
 21
3.89297
 31
0.0
  0
LINE
  8
0
 62
     0
 10
5.52178
 20
3.89297
 30
0.0
 11
5.59484
 21
4.35599
 31
0.0
  0
LINE
  8
0
 62
     0
 10
5.59484
 20
4.35599
 30
0.0
 11
5.52178
 21
4.82039
 31
0.0
  0
LINE
  8
0
 62
     0
 10
5.52178
 20
4.82039
 30
0.0
 11
5.30821
 21
5.23794
 31
0.0
  0
LINE
  8
0
 62
     0
 10
5.30821
 20
5.23794
 30
0.0
 11
4.97611
 21
5.57004
 31
0.0
  0
LINE
  8
0
 62
     0
 10
4.97611
 20
5.57004
 30
0.0
 11
4.55856
 21
5.78362
 31
0.0
  0
LINE
  8
0
 62
     0
 10
4.55856
 20
5.78362
 30
0.0
 11
4.09554
 21
5.85668
 31
0.0
  0
LINE
  8
0
 62
     0
 10
4.09554
 20
5.85668
 30
0.0
 11
3.63114
 21
5.78362
 31
0.0
  0
LINE
  8
0
 62
     0
 10
77.0696
 20
5.78362
 30
0.0
 11
76.6519
 21
5.57004
 31
0.0
  0
LINE
  8
0
 62
     0
 10
76.6519
 20
5.57004
 30
0.0
 11
76.3199
 21
5.23794
 31
0.0
  0
LINE
  8
0
 62
     0
 10
76.3199
 20
5.23794
 30
0.0
 11
76.1062
 21
4.82039
 31
0.0
  0
LINE
  8
0
 62
     0
 10
76.1062
 20
4.82039
 30
0.0
 11
76.0317
 21
4.35599
 31
0.0
  0
LINE
  8
0
 62
     0
 10
76.0317
 20
4.35599
 30
0.0
 11
76.1062
 21
3.89297
 31
0.0
  0
LINE
  8
0
 62
     0
 10
76.1062
 20
3.89297
 30
0.0
 11
76.3199
 21
3.47541
 31
0.0
  0
LINE
  8
0
 62
     0
 10
76.3199
 20
3.47541
 30
0.0
 11
76.6519
 21
3.14331
 31
0.0
  0
LINE
  8
0
 62
     0
 10
76.6519
 20
3.14331
 30
0.0
 11
77.0696
 21
2.92971
 31
0.0
  0
LINE
  8
0
 62
     0
 10
77.0696
 20
2.92971
 30
0.0
 11
77.5324
 21
2.85667
 31
0.0
  0
LINE
  8
0
 62
     0
 10
77.5324
 20
2.85667
 30
0.0
 11
77.997
 21
2.92971
 31
0.0
  0
LINE
  8
0
 62
     0
 10
77.997
 20
2.92971
 30
0.0
 11
78.4144
 21
3.14331
 31
0.0
  0
LINE
  8
0
 62
     0
 10
78.4144
 20
3.14331
 30
0.0
 11
78.7467
 21
3.47541
 31
0.0
  0
LINE
  8
0
 62
     0
 10
78.7467
 20
3.47541
 30
0.0
 11
78.9587
 21
3.89297
 31
0.0
  0
LINE
  8
0
 62
     0
 10
78.9587
 20
3.89297
 30
0.0
 11
79.0317
 21
4.35599
 31
0.0
  0
LINE
  8
0
 62
     0
 10
79.0317
 20
4.35599
 30
0.0
 11
78.9587
 21
4.82039
 31
0.0
  0
LINE
  8
0
 62
     0
 10
78.9587
 20
4.82039
 30
0.0
 11
78.7467
 21
5.23794
 31
0.0
  0
LINE
  8
0
 62
     0
 10
78.7467
 20
5.23794
 30
0.0
 11
78.4144
 21
5.57004
 31
0.0
  0
LINE
  8
0
 62
     0
 10
78.4144
 20
5.57004
 30
0.0
 11
77.997
 21
5.78362
 31
0.0
  0
LINE
  8
0
 62
     0
 10
77.997
 20
5.78362
 30
0.0
 11
77.5324
 21
5.85668
 31
0.0
  0
LINE
  8
0
 62
     0
 10
77.5324
 20
5.85668
 30
0.0
 11
77.0696
 21
5.78362
 31
0.0
  0
LINE
  8
0
 62
     0
 10
150.507
 20
5.78362
 30
0.0
 11
150.089
 21
5.57004
 31
0.0
  0
LINE
  8
0
 62
     0
 10
150.089
 20
5.57004
 30
0.0
 11
149.757
 21
5.23794
 31
0.0
  0
LINE
  8
0
 62
     0
 10
149.757
 20
5.23794
 30
0.0
 11
149.543
 21
4.82039
 31
0.0
  0
LINE
  8
0
 62
     0
 10
149.543
 20
4.82039
 30
0.0
 11
149.47
 21
4.35599
 31
0.0
  0
LINE
  8
0
 62
     0
 10
149.47
 20
4.35599
 30
0.0
 11
149.543
 21
3.89297
 31
0.0
  0
LINE
  8
0
 62
     0
 10
149.543
 20
3.89297
 30
0.0
 11
149.757
 21
3.47541
 31
0.0
  0
LINE
  8
0
 62
     0
 10
149.757
 20
3.47541
 30
0.0
 11
150.089
 21
3.14331
 31
0.0
  0
LINE
  8
0
 62
     0
 10
150.089
 20
3.14331
 30
0.0
 11
150.507
 21
2.92971
 31
0.0
  0
LINE
  8
0
 62
     0
 10
150.507
 20
2.92971
 30
0.0
 11
150.971
 21
2.85667
 31
0.0
  0
LINE
  8
0
 62
     0
 10
150.971
 20
2.85667
 30
0.0
 11
151.434
 21
2.92971
 31
0.0
  0
LINE
  8
0
 62
     0
 10
151.434
 20
2.92971
 30
0.0
 11
151.853
 21
3.14331
 31
0.0
  0
LINE
  8
0
 62
     0
 10
151.853
 20
3.14331
 30
0.0
 11
152.185
 21
3.47541
 31
0.0
  0
LINE
  8
0
 62
     0
 10
152.185
 20
3.47541
 30
0.0
 11
152.397
 21
3.89297
 31
0.0
  0
LINE
  8
0
 62
     0
 10
152.397
 20
3.89297
 30
0.0
 11
152.47
 21
4.35599
 31
0.0
  0
LINE
  8
0
 62
     0
 10
152.47
 20
4.35599
 30
0.0
 11
152.397
 21
4.82039
 31
0.0
  0
LINE
  8
0
 62
     0
 10
152.397
 20
4.82039
 30
0.0
 11
152.185
 21
5.23794
 31
0.0
  0
LINE
  8
0
 62
     0
 10
152.185
 20
5.23794
 30
0.0
 11
151.853
 21
5.57004
 31
0.0
  0
LINE
  8
0
 62
     0
 10
151.853
 20
5.57004
 30
0.0
 11
151.434
 21
5.78362
 31
0.0
  0
LINE
  8
0
 62
     0
 10
151.434
 20
5.78362
 30
0.0
 11
150.971
 21
5.85668
 31
0.0
  0
LINE
  8
0
 62
     0
 10
150.971
 20
5.85668
 30
0.0
 11
150.507
 21
5.78362
 31
0.0
  0
LINE
  8
0
 62
     0
 10
223.945
 20
5.78362
 30
0.0
 11
223.526
 21
5.57004
 31
0.0
  0
LINE
  8
0
 62
     0
 10
223.526
 20
5.57004
 30
0.0
 11
223.194
 21
5.23794
 31
0.0
  0
LINE
  8
0
 62
     0
 10
223.194
 20
5.23794
 30
0.0
 11
222.982
 21
4.82039
 31
0.0
  0
LINE
  8
0
 62
     0
 10
222.982
 20
4.82039
 30
0.0
 11
222.909
 21
4.35599
 31
0.0
  0
LINE
  8
0
 62
     0
 10
222.909
 20
4.35599
 30
0.0
 11
222.982
 21
3.89297
 31
0.0
  0
LINE
  8
0
 62
     0
 10
222.982
 20
3.89297
 30
0.0
 11
223.194
 21
3.47541
 31
0.0
  0
LINE
  8
0
 62
     0
 10
223.194
 20
3.47541
 30
0.0
 11
223.526
 21
3.14331
 31
0.0
  0
LINE
  8
0
 62
     0
 10
223.526
 20
3.14331
 30
0.0
 11
223.945
 21
2.92971
 31
0.0
  0
LINE
  8
0
 62
     0
 10
223.945
 20
2.92971
 30
0.0
 11
224.408
 21
2.85667
 31
0.0
  0
LINE
  8
0
 62
     0
 10
224.408
 20
2.85667
 30
0.0
 11
224.871
 21
2.92971
 31
0.0
  0
LINE
  8
0
 62
     0
 10
224.871
 20
2.92971
 30
0.0
 11
225.29
 21
3.14331
 31
0.0
  0
LINE
  8
0
 62
     0
 10
225.29
 20
3.14331
 30
0.0
 11
225.622
 21
3.47541
 31
0.0
  0
LINE
  8
0
 62
     0
 10
225.622
 20
3.47541
 30
0.0
 11
225.834
 21
3.89297
 31
0.0
  0
LINE
  8
0
 62
     0
 10
225.834
 20
3.89297
 30
0.0
 11
225.909
 21
4.35599
 31
0.0
  0
LINE
  8
0
 62
     0
 10
225.909
 20
4.35599
 30
0.0
 11
225.834
 21
4.82039
 31
0.0
  0
LINE
  8
0
 62
     0
 10
225.834
 20
4.82039
 30
0.0
 11
225.622
 21
5.23794
 31
0.0
  0
LINE
  8
0
 62
     0
 10
225.622
 20
5.23794
 30
0.0
 11
225.29
 21
5.57004
 31
0.0
  0
LINE
  8
0
 62
     0
 10
225.29
 20
5.57004
 30
0.0
 11
224.871
 21
5.78362
 31
0.0
  0
LINE
  8
0
 62
     0
 10
224.871
 20
5.78362
 30
0.0
 11
224.408
 21
5.85668
 31
0.0
  0
LINE
  8
0
 62
     0
 10
224.408
 20
5.85668
 30
0.0
 11
223.945
 21
5.78362
 31
0.0
  0
LINE
  8
0
 62
     0
 10
297.382
 20
5.78362
 30
0.0
 11
296.964
 21
5.57004
 31
0.0
  0
LINE
  8
0
 62
     0
 10
296.964
 20
5.57004
 30
0.0
 11
296.632
 21
5.23794
 31
0.0
  0
LINE
  8
0
 62
     0
 10
296.632
 20
5.23794
 30
0.0
 11
296.42
 21
4.82039
 31
0.0
  0
LINE
  8
0
 62
     0
 10
296.42
 20
4.82039
 30
0.0
 11
296.347
 21
4.35599
 31
0.0
  0
LINE
  8
0
 62
     0
 10
296.347
 20
4.35599
 30
0.0
 11
296.42
 21
3.89297
 31
0.0
  0
LINE
  8
0
 62
     0
 10
296.42
 20
3.89297
 30
0.0
 11
296.632
 21
3.47541
 31
0.0
  0
LINE
  8
0
 62
     0
 10
296.632
 20
3.47541
 30
0.0
 11
296.964
 21
3.14331
 31
0.0
  0
LINE
  8
0
 62
     0
 10
296.964
 20
3.14331
 30
0.0
 11
297.382
 21
2.92971
 31
0.0
  0
LINE
  8
0
 62
     0
 10
297.382
 20
2.92971
 30
0.0
 11
297.846
 21
2.85667
 31
0.0
  0
LINE
  8
0
 62
     0
 10
297.846
 20
2.85667
 30
0.0
 11
298.31
 21
2.92971
 31
0.0
  0
LINE
  8
0
 62
     0
 10
298.31
 20
2.92971
 30
0.0
 11
298.727
 21
3.14331
 31
0.0
  0
LINE
  8
0
 62
     0
 10
298.727
 20
3.14331
 30
0.0
 11
299.059
 21
3.47541
 31
0.0
  0
LINE
  8
0
 62
     0
 10
299.059
 20
3.47541
 30
0.0
 11
299.273
 21
3.89297
 31
0.0
  0
LINE
  8
0
 62
     0
 10
299.273
 20
3.89297
 30
0.0
 11
299.347
 21
4.35599
 31
0.0
  0
LINE
  8
0
 62
     0
 10
299.347
 20
4.35599
 30
0.0
 11
299.273
 21
4.82039
 31
0.0
  0
LINE
  8
0
 62
     0
 10
299.273
 20
4.82039
 30
0.0
 11
299.059
 21
5.23794
 31
0.0
  0
LINE
  8
0
 62
     0
 10
299.059
 20
5.23794
 30
0.0
 11
298.727
 21
5.57004
 31
0.0
  0
LINE
  8
0
 62
     0
 10
298.727
 20
5.57004
 30
0.0
 11
298.31
 21
5.78362
 31
0.0
  0
LINE
  8
0
 62
     0
 10
298.31
 20
5.78362
 30
0.0
 11
297.846
 21
5.85668
 31
0.0
  0
LINE
  8
0
 62
     0
 10
297.846
 20
5.85668
 30
0.0
 11
297.382
 21
5.78362
 31
0.0
  0
LINE
  8
0
 62
     0
 10
8.09597
 20
125.607
 30
0.0
 11
293.846
 21
125.607
 31
0.0
  0
LINE
  8
0
 62
     0
 10
293.846
 20
125.607
 30
0.0
 11
293.846
 21
8.35642
 31
0.0
  0
LINE
  8
0
 62
     0
 10
293.846
 20
8.35642
 30
0.0
 11
8.09597
 21
8.35642
 31
0.0
  0
LINE
  8
0
 62
     0
 10
8.09597
 20
8.35642
 30
0.0
 11
8.09597
 21
125.607
 31
0.0
  0
LINE
  8
0
 62
     0
 10
3.63114
 20
68.41
 30
0.0
 11
3.21359
 21
68.1965
 31
0.0
  0
LINE
  8
0
 62
     0
 10
3.21359
 20
68.1965
 30
0.0
 11
2.88148
 21
67.8642
 31
0.0
  0
LINE
  8
0
 62
     0
 10
2.88148
 20
67.8642
 30
0.0
 11
2.66788
 21
67.4469
 31
0.0
  0
LINE
  8
0
 62
     0
 10
2.66788
 20
67.4469
 30
0.0
 11
2.59485
 21
66.9823
 31
0.0
  0
LINE
  8
0
 62
     0
 10
2.59485
 20
66.9823
 30
0.0
 11
2.66788
 21
66.518
 31
0.0
  0
LINE
  8
0
 62
     0
 10
2.66788
 20
66.518
 30
0.0
 11
2.88148
 21
66.1003
 31
0.0
  0
LINE
  8
0
 62
     0
 10
2.88148
 20
66.1003
 30
0.0
 11
3.21359
 21
65.7684
 31
0.0
  0
LINE
  8
0
 62
     0
 10
3.21359
 20
65.7684
 30
0.0
 11
3.63114
 21
65.5546
 31
0.0
  0
LINE
  8
0
 62
     0
 10
3.63114
 20
65.5546
 30
0.0
 11
4.09554
 21
65.4816
 31
0.0
  0
LINE
  8
0
 62
     0
 10
4.09554
 20
65.4816
 30
0.0
 11
4.55856
 21
65.5546
 31
0.0
  0
LINE
  8
0
 62
     0
 10
4.55856
 20
65.5546
 30
0.0
 11
4.97611
 21
65.7684
 31
0.0
  0
LINE
  8
0
 62
     0
 10
4.97611
 20
65.7684
 30
0.0
 11
5.30821
 21
66.1003
 31
0.0
  0
LINE
  8
0
 62
     0
 10
5.30821
 20
66.1003
 30
0.0
 11
5.52178
 21
66.518
 31
0.0
  0
LINE
  8
0
 62
     0
 10
5.52178
 20
66.518
 30
0.0
 11
5.59484
 21
66.9823
 31
0.0
  0
LINE
  8
0
 62
     0
 10
5.59484
 20
66.9823
 30
0.0
 11
5.52178
 21
67.4469
 31
0.0
  0
LINE
  8
0
 62
     0
 10
5.52178
 20
67.4469
 30
0.0
 11
5.30821
 21
67.8642
 31
0.0
  0
LINE
  8
0
 62
     0
 10
5.30821
 20
67.8642
 30
0.0
 11
4.97611
 21
68.1965
 31
0.0
  0
LINE
  8
0
 62
     0
 10
4.97611
 20
68.1965
 30
0.0
 11
4.55856
 21
68.41
 31
0.0
  0
LINE
  8
0
 62
     0
 10
4.55856
 20
68.41
 30
0.0
 11
4.09554
 21
68.4816
 31
0.0
  0
LINE
  8
0
 62
     0
 10
4.09554
 20
68.4816
 30
0.0
 11
3.63114
 21
68.41
 31
0.0
  0
LINE
  8
0
 62
     0
 10
297.382
 20
68.41
 30
0.0
 11
296.964
 21
68.1965
 31
0.0
  0
LINE
  8
0
 62
     0
 10
296.964
 20
68.1965
 30
0.0
 11
296.632
 21
67.8642
 31
0.0
  0
LINE
  8
0
 62
     0
 10
296.632
 20
67.8642
 30
0.0
 11
296.42
 21
67.4469
 31
0.0
  0
LINE
  8
0
 62
     0
 10
296.42
 20
67.4469
 30
0.0
 11
296.347
 21
66.9823
 31
0.0
  0
LINE
  8
0
 62
     0
 10
296.347
 20
66.9823
 30
0.0
 11
296.42
 21
66.518
 31
0.0
  0
LINE
  8
0
 62
     0
 10
296.42
 20
66.518
 30
0.0
 11
296.632
 21
66.1003
 31
0.0
  0
LINE
  8
0
 62
     0
 10
296.632
 20
66.1003
 30
0.0
 11
296.964
 21
65.7684
 31
0.0
  0
LINE
  8
0
 62
     0
 10
296.964
 20
65.7684
 30
0.0
 11
297.382
 21
65.5546
 31
0.0
  0
LINE
  8
0
 62
     0
 10
297.382
 20
65.5546
 30
0.0
 11
297.846
 21
65.4816
 31
0.0
  0
LINE
  8
0
 62
     0
 10
297.846
 20
65.4816
 30
0.0
 11
298.31
 21
65.5546
 31
0.0
  0
LINE
  8
0
 62
     0
 10
298.31
 20
65.5546
 30
0.0
 11
298.727
 21
65.7684
 31
0.0
  0
LINE
  8
0
 62
     0
 10
298.727
 20
65.7684
 30
0.0
 11
299.059
 21
66.1003
 31
0.0
  0
LINE
  8
0
 62
     0
 10
299.059
 20
66.1003
 30
0.0
 11
299.273
 21
66.518
 31
0.0
  0
LINE
  8
0
 62
     0
 10
299.273
 20
66.518
 30
0.0
 11
299.347
 21
66.9823
 31
0.0
  0
LINE
  8
0
 62
     0
 10
299.347
 20
66.9823
 30
0.0
 11
299.273
 21
67.4469
 31
0.0
  0
LINE
  8
0
 62
     0
 10
299.273
 20
67.4469
 30
0.0
 11
299.059
 21
67.8642
 31
0.0
  0
LINE
  8
0
 62
     0
 10
299.059
 20
67.8642
 30
0.0
 11
298.727
 21
68.1965
 31
0.0
  0
LINE
  8
0
 62
     0
 10
298.727
 20
68.1965
 30
0.0
 11
298.31
 21
68.41
 31
0.0
  0
LINE
  8
0
 62
     0
 10
298.31
 20
68.41
 30
0.0
 11
297.846
 21
68.4816
 31
0.0
  0
LINE
  8
0
 62
     0
 10
297.846
 20
68.4816
 30
0.0
 11
297.382
 21
68.41
 31
0.0
  0
LINE
  8
0
 62
     0
 10
3.63114
 20
131.035
 30
0.0
 11
3.21359
 21
130.821
 31
0.0
  0
LINE
  8
0
 62
     0
 10
3.21359
 20
130.821
 30
0.0
 11
2.88148
 21
130.489
 31
0.0
  0
LINE
  8
0
 62
     0
 10
2.88148
 20
130.489
 30
0.0
 11
2.66788
 21
130.072
 31
0.0
  0
LINE
  8
0
 62
     0
 10
2.66788
 20
130.072
 30
0.0
 11
2.59485
 21
129.607
 31
0.0
  0
LINE
  8
0
 62
     0
 10
2.59485
 20
129.607
 30
0.0
 11
2.66788
 21
129.144
 31
0.0
  0
LINE
  8
0
 62
     0
 10
2.66788
 20
129.144
 30
0.0
 11
2.88148
 21
128.727
 31
0.0
  0
LINE
  8
0
 62
     0
 10
2.88148
 20
128.727
 30
0.0
 11
3.21359
 21
128.395
 31
0.0
  0
LINE
  8
0
 62
     0
 10
3.21359
 20
128.395
 30
0.0
 11
3.63114
 21
128.181
 31
0.0
  0
LINE
  8
0
 62
     0
 10
3.63114
 20
128.181
 30
0.0
 11
4.09554
 21
128.108
 31
0.0
  0
LINE
  8
0
 62
     0
 10
4.09554
 20
128.108
 30
0.0
 11
4.55856
 21
128.181
 31
0.0
  0
LINE
  8
0
 62
     0
 10
4.55856
 20
128.181
 30
0.0
 11
4.97611
 21
128.395
 31
0.0
  0
LINE
  8
0
 62
     0
 10
4.97611
 20
128.395
 30
0.0
 11
5.30821
 21
128.727
 31
0.0
  0
LINE
  8
0
 62
     0
 10
5.30821
 20
128.727
 30
0.0
 11
5.52178
 21
129.144
 31
0.0
  0
LINE
  8
0
 62
     0
 10
5.52178
 20
129.144
 30
0.0
 11
5.59484
 21
129.607
 31
0.0
  0
LINE
  8
0
 62
     0
 10
5.59484
 20
129.607
 30
0.0
 11
5.52178
 21
130.072
 31
0.0
  0
LINE
  8
0
 62
     0
 10
5.52178
 20
130.072
 30
0.0
 11
5.30821
 21
130.489
 31
0.0
  0
LINE
  8
0
 62
     0
 10
5.30821
 20
130.489
 30
0.0
 11
4.97611
 21
130.821
 31
0.0
  0
LINE
  8
0
 62
     0
 10
4.97611
 20
130.821
 30
0.0
 11
4.55856
 21
131.035
 31
0.0
  0
LINE
  8
0
 62
     0
 10
4.55856
 20
131.035
 30
0.0
 11
4.09554
 21
131.108
 31
0.0
  0
LINE
  8
0
 62
     0
 10
4.09554
 20
131.108
 30
0.0
 11
3.63114
 21
131.035
 31
0.0
  0
LINE
  8
0
 62
     0
 10
297.382
 20
131.035
 30
0.0
 11
296.964
 21
130.821
 31
0.0
  0
LINE
  8
0
 62
     0
 10
296.964
 20
130.821
 30
0.0
 11
296.632
 21
130.489
 31
0.0
  0
LINE
  8
0
 62
     0
 10
296.632
 20
130.489
 30
0.0
 11
296.42
 21
130.072
 31
0.0
  0
LINE
  8
0
 62
     0
 10
296.42
 20
130.072
 30
0.0
 11
296.347
 21
129.607
 31
0.0
  0
LINE
  8
0
 62
     0
 10
296.347
 20
129.607
 30
0.0
 11
296.42
 21
129.144
 31
0.0
  0
LINE
  8
0
 62
     0
 10
296.42
 20
129.144
 30
0.0
 11
296.632
 21
128.727
 31
0.0
  0
LINE
  8
0
 62
     0
 10
296.632
 20
128.727
 30
0.0
 11
296.964
 21
128.395
 31
0.0
  0
LINE
  8
0
 62
     0
 10
296.964
 20
128.395
 30
0.0
 11
297.382
 21
128.181
 31
0.0
  0
LINE
  8
0
 62
     0
 10
297.382
 20
128.181
 30
0.0
 11
297.846
 21
128.108
 31
0.0
  0
LINE
  8
0
 62
     0
 10
297.846
 20
128.108
 30
0.0
 11
298.31
 21
128.181
 31
0.0
  0
LINE
  8
0
 62
     0
 10
298.31
 20
128.181
 30
0.0
 11
298.727
 21
128.395
 31
0.0
  0
LINE
  8
0
 62
     0
 10
298.727
 20
128.395
 30
0.0
 11
299.059
 21
128.727
 31
0.0
  0
LINE
  8
0
 62
     0
 10
299.059
 20
128.727
 30
0.0
 11
299.273
 21
129.144
 31
0.0
  0
LINE
  8
0
 62
     0
 10
299.273
 20
129.144
 30
0.0
 11
299.347
 21
129.607
 31
0.0
  0
LINE
  8
0
 62
     0
 10
299.347
 20
129.607
 30
0.0
 11
299.273
 21
130.072
 31
0.0
  0
LINE
  8
0
 62
     0
 10
299.273
 20
130.072
 30
0.0
 11
299.059
 21
130.489
 31
0.0
  0
LINE
  8
0
 62
     0
 10
299.059
 20
130.489
 30
0.0
 11
298.727
 21
130.821
 31
0.0
  0
LINE
  8
0
 62
     0
 10
298.727
 20
130.821
 30
0.0
 11
298.31
 21
131.035
 31
0.0
  0
LINE
  8
0
 62
     0
 10
298.31
 20
131.035
 30
0.0
 11
297.846
 21
131.108
 31
0.0
  0
LINE
  8
0
 62
     0
 10
297.846
 20
131.108
 30
0.0
 11
297.382
 21
131.035
 31
0.0
  0
LINE
  8
0
 62
     0
 10
223.945
 20
131.035
 30
0.0
 11
223.526
 21
130.821
 31
0.0
  0
LINE
  8
0
 62
     0
 10
223.526
 20
130.821
 30
0.0
 11
223.194
 21
130.489
 31
0.0
  0
LINE
  8
0
 62
     0
 10
223.194
 20
130.489
 30
0.0
 11
222.982
 21
130.072
 31
0.0
  0
LINE
  8
0
 62
     0
 10
222.982
 20
130.072
 30
0.0
 11
222.909
 21
129.607
 31
0.0
  0
LINE
  8
0
 62
     0
 10
222.909
 20
129.607
 30
0.0
 11
222.982
 21
129.144
 31
0.0
  0
LINE
  8
0
 62
     0
 10
222.982
 20
129.144
 30
0.0
 11
223.194
 21
128.727
 31
0.0
  0
LINE
  8
0
 62
     0
 10
223.194
 20
128.727
 30
0.0
 11
223.526
 21
128.395
 31
0.0
  0
LINE
  8
0
 62
     0
 10
223.526
 20
128.395
 30
0.0
 11
223.945
 21
128.181
 31
0.0
  0
LINE
  8
0
 62
     0
 10
223.945
 20
128.181
 30
0.0
 11
224.408
 21
128.108
 31
0.0
  0
LINE
  8
0
 62
     0
 10
224.408
 20
128.108
 30
0.0
 11
224.871
 21
128.181
 31
0.0
  0
LINE
  8
0
 62
     0
 10
224.871
 20
128.181
 30
0.0
 11
225.29
 21
128.395
 31
0.0
  0
LINE
  8
0
 62
     0
 10
225.29
 20
128.395
 30
0.0
 11
225.622
 21
128.727
 31
0.0
  0
LINE
  8
0
 62
     0
 10
225.622
 20
128.727
 30
0.0
 11
225.834
 21
129.144
 31
0.0
  0
LINE
  8
0
 62
     0
 10
225.834
 20
129.144
 30
0.0
 11
225.909
 21
129.607
 31
0.0
  0
LINE
  8
0
 62
     0
 10
225.909
 20
129.607
 30
0.0
 11
225.834
 21
130.072
 31
0.0
  0
LINE
  8
0
 62
     0
 10
225.834
 20
130.072
 30
0.0
 11
225.622
 21
130.489
 31
0.0
  0
LINE
  8
0
 62
     0
 10
225.622
 20
130.489
 30
0.0
 11
225.29
 21
130.821
 31
0.0
  0
LINE
  8
0
 62
     0
 10
225.29
 20
130.821
 30
0.0
 11
224.871
 21
131.035
 31
0.0
  0
LINE
  8
0
 62
     0
 10
224.871
 20
131.035
 30
0.0
 11
224.408
 21
131.108
 31
0.0
  0
LINE
  8
0
 62
     0
 10
224.408
 20
131.108
 30
0.0
 11
223.945
 21
131.035
 31
0.0
  0
LINE
  8
0
 62
     0
 10
150.507
 20
131.035
 30
0.0
 11
150.089
 21
130.821
 31
0.0
  0
LINE
  8
0
 62
     0
 10
150.089
 20
130.821
 30
0.0
 11
149.757
 21
130.489
 31
0.0
  0
LINE
  8
0
 62
     0
 10
149.757
 20
130.489
 30
0.0
 11
149.543
 21
130.072
 31
0.0
  0
LINE
  8
0
 62
     0
 10
149.543
 20
130.072
 30
0.0
 11
149.47
 21
129.607
 31
0.0
  0
LINE
  8
0
 62
     0
 10
149.47
 20
129.607
 30
0.0
 11
149.543
 21
129.144
 31
0.0
  0
LINE
  8
0
 62
     0
 10
149.543
 20
129.144
 30
0.0
 11
149.757
 21
128.727
 31
0.0
  0
LINE
  8
0
 62
     0
 10
149.757
 20
128.727
 30
0.0
 11
150.089
 21
128.395
 31
0.0
  0
LINE
  8
0
 62
     0
 10
150.089
 20
128.395
 30
0.0
 11
150.507
 21
128.181
 31
0.0
  0
LINE
  8
0
 62
     0
 10
150.507
 20
128.181
 30
0.0
 11
150.971
 21
128.108
 31
0.0
  0
LINE
  8
0
 62
     0
 10
150.971
 20
128.108
 30
0.0
 11
151.434
 21
128.181
 31
0.0
  0
LINE
  8
0
 62
     0
 10
151.434
 20
128.181
 30
0.0
 11
151.853
 21
128.395
 31
0.0
  0
LINE
  8
0
 62
     0
 10
151.853
 20
128.395
 30
0.0
 11
152.185
 21
128.727
 31
0.0
  0
LINE
  8
0
 62
     0
 10
152.185
 20
128.727
 30
0.0
 11
152.397
 21
129.144
 31
0.0
  0
LINE
  8
0
 62
     0
 10
152.397
 20
129.144
 30
0.0
 11
152.47
 21
129.607
 31
0.0
  0
LINE
  8
0
 62
     0
 10
152.47
 20
129.607
 30
0.0
 11
152.397
 21
130.072
 31
0.0
  0
LINE
  8
0
 62
     0
 10
152.397
 20
130.072
 30
0.0
 11
152.185
 21
130.489
 31
0.0
  0
LINE
  8
0
 62
     0
 10
152.185
 20
130.489
 30
0.0
 11
151.853
 21
130.821
 31
0.0
  0
LINE
  8
0
 62
     0
 10
151.853
 20
130.821
 30
0.0
 11
151.434
 21
131.035
 31
0.0
  0
LINE
  8
0
 62
     0
 10
151.434
 20
131.035
 30
0.0
 11
150.971
 21
131.108
 31
0.0
  0
LINE
  8
0
 62
     0
 10
150.971
 20
131.108
 30
0.0
 11
150.507
 21
131.035
 31
0.0
  0
LINE
  8
0
 62
     0
 10
77.0696
 20
131.035
 30
0.0
 11
76.6519
 21
130.821
 31
0.0
  0
LINE
  8
0
 62
     0
 10
76.6519
 20
130.821
 30
0.0
 11
76.3199
 21
130.489
 31
0.0
  0
LINE
  8
0
 62
     0
 10
76.3199
 20
130.489
 30
0.0
 11
76.1062
 21
130.072
 31
0.0
  0
LINE
  8
0
 62
     0
 10
76.1062
 20
130.072
 30
0.0
 11
76.0317
 21
129.607
 31
0.0
  0
LINE
  8
0
 62
     0
 10
76.0317
 20
129.607
 30
0.0
 11
76.1062
 21
129.144
 31
0.0
  0
LINE
  8
0
 62
     0
 10
76.1062
 20
129.144
 30
0.0
 11
76.3199
 21
128.727
 31
0.0
  0
LINE
  8
0
 62
     0
 10
76.3199
 20
128.727
 30
0.0
 11
76.6519
 21
128.395
 31
0.0
  0
LINE
  8
0
 62
     0
 10
76.6519
 20
128.395
 30
0.0
 11
77.0696
 21
128.181
 31
0.0
  0
LINE
  8
0
 62
     0
 10
77.0696
 20
128.181
 30
0.0
 11
77.5324
 21
128.108
 31
0.0
  0
LINE
  8
0
 62
     0
 10
77.5324
 20
128.108
 30
0.0
 11
77.997
 21
128.181
 31
0.0
  0
LINE
  8
0
 62
     0
 10
77.997
 20
128.181
 30
0.0
 11
78.4144
 21
128.395
 31
0.0
  0
LINE
  8
0
 62
     0
 10
78.4144
 20
128.395
 30
0.0
 11
78.7467
 21
128.727
 31
0.0
  0
LINE
  8
0
 62
     0
 10
78.7467
 20
128.727
 30
0.0
 11
78.9587
 21
129.144
 31
0.0
  0
LINE
  8
0
 62
     0
 10
78.9587
 20
129.144
 30
0.0
 11
79.0317
 21
129.607
 31
0.0
  0
LINE
  8
0
 62
     0
 10
79.0317
 20
129.607
 30
0.0
 11
78.9587
 21
130.072
 31
0.0
  0
LINE
  8
0
 62
     0
 10
78.9587
 20
130.072
 30
0.0
 11
78.7467
 21
130.489
 31
0.0
  0
LINE
  8
0
 62
     0
 10
78.7467
 20
130.489
 30
0.0
 11
78.4144
 21
130.821
 31
0.0
  0
LINE
  8
0
 62
     0
 10
78.4144
 20
130.821
 30
0.0
 11
77.997
 21
131.035
 31
0.0
  0
LINE
  8
0
 62
     0
 10
77.997
 20
131.035
 30
0.0
 11
77.5324
 21
131.108
 31
0.0
  0
LINE
  8
0
 62
     0
 10
77.5324
 20
131.108
 30
0.0
 11
77.0696
 21
131.035
 31
0.0
  0
ENDSEC
  0
EOF
