  0
SECTION
  2
HEADER
  9
$ACADVER
  1
AC1009
  9
$EXTMIN
 10
0.0
 20
0.0
 30
0.0
  9
$EXTMAX
 10
1000.0
 20
1000.0
 30
0.0
  9
$FILLMODE
 70
 0
  9
$SPLFRAME
 70
 1
  0
ENDSEC
  0
SECTION
  2
TABLES
  0
TABLE
  2
LAYER
 70
1
  0
LAYER
  2
0
 70
     0
 62
     7
  6
CONTINUOUS
  0
ENDTAB
  0
ENDSEC
  0
SECTION
  2
ENTITIES
  0
LINE
  8
0
 62
     0
 10
327.422
 20
133.608
 30
0.0
 11
327.656
 21
133.598
 31
0.0
  0
LINE
  8
0
 62
     0
 10
327.656
 20
133.598
 30
0.0
 11
327.89
 21
133.572
 31
0.0
  0
LINE
  8
0
 62
     0
 10
327.89
 20
133.572
 30
0.0
 11
328.122
 21
133.525
 31
0.0
  0
LINE
  8
0
 62
     0
 10
328.122
 20
133.525
 30
0.0
 11
328.348
 21
133.461
 31
0.0
  0
LINE
  8
0
 62
     0
 10
328.348
 20
133.461
 30
0.0
 11
328.57
 21
133.379
 31
0.0
  0
LINE
  8
0
 62
     0
 10
328.57
 20
133.379
 30
0.0
 11
328.782
 21
133.281
 31
0.0
  0
LINE
  8
0
 62
     0
 10
328.782
 20
133.281
 30
0.0
 11
328.989
 21
133.165
 31
0.0
  0
LINE
  8
0
 62
     0
 10
328.989
 20
133.165
 30
0.0
 11
329.184
 21
133.036
 31
0.0
  0
LINE
  8
0
 62
     0
 10
329.184
 20
133.036
 30
0.0
 11
329.369
 21
132.89
 31
0.0
  0
LINE
  8
0
 62
     0
 10
329.369
 20
132.89
 30
0.0
 11
329.543
 21
132.73
 31
0.0
  0
LINE
  8
0
 62
     0
 10
329.543
 20
132.73
 30
0.0
 11
329.703
 21
132.556
 31
0.0
  0
LINE
  8
0
 62
     0
 10
329.703
 20
132.556
 30
0.0
 11
329.849
 21
132.372
 31
0.0
  0
LINE
  8
0
 62
     0
 10
329.849
 20
132.372
 30
0.0
 11
329.978
 21
132.176
 31
0.0
  0
LINE
  8
0
 62
     0
 10
329.978
 20
132.176
 30
0.0
 11
330.094
 21
131.969
 31
0.0
  0
LINE
  8
0
 62
     0
 10
330.094
 20
131.969
 30
0.0
 11
330.193
 21
131.755
 31
0.0
  0
LINE
  8
0
 62
     0
 10
330.193
 20
131.755
 30
0.0
 11
330.274
 21
131.535
 31
0.0
  0
LINE
  8
0
 62
     0
 10
330.274
 20
131.535
 30
0.0
 11
330.338
 21
131.308
 31
0.0
  0
LINE
  8
0
 62
     0
 10
330.338
 20
131.308
 30
0.0
 11
330.385
 21
131.078
 31
0.0
  0
LINE
  8
0
 62
     0
 10
330.385
 20
131.078
 30
0.0
 11
330.411
 21
130.844
 31
0.0
  0
LINE
  8
0
 62
     0
 10
330.411
 20
130.844
 30
0.0
 11
330.422
 21
130.608
 31
0.0
  0
LINE
  8
0
 62
     0
 10
330.422
 20
130.608
 30
0.0
 11
330.422
 21
3.3569
 31
0.0
  0
LINE
  8
0
 62
     0
 10
330.422
 20
3.3569
 30
0.0
 11
330.411
 21
3.12126
 31
0.0
  0
LINE
  8
0
 62
     0
 10
330.411
 20
3.12126
 30
0.0
 11
330.385
 21
2.88699
 31
0.0
  0
LINE
  8
0
 62
     0
 10
330.385
 20
2.88699
 30
0.0
 11
330.338
 21
2.65686
 31
0.0
  0
LINE
  8
0
 62
     0
 10
330.338
 20
2.65686
 30
0.0
 11
330.274
 21
2.42948
 31
0.0
  0
LINE
  8
0
 62
     0
 10
330.274
 20
2.42948
 30
0.0
 11
330.193
 21
2.20762
 31
0.0
  0
LINE
  8
0
 62
     0
 10
330.193
 20
2.20762
 30
0.0
 11
330.094
 21
1.9954
 31
0.0
  0
LINE
  8
0
 62
     0
 10
330.094
 20
1.9954
 30
0.0
 11
329.978
 21
1.78869
 31
0.0
  0
LINE
  8
0
 62
     0
 10
329.978
 20
1.78869
 30
0.0
 11
329.849
 21
1.59301
 31
0.0
  0
LINE
  8
0
 62
     0
 10
329.849
 20
1.59301
 30
0.0
 11
329.703
 21
1.40836
 31
0.0
  0
LINE
  8
0
 62
     0
 10
329.703
 20
1.40836
 30
0.0
 11
329.543
 21
1.23472
 31
0.0
  0
LINE
  8
0
 62
     0
 10
329.543
 20
1.23472
 30
0.0
 11
329.369
 21
1.07487
 31
0.0
  0
LINE
  8
0
 62
     0
 10
329.369
 20
1.07487
 30
0.0
 11
329.184
 21
0.928797
 31
0.0
  0
LINE
  8
0
 62
     0
 10
329.184
 20
0.928797
 30
0.0
 11
328.989
 21
0.799264
 31
0.0
  0
LINE
  8
0
 62
     0
 10
328.989
 20
0.799264
 30
0.0
 11
328.782
 21
0.683507
 31
0.0
  0
LINE
  8
0
 62
     0
 10
328.782
 20
0.683507
 30
0.0
 11
328.57
 21
0.585668
 31
0.0
  0
LINE
  8
0
 62
     0
 10
328.57
 20
0.585668
 30
0.0
 11
328.348
 21
0.502984
 31
0.0
  0
LINE
  8
0
 62
     0
 10
328.348
 20
0.502984
 30
0.0
 11
328.122
 21
0.439593
 31
0.0
  0
LINE
  8
0
 62
     0
 10
328.122
 20
0.439593
 30
0.0
 11
327.89
 21
0.39274
 31
0.0
  0
LINE
  8
0
 62
     0
 10
327.89
 20
0.39274
 30
0.0
 11
327.656
 21
0.366557
 31
0.0
  0
LINE
  8
0
 62
     0
 10
327.656
 20
0.366557
 30
0.0
 11
327.422
 21
0.356912
 31
0.0
  0
LINE
  8
0
 62
     0
 10
327.422
 20
0.356912
 30
0.0
 11
3.09507
 21
0.356912
 31
0.0
  0
LINE
  8
0
 62
     0
 10
3.09507
 20
0.356912
 30
0.0
 11
2.85943
 21
0.366557
 31
0.0
  0
LINE
  8
0
 62
     0
 10
2.85943
 20
0.366557
 30
0.0
 11
2.62516
 21
0.39274
 31
0.0
  0
LINE
  8
0
 62
     0
 10
2.62516
 20
0.39274
 30
0.0
 11
2.39503
 21
0.439593
 31
0.0
  0
LINE
  8
0
 62
     0
 10
2.39503
 20
0.439593
 30
0.0
 11
2.16765
 21
0.502984
 31
0.0
  0
LINE
  8
0
 62
     0
 10
2.16765
 20
0.502984
 30
0.0
 11
1.94717
 21
0.585668
 31
0.0
  0
LINE
  8
0
 62
     0
 10
1.94717
 20
0.585668
 30
0.0
 11
1.73357
 21
0.683507
 31
0.0
  0
LINE
  8
0
 62
     0
 10
1.73357
 20
0.683507
 30
0.0
 11
1.52687
 21
0.799264
 31
0.0
  0
LINE
  8
0
 62
     0
 10
1.52687
 20
0.799264
 30
0.0
 11
1.33119
 21
0.928797
 31
0.0
  0
LINE
  8
0
 62
     0
 10
1.33119
 20
0.928797
 30
0.0
 11
1.14653
 21
1.07487
 31
0.0
  0
LINE
  8
0
 62
     0
 10
1.14653
 20
1.07487
 30
0.0
 11
0.972894
 21
1.23472
 31
0.0
  0
LINE
  8
0
 62
     0
 10
0.972894
 20
1.23472
 30
0.0
 11
0.813043
 21
1.40836
 31
0.0
  0
LINE
  8
0
 62
     0
 10
0.813043
 20
1.40836
 30
0.0
 11
0.666972
 21
1.59301
 31
0.0
  0
LINE
  8
0
 62
     0
 10
0.666972
 20
1.59301
 30
0.0
 11
0.537436
 21
1.78869
 31
0.0
  0
LINE
  8
0
 62
     0
 10
0.537436
 20
1.78869
 30
0.0
 11
0.421679
 21
1.9954
 31
0.0
  0
LINE
  8
0
 62
     0
 10
0.421679
 20
1.9954
 30
0.0
 11
0.323839
 21
2.20762
 31
0.0
  0
LINE
  8
0
 62
     0
 10
0.323839
 20
2.20762
 30
0.0
 11
0.241157
 21
2.42948
 31
0.0
  0
LINE
  8
0
 62
     0
 10
0.241157
 20
2.42948
 30
0.0
 11
0.177767
 21
2.65686
 31
0.0
  0
LINE
  8
0
 62
     0
 10
0.177767
 20
2.65686
 30
0.0
 11
0.130914
 21
2.88699
 31
0.0
  0
LINE
  8
0
 62
     0
 10
0.130914
 20
2.88699
 30
0.0
 11
0.104731
 21
3.12126
 31
0.0
  0
LINE
  8
0
 62
     0
 10
0.104731
 20
3.12126
 30
0.0
 11
0.0950846
 21
3.3569
 31
0.0
  0
LINE
  8
0
 62
     0
 10
0.0950846
 20
3.3569
 30
0.0
 11
0.0950846
 21
130.608
 31
0.0
  0
LINE
  8
0
 62
     0
 10
0.0950846
 20
130.608
 30
0.0
 11
0.104731
 21
130.844
 31
0.0
  0
LINE
  8
0
 62
     0
 10
0.104731
 20
130.844
 30
0.0
 11
0.130914
 21
131.078
 31
0.0
  0
LINE
  8
0
 62
     0
 10
0.130914
 20
131.078
 30
0.0
 11
0.177767
 21
131.308
 31
0.0
  0
LINE
  8
0
 62
     0
 10
0.177767
 20
131.308
 30
0.0
 11
0.241157
 21
131.535
 31
0.0
  0
LINE
  8
0
 62
     0
 10
0.241157
 20
131.535
 30
0.0
 11
0.323839
 21
131.755
 31
0.0
  0
LINE
  8
0
 62
     0
 10
0.323839
 20
131.755
 30
0.0
 11
0.421679
 21
131.969
 31
0.0
  0
LINE
  8
0
 62
     0
 10
0.421679
 20
131.969
 30
0.0
 11
0.537436
 21
132.176
 31
0.0
  0
LINE
  8
0
 62
     0
 10
0.537436
 20
132.176
 30
0.0
 11
0.666972
 21
132.372
 31
0.0
  0
LINE
  8
0
 62
     0
 10
0.666972
 20
132.372
 30
0.0
 11
0.813043
 21
132.556
 31
0.0
  0
LINE
  8
0
 62
     0
 10
0.813043
 20
132.556
 30
0.0
 11
0.972894
 21
132.73
 31
0.0
  0
LINE
  8
0
 62
     0
 10
0.972894
 20
132.73
 30
0.0
 11
1.14653
 21
132.89
 31
0.0
  0
LINE
  8
0
 62
     0
 10
1.14653
 20
132.89
 30
0.0
 11
1.33119
 21
133.036
 31
0.0
  0
LINE
  8
0
 62
     0
 10
1.33119
 20
133.036
 30
0.0
 11
1.52687
 21
133.165
 31
0.0
  0
LINE
  8
0
 62
     0
 10
1.52687
 20
133.165
 30
0.0
 11
1.73357
 21
133.281
 31
0.0
  0
LINE
  8
0
 62
     0
 10
1.73357
 20
133.281
 30
0.0
 11
1.94717
 21
133.379
 31
0.0
  0
LINE
  8
0
 62
     0
 10
1.94717
 20
133.379
 30
0.0
 11
2.16765
 21
133.461
 31
0.0
  0
LINE
  8
0
 62
     0
 10
2.16765
 20
133.461
 30
0.0
 11
2.39503
 21
133.525
 31
0.0
  0
LINE
  8
0
 62
     0
 10
2.39503
 20
133.525
 30
0.0
 11
2.62516
 21
133.572
 31
0.0
  0
LINE
  8
0
 62
     0
 10
2.62516
 20
133.572
 30
0.0
 11
2.85943
 21
133.598
 31
0.0
  0
LINE
  8
0
 62
     0
 10
2.85943
 20
133.598
 30
0.0
 11
3.09507
 21
133.608
 31
0.0
  0
LINE
  8
0
 62
     0
 10
3.09507
 20
133.608
 30
0.0
 11
327.422
 21
133.608
 31
0.0
  0
LINE
  8
0
 62
     0
 10
3.63114
 20
5.78362
 30
0.0
 11
3.21359
 21
5.57004
 31
0.0
  0
LINE
  8
0
 62
     0
 10
3.21359
 20
5.57004
 30
0.0
 11
2.88148
 21
5.23794
 31
0.0
  0
LINE
  8
0
 62
     0
 10
2.88148
 20
5.23794
 30
0.0
 11
2.66788
 21
4.82039
 31
0.0
  0
LINE
  8
0
 62
     0
 10
2.66788
 20
4.82039
 30
0.0
 11
2.59485
 21
4.35599
 31
0.0
  0
LINE
  8
0
 62
     0
 10
2.59485
 20
4.35599
 30
0.0
 11
2.66788
 21
3.89297
 31
0.0
  0
LINE
  8
0
 62
     0
 10
2.66788
 20
3.89297
 30
0.0
 11
2.88148
 21
3.47541
 31
0.0
  0
LINE
  8
0
 62
     0
 10
2.88148
 20
3.47541
 30
0.0
 11
3.21359
 21
3.14331
 31
0.0
  0
LINE
  8
0
 62
     0
 10
3.21359
 20
3.14331
 30
0.0
 11
3.63114
 21
2.92971
 31
0.0
  0
LINE
  8
0
 62
     0
 10
3.63114
 20
2.92971
 30
0.0
 11
4.09554
 21
2.85667
 31
0.0
  0
LINE
  8
0
 62
     0
 10
4.09554
 20
2.85667
 30
0.0
 11
4.55856
 21
2.92971
 31
0.0
  0
LINE
  8
0
 62
     0
 10
4.55856
 20
2.92971
 30
0.0
 11
4.97611
 21
3.14331
 31
0.0
  0
LINE
  8
0
 62
     0
 10
4.97611
 20
3.14331
 30
0.0
 11
5.30821
 21
3.47541
 31
0.0
  0
LINE
  8
0
 62
     0
 10
5.30821
 20
3.47541
 30
0.0
 11
5.52178
 21
3.89297
 31
0.0
  0
LINE
  8
0
 62
     0
 10
5.52178
 20
3.89297
 30
0.0
 11
5.59484
 21
4.35599
 31
0.0
  0
LINE
  8
0
 62
     0
 10
5.59484
 20
4.35599
 30
0.0
 11
5.52178
 21
4.82039
 31
0.0
  0
LINE
  8
0
 62
     0
 10
5.52178
 20
4.82039
 30
0.0
 11
5.30821
 21
5.23794
 31
0.0
  0
LINE
  8
0
 62
     0
 10
5.30821
 20
5.23794
 30
0.0
 11
4.97611
 21
5.57004
 31
0.0
  0
LINE
  8
0
 62
     0
 10
4.97611
 20
5.57004
 30
0.0
 11
4.55856
 21
5.78362
 31
0.0
  0
LINE
  8
0
 62
     0
 10
4.55856
 20
5.78362
 30
0.0
 11
4.09554
 21
5.85668
 31
0.0
  0
LINE
  8
0
 62
     0
 10
4.09554
 20
5.85668
 30
0.0
 11
3.63114
 21
5.78362
 31
0.0
  0
LINE
  8
0
 62
     0
 10
84.2119
 20
5.78362
 30
0.0
 11
83.7942
 21
5.57004
 31
0.0
  0
LINE
  8
0
 62
     0
 10
83.7942
 20
5.57004
 30
0.0
 11
83.4623
 21
5.23794
 31
0.0
  0
LINE
  8
0
 62
     0
 10
83.4623
 20
5.23794
 30
0.0
 11
83.2499
 21
4.82039
 31
0.0
  0
LINE
  8
0
 62
     0
 10
83.2499
 20
4.82039
 30
0.0
 11
83.1769
 21
4.35599
 31
0.0
  0
LINE
  8
0
 62
     0
 10
83.1769
 20
4.35599
 30
0.0
 11
83.2499
 21
3.89297
 31
0.0
  0
LINE
  8
0
 62
     0
 10
83.2499
 20
3.89297
 30
0.0
 11
83.4623
 21
3.47541
 31
0.0
  0
LINE
  8
0
 62
     0
 10
83.4623
 20
3.47541
 30
0.0
 11
83.7942
 21
3.14331
 31
0.0
  0
LINE
  8
0
 62
     0
 10
83.7942
 20
3.14331
 30
0.0
 11
84.2119
 21
2.92971
 31
0.0
  0
LINE
  8
0
 62
     0
 10
84.2119
 20
2.92971
 30
0.0
 11
84.6762
 21
2.85667
 31
0.0
  0
LINE
  8
0
 62
     0
 10
84.6762
 20
2.85667
 30
0.0
 11
85.1408
 21
2.92971
 31
0.0
  0
LINE
  8
0
 62
     0
 10
85.1408
 20
2.92971
 30
0.0
 11
85.5581
 21
3.14331
 31
0.0
  0
LINE
  8
0
 62
     0
 10
85.5581
 20
3.14331
 30
0.0
 11
85.8905
 21
3.47541
 31
0.0
  0
LINE
  8
0
 62
     0
 10
85.8905
 20
3.47541
 30
0.0
 11
86.1039
 21
3.89297
 31
0.0
  0
LINE
  8
0
 62
     0
 10
86.1039
 20
3.89297
 30
0.0
 11
86.1769
 21
4.35599
 31
0.0
  0
LINE
  8
0
 62
     0
 10
86.1769
 20
4.35599
 30
0.0
 11
86.1039
 21
4.82039
 31
0.0
  0
LINE
  8
0
 62
     0
 10
86.1039
 20
4.82039
 30
0.0
 11
85.8905
 21
5.23794
 31
0.0
  0
LINE
  8
0
 62
     0
 10
85.8905
 20
5.23794
 30
0.0
 11
85.5581
 21
5.57004
 31
0.0
  0
LINE
  8
0
 62
     0
 10
85.5581
 20
5.57004
 30
0.0
 11
85.1408
 21
5.78362
 31
0.0
  0
LINE
  8
0
 62
     0
 10
85.1408
 20
5.78362
 30
0.0
 11
84.6762
 21
5.85668
 31
0.0
  0
LINE
  8
0
 62
     0
 10
84.6762
 20
5.85668
 30
0.0
 11
84.2119
 21
5.78362
 31
0.0
  0
LINE
  8
0
 62
     0
 10
164.794
 20
5.78362
 30
0.0
 11
164.376
 21
5.57004
 31
0.0
  0
LINE
  8
0
 62
     0
 10
164.376
 20
5.57004
 30
0.0
 11
164.044
 21
5.23794
 31
0.0
  0
LINE
  8
0
 62
     0
 10
164.044
 20
5.23794
 30
0.0
 11
163.831
 21
4.82039
 31
0.0
  0
LINE
  8
0
 62
     0
 10
163.831
 20
4.82039
 30
0.0
 11
163.759
 21
4.35599
 31
0.0
  0
LINE
  8
0
 62
     0
 10
163.759
 20
4.35599
 30
0.0
 11
163.831
 21
3.89297
 31
0.0
  0
LINE
  8
0
 62
     0
 10
163.831
 20
3.89297
 30
0.0
 11
164.044
 21
3.47541
 31
0.0
  0
LINE
  8
0
 62
     0
 10
164.044
 20
3.47541
 30
0.0
 11
164.376
 21
3.14331
 31
0.0
  0
LINE
  8
0
 62
     0
 10
164.376
 20
3.14331
 30
0.0
 11
164.794
 21
2.92971
 31
0.0
  0
LINE
  8
0
 62
     0
 10
164.794
 20
2.92971
 30
0.0
 11
165.258
 21
2.85667
 31
0.0
  0
LINE
  8
0
 62
     0
 10
165.258
 20
2.85667
 30
0.0
 11
165.722
 21
2.92971
 31
0.0
  0
LINE
  8
0
 62
     0
 10
165.722
 20
2.92971
 30
0.0
 11
166.139
 21
3.14331
 31
0.0
  0
LINE
  8
0
 62
     0
 10
166.139
 20
3.14331
 30
0.0
 11
166.471
 21
3.47541
 31
0.0
  0
LINE
  8
0
 62
     0
 10
166.471
 20
3.47541
 30
0.0
 11
166.685
 21
3.89297
 31
0.0
  0
LINE
  8
0
 62
     0
 10
166.685
 20
3.89297
 30
0.0
 11
166.759
 21
4.35599
 31
0.0
  0
LINE
  8
0
 62
     0
 10
166.759
 20
4.35599
 30
0.0
 11
166.685
 21
4.82039
 31
0.0
  0
LINE
  8
0
 62
     0
 10
166.685
 20
4.82039
 30
0.0
 11
166.471
 21
5.23794
 31
0.0
  0
LINE
  8
0
 62
     0
 10
166.471
 20
5.23794
 30
0.0
 11
166.139
 21
5.57004
 31
0.0
  0
LINE
  8
0
 62
     0
 10
166.139
 20
5.57004
 30
0.0
 11
165.722
 21
5.78362
 31
0.0
  0
LINE
  8
0
 62
     0
 10
165.722
 20
5.78362
 30
0.0
 11
165.258
 21
5.85668
 31
0.0
  0
LINE
  8
0
 62
     0
 10
165.258
 20
5.85668
 30
0.0
 11
164.794
 21
5.78362
 31
0.0
  0
LINE
  8
0
 62
     0
 10
245.375
 20
5.78362
 30
0.0
 11
244.957
 21
5.57004
 31
0.0
  0
LINE
  8
0
 62
     0
 10
244.957
 20
5.57004
 30
0.0
 11
244.625
 21
5.23794
 31
0.0
  0
LINE
  8
0
 62
     0
 10
244.625
 20
5.23794
 30
0.0
 11
244.413
 21
4.82039
 31
0.0
  0
LINE
  8
0
 62
     0
 10
244.413
 20
4.82039
 30
0.0
 11
244.34
 21
4.35599
 31
0.0
  0
LINE
  8
0
 62
     0
 10
244.34
 20
4.35599
 30
0.0
 11
244.413
 21
3.89297
 31
0.0
  0
LINE
  8
0
 62
     0
 10
244.413
 20
3.89297
 30
0.0
 11
244.625
 21
3.47541
 31
0.0
  0
LINE
  8
0
 62
     0
 10
244.625
 20
3.47541
 30
0.0
 11
244.957
 21
3.14331
 31
0.0
  0
LINE
  8
0
 62
     0
 10
244.957
 20
3.14331
 30
0.0
 11
245.375
 21
2.92971
 31
0.0
  0
LINE
  8
0
 62
     0
 10
245.375
 20
2.92971
 30
0.0
 11
245.839
 21
2.85667
 31
0.0
  0
LINE
  8
0
 62
     0
 10
245.839
 20
2.85667
 30
0.0
 11
246.304
 21
2.92971
 31
0.0
  0
LINE
  8
0
 62
     0
 10
246.304
 20
2.92971
 30
0.0
 11
246.721
 21
3.14331
 31
0.0
  0
LINE
  8
0
 62
     0
 10
246.721
 20
3.14331
 30
0.0
 11
247.053
 21
3.47541
 31
0.0
  0
LINE
  8
0
 62
     0
 10
247.053
 20
3.47541
 30
0.0
 11
247.267
 21
3.89297
 31
0.0
  0
LINE
  8
0
 62
     0
 10
247.267
 20
3.89297
 30
0.0
 11
247.34
 21
4.35599
 31
0.0
  0
LINE
  8
0
 62
     0
 10
247.34
 20
4.35599
 30
0.0
 11
247.267
 21
4.82039
 31
0.0
  0
LINE
  8
0
 62
     0
 10
247.267
 20
4.82039
 30
0.0
 11
247.053
 21
5.23794
 31
0.0
  0
LINE
  8
0
 62
     0
 10
247.053
 20
5.23794
 30
0.0
 11
246.721
 21
5.57004
 31
0.0
  0
LINE
  8
0
 62
     0
 10
246.721
 20
5.57004
 30
0.0
 11
246.304
 21
5.78362
 31
0.0
  0
LINE
  8
0
 62
     0
 10
246.304
 20
5.78362
 30
0.0
 11
245.839
 21
5.85668
 31
0.0
  0
LINE
  8
0
 62
     0
 10
245.839
 20
5.85668
 30
0.0
 11
245.375
 21
5.78362
 31
0.0
  0
LINE
  8
0
 62
     0
 10
325.957
 20
5.78362
 30
0.0
 11
325.539
 21
5.57004
 31
0.0
  0
LINE
  8
0
 62
     0
 10
325.539
 20
5.57004
 30
0.0
 11
325.207
 21
5.23794
 31
0.0
  0
LINE
  8
0
 62
     0
 10
325.207
 20
5.23794
 30
0.0
 11
324.995
 21
4.82039
 31
0.0
  0
LINE
  8
0
 62
     0
 10
324.995
 20
4.82039
 30
0.0
 11
324.922
 21
4.35599
 31
0.0
  0
LINE
  8
0
 62
     0
 10
324.922
 20
4.35599
 30
0.0
 11
324.995
 21
3.89297
 31
0.0
  0
LINE
  8
0
 62
     0
 10
324.995
 20
3.89297
 30
0.0
 11
325.207
 21
3.47541
 31
0.0
  0
LINE
  8
0
 62
     0
 10
325.207
 20
3.47541
 30
0.0
 11
325.539
 21
3.14331
 31
0.0
  0
LINE
  8
0
 62
     0
 10
325.539
 20
3.14331
 30
0.0
 11
325.957
 21
2.92971
 31
0.0
  0
LINE
  8
0
 62
     0
 10
325.957
 20
2.92971
 30
0.0
 11
326.421
 21
2.85667
 31
0.0
  0
LINE
  8
0
 62
     0
 10
326.421
 20
2.85667
 30
0.0
 11
326.885
 21
2.92971
 31
0.0
  0
LINE
  8
0
 62
     0
 10
326.885
 20
2.92971
 30
0.0
 11
327.302
 21
3.14331
 31
0.0
  0
LINE
  8
0
 62
     0
 10
327.302
 20
3.14331
 30
0.0
 11
327.634
 21
3.47541
 31
0.0
  0
LINE
  8
0
 62
     0
 10
327.634
 20
3.47541
 30
0.0
 11
327.848
 21
3.89297
 31
0.0
  0
LINE
  8
0
 62
     0
 10
327.848
 20
3.89297
 30
0.0
 11
327.922
 21
4.35599
 31
0.0
  0
LINE
  8
0
 62
     0
 10
327.922
 20
4.35599
 30
0.0
 11
327.848
 21
4.82039
 31
0.0
  0
LINE
  8
0
 62
     0
 10
327.848
 20
4.82039
 30
0.0
 11
327.634
 21
5.23794
 31
0.0
  0
LINE
  8
0
 62
     0
 10
327.634
 20
5.23794
 30
0.0
 11
327.302
 21
5.57004
 31
0.0
  0
LINE
  8
0
 62
     0
 10
327.302
 20
5.57004
 30
0.0
 11
326.885
 21
5.78362
 31
0.0
  0
LINE
  8
0
 62
     0
 10
326.885
 20
5.78362
 30
0.0
 11
326.421
 21
5.85668
 31
0.0
  0
LINE
  8
0
 62
     0
 10
326.421
 20
5.85668
 30
0.0
 11
325.957
 21
5.78362
 31
0.0
  0
LINE
  8
0
 62
     0
 10
8.09597
 20
125.607
 30
0.0
 11
322.421
 21
125.607
 31
0.0
  0
LINE
  8
0
 62
     0
 10
322.421
 20
125.607
 30
0.0
 11
322.421
 21
8.35642
 31
0.0
  0
LINE
  8
0
 62
     0
 10
322.421
 20
8.35642
 30
0.0
 11
8.09597
 21
8.35642
 31
0.0
  0
LINE
  8
0
 62
     0
 10
8.09597
 20
8.35642
 30
0.0
 11
8.09597
 21
125.607
 31
0.0
  0
LINE
  8
0
 62
     0
 10
3.63114
 20
68.41
 30
0.0
 11
3.21359
 21
68.1965
 31
0.0
  0
LINE
  8
0
 62
     0
 10
3.21359
 20
68.1965
 30
0.0
 11
2.88148
 21
67.8642
 31
0.0
  0
LINE
  8
0
 62
     0
 10
2.88148
 20
67.8642
 30
0.0
 11
2.66788
 21
67.4469
 31
0.0
  0
LINE
  8
0
 62
     0
 10
2.66788
 20
67.4469
 30
0.0
 11
2.59485
 21
66.9823
 31
0.0
  0
LINE
  8
0
 62
     0
 10
2.59485
 20
66.9823
 30
0.0
 11
2.66788
 21
66.518
 31
0.0
  0
LINE
  8
0
 62
     0
 10
2.66788
 20
66.518
 30
0.0
 11
2.88148
 21
66.1003
 31
0.0
  0
LINE
  8
0
 62
     0
 10
2.88148
 20
66.1003
 30
0.0
 11
3.21359
 21
65.7684
 31
0.0
  0
LINE
  8
0
 62
     0
 10
3.21359
 20
65.7684
 30
0.0
 11
3.63114
 21
65.5546
 31
0.0
  0
LINE
  8
0
 62
     0
 10
3.63114
 20
65.5546
 30
0.0
 11
4.09554
 21
65.4816
 31
0.0
  0
LINE
  8
0
 62
     0
 10
4.09554
 20
65.4816
 30
0.0
 11
4.55856
 21
65.5546
 31
0.0
  0
LINE
  8
0
 62
     0
 10
4.55856
 20
65.5546
 30
0.0
 11
4.97611
 21
65.7684
 31
0.0
  0
LINE
  8
0
 62
     0
 10
4.97611
 20
65.7684
 30
0.0
 11
5.30821
 21
66.1003
 31
0.0
  0
LINE
  8
0
 62
     0
 10
5.30821
 20
66.1003
 30
0.0
 11
5.52178
 21
66.518
 31
0.0
  0
LINE
  8
0
 62
     0
 10
5.52178
 20
66.518
 30
0.0
 11
5.59484
 21
66.9823
 31
0.0
  0
LINE
  8
0
 62
     0
 10
5.59484
 20
66.9823
 30
0.0
 11
5.52178
 21
67.4469
 31
0.0
  0
LINE
  8
0
 62
     0
 10
5.52178
 20
67.4469
 30
0.0
 11
5.30821
 21
67.8642
 31
0.0
  0
LINE
  8
0
 62
     0
 10
5.30821
 20
67.8642
 30
0.0
 11
4.97611
 21
68.1965
 31
0.0
  0
LINE
  8
0
 62
     0
 10
4.97611
 20
68.1965
 30
0.0
 11
4.55856
 21
68.41
 31
0.0
  0
LINE
  8
0
 62
     0
 10
4.55856
 20
68.41
 30
0.0
 11
4.09554
 21
68.4816
 31
0.0
  0
LINE
  8
0
 62
     0
 10
4.09554
 20
68.4816
 30
0.0
 11
3.63114
 21
68.41
 31
0.0
  0
LINE
  8
0
 62
     0
 10
325.957
 20
68.41
 30
0.0
 11
325.539
 21
68.1965
 31
0.0
  0
LINE
  8
0
 62
     0
 10
325.539
 20
68.1965
 30
0.0
 11
325.207
 21
67.8642
 31
0.0
  0
LINE
  8
0
 62
     0
 10
325.207
 20
67.8642
 30
0.0
 11
324.995
 21
67.4469
 31
0.0
  0
LINE
  8
0
 62
     0
 10
324.995
 20
67.4469
 30
0.0
 11
324.922
 21
66.9823
 31
0.0
  0
LINE
  8
0
 62
     0
 10
324.922
 20
66.9823
 30
0.0
 11
324.995
 21
66.518
 31
0.0
  0
LINE
  8
0
 62
     0
 10
324.995
 20
66.518
 30
0.0
 11
325.207
 21
66.1003
 31
0.0
  0
LINE
  8
0
 62
     0
 10
325.207
 20
66.1003
 30
0.0
 11
325.539
 21
65.7684
 31
0.0
  0
LINE
  8
0
 62
     0
 10
325.539
 20
65.7684
 30
0.0
 11
325.957
 21
65.5546
 31
0.0
  0
LINE
  8
0
 62
     0
 10
325.957
 20
65.5546
 30
0.0
 11
326.421
 21
65.4816
 31
0.0
  0
LINE
  8
0
 62
     0
 10
326.421
 20
65.4816
 30
0.0
 11
326.885
 21
65.5546
 31
0.0
  0
LINE
  8
0
 62
     0
 10
326.885
 20
65.5546
 30
0.0
 11
327.302
 21
65.7684
 31
0.0
  0
LINE
  8
0
 62
     0
 10
327.302
 20
65.7684
 30
0.0
 11
327.634
 21
66.1003
 31
0.0
  0
LINE
  8
0
 62
     0
 10
327.634
 20
66.1003
 30
0.0
 11
327.848
 21
66.518
 31
0.0
  0
LINE
  8
0
 62
     0
 10
327.848
 20
66.518
 30
0.0
 11
327.922
 21
66.9823
 31
0.0
  0
LINE
  8
0
 62
     0
 10
327.922
 20
66.9823
 30
0.0
 11
327.848
 21
67.4469
 31
0.0
  0
LINE
  8
0
 62
     0
 10
327.848
 20
67.4469
 30
0.0
 11
327.634
 21
67.8642
 31
0.0
  0
LINE
  8
0
 62
     0
 10
327.634
 20
67.8642
 30
0.0
 11
327.302
 21
68.1965
 31
0.0
  0
LINE
  8
0
 62
     0
 10
327.302
 20
68.1965
 30
0.0
 11
326.885
 21
68.41
 31
0.0
  0
LINE
  8
0
 62
     0
 10
326.885
 20
68.41
 30
0.0
 11
326.421
 21
68.4816
 31
0.0
  0
LINE
  8
0
 62
     0
 10
326.421
 20
68.4816
 30
0.0
 11
325.957
 21
68.41
 31
0.0
  0
LINE
  8
0
 62
     0
 10
3.63114
 20
131.035
 30
0.0
 11
3.21359
 21
130.821
 31
0.0
  0
LINE
  8
0
 62
     0
 10
3.21359
 20
130.821
 30
0.0
 11
2.88148
 21
130.489
 31
0.0
  0
LINE
  8
0
 62
     0
 10
2.88148
 20
130.489
 30
0.0
 11
2.66788
 21
130.072
 31
0.0
  0
LINE
  8
0
 62
     0
 10
2.66788
 20
130.072
 30
0.0
 11
2.59485
 21
129.607
 31
0.0
  0
LINE
  8
0
 62
     0
 10
2.59485
 20
129.607
 30
0.0
 11
2.66788
 21
129.144
 31
0.0
  0
LINE
  8
0
 62
     0
 10
2.66788
 20
129.144
 30
0.0
 11
2.88148
 21
128.727
 31
0.0
  0
LINE
  8
0
 62
     0
 10
2.88148
 20
128.727
 30
0.0
 11
3.21359
 21
128.395
 31
0.0
  0
LINE
  8
0
 62
     0
 10
3.21359
 20
128.395
 30
0.0
 11
3.63114
 21
128.181
 31
0.0
  0
LINE
  8
0
 62
     0
 10
3.63114
 20
128.181
 30
0.0
 11
4.09554
 21
128.108
 31
0.0
  0
LINE
  8
0
 62
     0
 10
4.09554
 20
128.108
 30
0.0
 11
4.55856
 21
128.181
 31
0.0
  0
LINE
  8
0
 62
     0
 10
4.55856
 20
128.181
 30
0.0
 11
4.97611
 21
128.395
 31
0.0
  0
LINE
  8
0
 62
     0
 10
4.97611
 20
128.395
 30
0.0
 11
5.30821
 21
128.727
 31
0.0
  0
LINE
  8
0
 62
     0
 10
5.30821
 20
128.727
 30
0.0
 11
5.52178
 21
129.144
 31
0.0
  0
LINE
  8
0
 62
     0
 10
5.52178
 20
129.144
 30
0.0
 11
5.59484
 21
129.607
 31
0.0
  0
LINE
  8
0
 62
     0
 10
5.59484
 20
129.607
 30
0.0
 11
5.52178
 21
130.072
 31
0.0
  0
LINE
  8
0
 62
     0
 10
5.52178
 20
130.072
 30
0.0
 11
5.30821
 21
130.489
 31
0.0
  0
LINE
  8
0
 62
     0
 10
5.30821
 20
130.489
 30
0.0
 11
4.97611
 21
130.821
 31
0.0
  0
LINE
  8
0
 62
     0
 10
4.97611
 20
130.821
 30
0.0
 11
4.55856
 21
131.035
 31
0.0
  0
LINE
  8
0
 62
     0
 10
4.55856
 20
131.035
 30
0.0
 11
4.09554
 21
131.108
 31
0.0
  0
LINE
  8
0
 62
     0
 10
4.09554
 20
131.108
 30
0.0
 11
3.63114
 21
131.035
 31
0.0
  0
LINE
  8
0
 62
     0
 10
325.957
 20
131.035
 30
0.0
 11
325.539
 21
130.821
 31
0.0
  0
LINE
  8
0
 62
     0
 10
325.539
 20
130.821
 30
0.0
 11
325.207
 21
130.489
 31
0.0
  0
LINE
  8
0
 62
     0
 10
325.207
 20
130.489
 30
0.0
 11
324.995
 21
130.072
 31
0.0
  0
LINE
  8
0
 62
     0
 10
324.995
 20
130.072
 30
0.0
 11
324.922
 21
129.607
 31
0.0
  0
LINE
  8
0
 62
     0
 10
324.922
 20
129.607
 30
0.0
 11
324.995
 21
129.144
 31
0.0
  0
LINE
  8
0
 62
     0
 10
324.995
 20
129.144
 30
0.0
 11
325.207
 21
128.727
 31
0.0
  0
LINE
  8
0
 62
     0
 10
325.207
 20
128.727
 30
0.0
 11
325.539
 21
128.395
 31
0.0
  0
LINE
  8
0
 62
     0
 10
325.539
 20
128.395
 30
0.0
 11
325.957
 21
128.181
 31
0.0
  0
LINE
  8
0
 62
     0
 10
325.957
 20
128.181
 30
0.0
 11
326.421
 21
128.108
 31
0.0
  0
LINE
  8
0
 62
     0
 10
326.421
 20
128.108
 30
0.0
 11
326.885
 21
128.181
 31
0.0
  0
LINE
  8
0
 62
     0
 10
326.885
 20
128.181
 30
0.0
 11
327.302
 21
128.395
 31
0.0
  0
LINE
  8
0
 62
     0
 10
327.302
 20
128.395
 30
0.0
 11
327.634
 21
128.727
 31
0.0
  0
LINE
  8
0
 62
     0
 10
327.634
 20
128.727
 30
0.0
 11
327.848
 21
129.144
 31
0.0
  0
LINE
  8
0
 62
     0
 10
327.848
 20
129.144
 30
0.0
 11
327.922
 21
129.607
 31
0.0
  0
LINE
  8
0
 62
     0
 10
327.922
 20
129.607
 30
0.0
 11
327.848
 21
130.072
 31
0.0
  0
LINE
  8
0
 62
     0
 10
327.848
 20
130.072
 30
0.0
 11
327.634
 21
130.489
 31
0.0
  0
LINE
  8
0
 62
     0
 10
327.634
 20
130.489
 30
0.0
 11
327.302
 21
130.821
 31
0.0
  0
LINE
  8
0
 62
     0
 10
327.302
 20
130.821
 30
0.0
 11
326.885
 21
131.035
 31
0.0
  0
LINE
  8
0
 62
     0
 10
326.885
 20
131.035
 30
0.0
 11
326.421
 21
131.108
 31
0.0
  0
LINE
  8
0
 62
     0
 10
326.421
 20
131.108
 30
0.0
 11
325.957
 21
131.035
 31
0.0
  0
LINE
  8
0
 62
     0
 10
245.375
 20
131.035
 30
0.0
 11
244.957
 21
130.821
 31
0.0
  0
LINE
  8
0
 62
     0
 10
244.957
 20
130.821
 30
0.0
 11
244.625
 21
130.489
 31
0.0
  0
LINE
  8
0
 62
     0
 10
244.625
 20
130.489
 30
0.0
 11
244.413
 21
130.072
 31
0.0
  0
LINE
  8
0
 62
     0
 10
244.413
 20
130.072
 30
0.0
 11
244.34
 21
129.607
 31
0.0
  0
LINE
  8
0
 62
     0
 10
244.34
 20
129.607
 30
0.0
 11
244.413
 21
129.144
 31
0.0
  0
LINE
  8
0
 62
     0
 10
244.413
 20
129.144
 30
0.0
 11
244.625
 21
128.727
 31
0.0
  0
LINE
  8
0
 62
     0
 10
244.625
 20
128.727
 30
0.0
 11
244.957
 21
128.395
 31
0.0
  0
LINE
  8
0
 62
     0
 10
244.957
 20
128.395
 30
0.0
 11
245.375
 21
128.181
 31
0.0
  0
LINE
  8
0
 62
     0
 10
245.375
 20
128.181
 30
0.0
 11
245.839
 21
128.108
 31
0.0
  0
LINE
  8
0
 62
     0
 10
245.839
 20
128.108
 30
0.0
 11
246.304
 21
128.181
 31
0.0
  0
LINE
  8
0
 62
     0
 10
246.304
 20
128.181
 30
0.0
 11
246.721
 21
128.395
 31
0.0
  0
LINE
  8
0
 62
     0
 10
246.721
 20
128.395
 30
0.0
 11
247.053
 21
128.727
 31
0.0
  0
LINE
  8
0
 62
     0
 10
247.053
 20
128.727
 30
0.0
 11
247.267
 21
129.144
 31
0.0
  0
LINE
  8
0
 62
     0
 10
247.267
 20
129.144
 30
0.0
 11
247.34
 21
129.607
 31
0.0
  0
LINE
  8
0
 62
     0
 10
247.34
 20
129.607
 30
0.0
 11
247.267
 21
130.072
 31
0.0
  0
LINE
  8
0
 62
     0
 10
247.267
 20
130.072
 30
0.0
 11
247.053
 21
130.489
 31
0.0
  0
LINE
  8
0
 62
     0
 10
247.053
 20
130.489
 30
0.0
 11
246.721
 21
130.821
 31
0.0
  0
LINE
  8
0
 62
     0
 10
246.721
 20
130.821
 30
0.0
 11
246.304
 21
131.035
 31
0.0
  0
LINE
  8
0
 62
     0
 10
246.304
 20
131.035
 30
0.0
 11
245.839
 21
131.108
 31
0.0
  0
LINE
  8
0
 62
     0
 10
245.839
 20
131.108
 30
0.0
 11
245.375
 21
131.035
 31
0.0
  0
LINE
  8
0
 62
     0
 10
164.794
 20
131.035
 30
0.0
 11
164.376
 21
130.821
 31
0.0
  0
LINE
  8
0
 62
     0
 10
164.376
 20
130.821
 30
0.0
 11
164.044
 21
130.489
 31
0.0
  0
LINE
  8
0
 62
     0
 10
164.044
 20
130.489
 30
0.0
 11
163.831
 21
130.072
 31
0.0
  0
LINE
  8
0
 62
     0
 10
163.831
 20
130.072
 30
0.0
 11
163.759
 21
129.607
 31
0.0
  0
LINE
  8
0
 62
     0
 10
163.759
 20
129.607
 30
0.0
 11
163.831
 21
129.144
 31
0.0
  0
LINE
  8
0
 62
     0
 10
163.831
 20
129.144
 30
0.0
 11
164.044
 21
128.727
 31
0.0
  0
LINE
  8
0
 62
     0
 10
164.044
 20
128.727
 30
0.0
 11
164.376
 21
128.395
 31
0.0
  0
LINE
  8
0
 62
     0
 10
164.376
 20
128.395
 30
0.0
 11
164.794
 21
128.181
 31
0.0
  0
LINE
  8
0
 62
     0
 10
164.794
 20
128.181
 30
0.0
 11
165.258
 21
128.108
 31
0.0
  0
LINE
  8
0
 62
     0
 10
165.258
 20
128.108
 30
0.0
 11
165.722
 21
128.181
 31
0.0
  0
LINE
  8
0
 62
     0
 10
165.722
 20
128.181
 30
0.0
 11
166.139
 21
128.395
 31
0.0
  0
LINE
  8
0
 62
     0
 10
166.139
 20
128.395
 30
0.0
 11
166.471
 21
128.727
 31
0.0
  0
LINE
  8
0
 62
     0
 10
166.471
 20
128.727
 30
0.0
 11
166.685
 21
129.144
 31
0.0
  0
LINE
  8
0
 62
     0
 10
166.685
 20
129.144
 30
0.0
 11
166.759
 21
129.607
 31
0.0
  0
LINE
  8
0
 62
     0
 10
166.759
 20
129.607
 30
0.0
 11
166.685
 21
130.072
 31
0.0
  0
LINE
  8
0
 62
     0
 10
166.685
 20
130.072
 30
0.0
 11
166.471
 21
130.489
 31
0.0
  0
LINE
  8
0
 62
     0
 10
166.471
 20
130.489
 30
0.0
 11
166.139
 21
130.821
 31
0.0
  0
LINE
  8
0
 62
     0
 10
166.139
 20
130.821
 30
0.0
 11
165.722
 21
131.035
 31
0.0
  0
LINE
  8
0
 62
     0
 10
165.722
 20
131.035
 30
0.0
 11
165.258
 21
131.108
 31
0.0
  0
LINE
  8
0
 62
     0
 10
165.258
 20
131.108
 30
0.0
 11
164.794
 21
131.035
 31
0.0
  0
LINE
  8
0
 62
     0
 10
84.2119
 20
131.035
 30
0.0
 11
83.7942
 21
130.821
 31
0.0
  0
LINE
  8
0
 62
     0
 10
83.7942
 20
130.821
 30
0.0
 11
83.4623
 21
130.489
 31
0.0
  0
LINE
  8
0
 62
     0
 10
83.4623
 20
130.489
 30
0.0
 11
83.2499
 21
130.072
 31
0.0
  0
LINE
  8
0
 62
     0
 10
83.2499
 20
130.072
 30
0.0
 11
83.1769
 21
129.607
 31
0.0
  0
LINE
  8
0
 62
     0
 10
83.1769
 20
129.607
 30
0.0
 11
83.2499
 21
129.144
 31
0.0
  0
LINE
  8
0
 62
     0
 10
83.2499
 20
129.144
 30
0.0
 11
83.4623
 21
128.727
 31
0.0
  0
LINE
  8
0
 62
     0
 10
83.4623
 20
128.727
 30
0.0
 11
83.7942
 21
128.395
 31
0.0
  0
LINE
  8
0
 62
     0
 10
83.7942
 20
128.395
 30
0.0
 11
84.2119
 21
128.181
 31
0.0
  0
LINE
  8
0
 62
     0
 10
84.2119
 20
128.181
 30
0.0
 11
84.6762
 21
128.108
 31
0.0
  0
LINE
  8
0
 62
     0
 10
84.6762
 20
128.108
 30
0.0
 11
85.1408
 21
128.181
 31
0.0
  0
LINE
  8
0
 62
     0
 10
85.1408
 20
128.181
 30
0.0
 11
85.5581
 21
128.395
 31
0.0
  0
LINE
  8
0
 62
     0
 10
85.5581
 20
128.395
 30
0.0
 11
85.8905
 21
128.727
 31
0.0
  0
LINE
  8
0
 62
     0
 10
85.8905
 20
128.727
 30
0.0
 11
86.1039
 21
129.144
 31
0.0
  0
LINE
  8
0
 62
     0
 10
86.1039
 20
129.144
 30
0.0
 11
86.1769
 21
129.607
 31
0.0
  0
LINE
  8
0
 62
     0
 10
86.1769
 20
129.607
 30
0.0
 11
86.1039
 21
130.072
 31
0.0
  0
LINE
  8
0
 62
     0
 10
86.1039
 20
130.072
 30
0.0
 11
85.8905
 21
130.489
 31
0.0
  0
LINE
  8
0
 62
     0
 10
85.8905
 20
130.489
 30
0.0
 11
85.5581
 21
130.821
 31
0.0
  0
LINE
  8
0
 62
     0
 10
85.5581
 20
130.821
 30
0.0
 11
85.1408
 21
131.035
 31
0.0
  0
LINE
  8
0
 62
     0
 10
85.1408
 20
131.035
 30
0.0
 11
84.6762
 21
131.108
 31
0.0
  0
LINE
  8
0
 62
     0
 10
84.6762
 20
131.108
 30
0.0
 11
84.2119
 21
131.035
 31
0.0
  0
ENDSEC
  0
EOF
