  0
SECTION
  2
HEADER
  9
$ACADVER
  1
AC1009
  9
$EXTMIN
 10
0.0
 20
0.0
 30
0.0
  9
$EXTMAX
 10
1000.0
 20
1000.0
 30
0.0
  9
$FILLMODE
 70
 0
  9
$SPLFRAME
 70
 1
  0
ENDSEC
  0
SECTION
  2
TABLES
  0
TABLE
  2
LAYER
 70
1
  0
LAYER
  2
0
 70
     0
 62
     7
  6
CONTINUOUS
  0
ENDTAB
  0
ENDSEC
  0
SECTION
  2
ENTITIES
  0
LINE
  8
0
 62
     0
 10
298.847
 20
133.608
 30
0.0
 11
299.081
 21
133.598
 31
0.0
  0
LINE
  8
0
 62
     0
 10
299.081
 20
133.598
 30
0.0
 11
299.315
 21
133.572
 31
0.0
  0
LINE
  8
0
 62
     0
 10
299.315
 20
133.572
 30
0.0
 11
299.547
 21
133.525
 31
0.0
  0
LINE
  8
0
 62
     0
 10
299.547
 20
133.525
 30
0.0
 11
299.773
 21
133.461
 31
0.0
  0
LINE
  8
0
 62
     0
 10
299.773
 20
133.461
 30
0.0
 11
299.995
 21
133.379
 31
0.0
  0
LINE
  8
0
 62
     0
 10
299.995
 20
133.379
 30
0.0
 11
300.207
 21
133.281
 31
0.0
  0
LINE
  8
0
 62
     0
 10
300.207
 20
133.281
 30
0.0
 11
300.414
 21
133.165
 31
0.0
  0
LINE
  8
0
 62
     0
 10
300.414
 20
133.165
 30
0.0
 11
300.609
 21
133.036
 31
0.0
  0
LINE
  8
0
 62
     0
 10
300.609
 20
133.036
 30
0.0
 11
300.794
 21
132.89
 31
0.0
  0
LINE
  8
0
 62
     0
 10
300.794
 20
132.89
 30
0.0
 11
300.968
 21
132.73
 31
0.0
  0
LINE
  8
0
 62
     0
 10
300.968
 20
132.73
 30
0.0
 11
301.128
 21
132.556
 31
0.0
  0
LINE
  8
0
 62
     0
 10
301.128
 20
132.556
 30
0.0
 11
301.274
 21
132.372
 31
0.0
  0
LINE
  8
0
 62
     0
 10
301.274
 20
132.372
 30
0.0
 11
301.403
 21
132.176
 31
0.0
  0
LINE
  8
0
 62
     0
 10
301.403
 20
132.176
 30
0.0
 11
301.519
 21
131.969
 31
0.0
  0
LINE
  8
0
 62
     0
 10
301.519
 20
131.969
 30
0.0
 11
301.618
 21
131.755
 31
0.0
  0
LINE
  8
0
 62
     0
 10
301.618
 20
131.755
 30
0.0
 11
301.699
 21
131.535
 31
0.0
  0
LINE
  8
0
 62
     0
 10
301.699
 20
131.535
 30
0.0
 11
301.763
 21
131.308
 31
0.0
  0
LINE
  8
0
 62
     0
 10
301.763
 20
131.308
 30
0.0
 11
301.81
 21
131.078
 31
0.0
  0
LINE
  8
0
 62
     0
 10
301.81
 20
131.078
 30
0.0
 11
301.836
 21
130.844
 31
0.0
  0
LINE
  8
0
 62
     0
 10
301.836
 20
130.844
 30
0.0
 11
301.847
 21
130.608
 31
0.0
  0
LINE
  8
0
 62
     0
 10
301.847
 20
130.608
 30
0.0
 11
301.847
 21
3.3569
 31
0.0
  0
LINE
  8
0
 62
     0
 10
301.847
 20
3.3569
 30
0.0
 11
301.836
 21
3.12126
 31
0.0
  0
LINE
  8
0
 62
     0
 10
301.836
 20
3.12126
 30
0.0
 11
301.81
 21
2.88699
 31
0.0
  0
LINE
  8
0
 62
     0
 10
301.81
 20
2.88699
 30
0.0
 11
301.763
 21
2.65686
 31
0.0
  0
LINE
  8
0
 62
     0
 10
301.763
 20
2.65686
 30
0.0
 11
301.699
 21
2.42948
 31
0.0
  0
LINE
  8
0
 62
     0
 10
301.699
 20
2.42948
 30
0.0
 11
301.618
 21
2.20762
 31
0.0
  0
LINE
  8
0
 62
     0
 10
301.618
 20
2.20762
 30
0.0
 11
301.519
 21
1.9954
 31
0.0
  0
LINE
  8
0
 62
     0
 10
301.519
 20
1.9954
 30
0.0
 11
301.403
 21
1.78869
 31
0.0
  0
LINE
  8
0
 62
     0
 10
301.403
 20
1.78869
 30
0.0
 11
301.274
 21
1.59301
 31
0.0
  0
LINE
  8
0
 62
     0
 10
301.274
 20
1.59301
 30
0.0
 11
301.128
 21
1.40836
 31
0.0
  0
LINE
  8
0
 62
     0
 10
301.128
 20
1.40836
 30
0.0
 11
300.968
 21
1.23472
 31
0.0
  0
LINE
  8
0
 62
     0
 10
300.968
 20
1.23472
 30
0.0
 11
300.794
 21
1.07487
 31
0.0
  0
LINE
  8
0
 62
     0
 10
300.794
 20
1.07487
 30
0.0
 11
300.609
 21
0.928797
 31
0.0
  0
LINE
  8
0
 62
     0
 10
300.609
 20
0.928797
 30
0.0
 11
300.414
 21
0.799264
 31
0.0
  0
LINE
  8
0
 62
     0
 10
300.414
 20
0.799264
 30
0.0
 11
300.207
 21
0.683507
 31
0.0
  0
LINE
  8
0
 62
     0
 10
300.207
 20
0.683507
 30
0.0
 11
299.995
 21
0.585668
 31
0.0
  0
LINE
  8
0
 62
     0
 10
299.995
 20
0.585668
 30
0.0
 11
299.773
 21
0.502984
 31
0.0
  0
LINE
  8
0
 62
     0
 10
299.773
 20
0.502984
 30
0.0
 11
299.547
 21
0.439593
 31
0.0
  0
LINE
  8
0
 62
     0
 10
299.547
 20
0.439593
 30
0.0
 11
299.315
 21
0.39274
 31
0.0
  0
LINE
  8
0
 62
     0
 10
299.315
 20
0.39274
 30
0.0
 11
299.081
 21
0.366557
 31
0.0
  0
LINE
  8
0
 62
     0
 10
299.081
 20
0.366557
 30
0.0
 11
298.847
 21
0.356912
 31
0.0
  0
LINE
  8
0
 62
     0
 10
298.847
 20
0.356912
 30
0.0
 11
3.09507
 21
0.356912
 31
0.0
  0
LINE
  8
0
 62
     0
 10
3.09507
 20
0.356912
 30
0.0
 11
2.85943
 21
0.366557
 31
0.0
  0
LINE
  8
0
 62
     0
 10
2.85943
 20
0.366557
 30
0.0
 11
2.62516
 21
0.39274
 31
0.0
  0
LINE
  8
0
 62
     0
 10
2.62516
 20
0.39274
 30
0.0
 11
2.39503
 21
0.439593
 31
0.0
  0
LINE
  8
0
 62
     0
 10
2.39503
 20
0.439593
 30
0.0
 11
2.16765
 21
0.502984
 31
0.0
  0
LINE
  8
0
 62
     0
 10
2.16765
 20
0.502984
 30
0.0
 11
1.94717
 21
0.585668
 31
0.0
  0
LINE
  8
0
 62
     0
 10
1.94717
 20
0.585668
 30
0.0
 11
1.73357
 21
0.683507
 31
0.0
  0
LINE
  8
0
 62
     0
 10
1.73357
 20
0.683507
 30
0.0
 11
1.52687
 21
0.799264
 31
0.0
  0
LINE
  8
0
 62
     0
 10
1.52687
 20
0.799264
 30
0.0
 11
1.33119
 21
0.928797
 31
0.0
  0
LINE
  8
0
 62
     0
 10
1.33119
 20
0.928797
 30
0.0
 11
1.14653
 21
1.07487
 31
0.0
  0
LINE
  8
0
 62
     0
 10
1.14653
 20
1.07487
 30
0.0
 11
0.972894
 21
1.23472
 31
0.0
  0
LINE
  8
0
 62
     0
 10
0.972894
 20
1.23472
 30
0.0
 11
0.813043
 21
1.40836
 31
0.0
  0
LINE
  8
0
 62
     0
 10
0.813043
 20
1.40836
 30
0.0
 11
0.666972
 21
1.59301
 31
0.0
  0
LINE
  8
0
 62
     0
 10
0.666972
 20
1.59301
 30
0.0
 11
0.537436
 21
1.78869
 31
0.0
  0
LINE
  8
0
 62
     0
 10
0.537436
 20
1.78869
 30
0.0
 11
0.421679
 21
1.9954
 31
0.0
  0
LINE
  8
0
 62
     0
 10
0.421679
 20
1.9954
 30
0.0
 11
0.323839
 21
2.20762
 31
0.0
  0
LINE
  8
0
 62
     0
 10
0.323839
 20
2.20762
 30
0.0
 11
0.241157
 21
2.42948
 31
0.0
  0
LINE
  8
0
 62
     0
 10
0.241157
 20
2.42948
 30
0.0
 11
0.177767
 21
2.65686
 31
0.0
  0
LINE
  8
0
 62
     0
 10
0.177767
 20
2.65686
 30
0.0
 11
0.130914
 21
2.88699
 31
0.0
  0
LINE
  8
0
 62
     0
 10
0.130914
 20
2.88699
 30
0.0
 11
0.104731
 21
3.12126
 31
0.0
  0
LINE
  8
0
 62
     0
 10
0.104731
 20
3.12126
 30
0.0
 11
0.0950846
 21
3.3569
 31
0.0
  0
LINE
  8
0
 62
     0
 10
0.0950846
 20
3.3569
 30
0.0
 11
0.0950846
 21
130.608
 31
0.0
  0
LINE
  8
0
 62
     0
 10
0.0950846
 20
130.608
 30
0.0
 11
0.104731
 21
130.844
 31
0.0
  0
LINE
  8
0
 62
     0
 10
0.104731
 20
130.844
 30
0.0
 11
0.130914
 21
131.078
 31
0.0
  0
LINE
  8
0
 62
     0
 10
0.130914
 20
131.078
 30
0.0
 11
0.177767
 21
131.308
 31
0.0
  0
LINE
  8
0
 62
     0
 10
0.177767
 20
131.308
 30
0.0
 11
0.241157
 21
131.535
 31
0.0
  0
LINE
  8
0
 62
     0
 10
0.241157
 20
131.535
 30
0.0
 11
0.323839
 21
131.755
 31
0.0
  0
LINE
  8
0
 62
     0
 10
0.323839
 20
131.755
 30
0.0
 11
0.421679
 21
131.969
 31
0.0
  0
LINE
  8
0
 62
     0
 10
0.421679
 20
131.969
 30
0.0
 11
0.537436
 21
132.176
 31
0.0
  0
LINE
  8
0
 62
     0
 10
0.537436
 20
132.176
 30
0.0
 11
0.666972
 21
132.372
 31
0.0
  0
LINE
  8
0
 62
     0
 10
0.666972
 20
132.372
 30
0.0
 11
0.813043
 21
132.556
 31
0.0
  0
LINE
  8
0
 62
     0
 10
0.813043
 20
132.556
 30
0.0
 11
0.972894
 21
132.73
 31
0.0
  0
LINE
  8
0
 62
     0
 10
0.972894
 20
132.73
 30
0.0
 11
1.14653
 21
132.89
 31
0.0
  0
LINE
  8
0
 62
     0
 10
1.14653
 20
132.89
 30
0.0
 11
1.33119
 21
133.036
 31
0.0
  0
LINE
  8
0
 62
     0
 10
1.33119
 20
133.036
 30
0.0
 11
1.52687
 21
133.165
 31
0.0
  0
LINE
  8
0
 62
     0
 10
1.52687
 20
133.165
 30
0.0
 11
1.73357
 21
133.281
 31
0.0
  0
LINE
  8
0
 62
     0
 10
1.73357
 20
133.281
 30
0.0
 11
1.94717
 21
133.379
 31
0.0
  0
LINE
  8
0
 62
     0
 10
1.94717
 20
133.379
 30
0.0
 11
2.16765
 21
133.461
 31
0.0
  0
LINE
  8
0
 62
     0
 10
2.16765
 20
133.461
 30
0.0
 11
2.39503
 21
133.525
 31
0.0
  0
LINE
  8
0
 62
     0
 10
2.39503
 20
133.525
 30
0.0
 11
2.62516
 21
133.572
 31
0.0
  0
LINE
  8
0
 62
     0
 10
2.62516
 20
133.572
 30
0.0
 11
2.85943
 21
133.598
 31
0.0
  0
LINE
  8
0
 62
     0
 10
2.85943
 20
133.598
 30
0.0
 11
3.09507
 21
133.608
 31
0.0
  0
LINE
  8
0
 62
     0
 10
3.09507
 20
133.608
 30
0.0
 11
298.847
 21
133.608
 31
0.0
  0
LINE
  8
0
 62
     0
 10
3.63114
 20
5.78362
 30
0.0
 11
3.21359
 21
5.57004
 31
0.0
  0
LINE
  8
0
 62
     0
 10
3.21359
 20
5.57004
 30
0.0
 11
2.88148
 21
5.23794
 31
0.0
  0
LINE
  8
0
 62
     0
 10
2.88148
 20
5.23794
 30
0.0
 11
2.66788
 21
4.82039
 31
0.0
  0
LINE
  8
0
 62
     0
 10
2.66788
 20
4.82039
 30
0.0
 11
2.59485
 21
4.35599
 31
0.0
  0
LINE
  8
0
 62
     0
 10
2.59485
 20
4.35599
 30
0.0
 11
2.66788
 21
3.89297
 31
0.0
  0
LINE
  8
0
 62
     0
 10
2.66788
 20
3.89297
 30
0.0
 11
2.88148
 21
3.47541
 31
0.0
  0
LINE
  8
0
 62
     0
 10
2.88148
 20
3.47541
 30
0.0
 11
3.21359
 21
3.14331
 31
0.0
  0
LINE
  8
0
 62
     0
 10
3.21359
 20
3.14331
 30
0.0
 11
3.63114
 21
2.92971
 31
0.0
  0
LINE
  8
0
 62
     0
 10
3.63114
 20
2.92971
 30
0.0
 11
4.09554
 21
2.85667
 31
0.0
  0
LINE
  8
0
 62
     0
 10
4.09554
 20
2.85667
 30
0.0
 11
4.55856
 21
2.92971
 31
0.0
  0
LINE
  8
0
 62
     0
 10
4.55856
 20
2.92971
 30
0.0
 11
4.97611
 21
3.14331
 31
0.0
  0
LINE
  8
0
 62
     0
 10
4.97611
 20
3.14331
 30
0.0
 11
5.30821
 21
3.47541
 31
0.0
  0
LINE
  8
0
 62
     0
 10
5.30821
 20
3.47541
 30
0.0
 11
5.52178
 21
3.89297
 31
0.0
  0
LINE
  8
0
 62
     0
 10
5.52178
 20
3.89297
 30
0.0
 11
5.59484
 21
4.35599
 31
0.0
  0
LINE
  8
0
 62
     0
 10
5.59484
 20
4.35599
 30
0.0
 11
5.52178
 21
4.82039
 31
0.0
  0
LINE
  8
0
 62
     0
 10
5.52178
 20
4.82039
 30
0.0
 11
5.30821
 21
5.23794
 31
0.0
  0
LINE
  8
0
 62
     0
 10
5.30821
 20
5.23794
 30
0.0
 11
4.97611
 21
5.57004
 31
0.0
  0
LINE
  8
0
 62
     0
 10
4.97611
 20
5.57004
 30
0.0
 11
4.55856
 21
5.78362
 31
0.0
  0
LINE
  8
0
 62
     0
 10
4.55856
 20
5.78362
 30
0.0
 11
4.09554
 21
5.85668
 31
0.0
  0
LINE
  8
0
 62
     0
 10
4.09554
 20
5.85668
 30
0.0
 11
3.63114
 21
5.78362
 31
0.0
  0
LINE
  8
0
 62
     0
 10
77.0696
 20
5.78362
 30
0.0
 11
76.6519
 21
5.57004
 31
0.0
  0
LINE
  8
0
 62
     0
 10
76.6519
 20
5.57004
 30
0.0
 11
76.3199
 21
5.23794
 31
0.0
  0
LINE
  8
0
 62
     0
 10
76.3199
 20
5.23794
 30
0.0
 11
76.1062
 21
4.82039
 31
0.0
  0
LINE
  8
0
 62
     0
 10
76.1062
 20
4.82039
 30
0.0
 11
76.0317
 21
4.35599
 31
0.0
  0
LINE
  8
0
 62
     0
 10
76.0317
 20
4.35599
 30
0.0
 11
76.1062
 21
3.89297
 31
0.0
  0
LINE
  8
0
 62
     0
 10
76.1062
 20
3.89297
 30
0.0
 11
76.3199
 21
3.47541
 31
0.0
  0
LINE
  8
0
 62
     0
 10
76.3199
 20
3.47541
 30
0.0
 11
76.6519
 21
3.14331
 31
0.0
  0
LINE
  8
0
 62
     0
 10
76.6519
 20
3.14331
 30
0.0
 11
77.0696
 21
2.92971
 31
0.0
  0
LINE
  8
0
 62
     0
 10
77.0696
 20
2.92971
 30
0.0
 11
77.5324
 21
2.85667
 31
0.0
  0
LINE
  8
0
 62
     0
 10
77.5324
 20
2.85667
 30
0.0
 11
77.997
 21
2.92971
 31
0.0
  0
LINE
  8
0
 62
     0
 10
77.997
 20
2.92971
 30
0.0
 11
78.4144
 21
3.14331
 31
0.0
  0
LINE
  8
0
 62
     0
 10
78.4144
 20
3.14331
 30
0.0
 11
78.7467
 21
3.47541
 31
0.0
  0
LINE
  8
0
 62
     0
 10
78.7467
 20
3.47541
 30
0.0
 11
78.9587
 21
3.89297
 31
0.0
  0
LINE
  8
0
 62
     0
 10
78.9587
 20
3.89297
 30
0.0
 11
79.0317
 21
4.35599
 31
0.0
  0
LINE
  8
0
 62
     0
 10
79.0317
 20
4.35599
 30
0.0
 11
78.9587
 21
4.82039
 31
0.0
  0
LINE
  8
0
 62
     0
 10
78.9587
 20
4.82039
 30
0.0
 11
78.7467
 21
5.23794
 31
0.0
  0
LINE
  8
0
 62
     0
 10
78.7467
 20
5.23794
 30
0.0
 11
78.4144
 21
5.57004
 31
0.0
  0
LINE
  8
0
 62
     0
 10
78.4144
 20
5.57004
 30
0.0
 11
77.997
 21
5.78362
 31
0.0
  0
LINE
  8
0
 62
     0
 10
77.997
 20
5.78362
 30
0.0
 11
77.5324
 21
5.85668
 31
0.0
  0
LINE
  8
0
 62
     0
 10
77.5324
 20
5.85668
 30
0.0
 11
77.0696
 21
5.78362
 31
0.0
  0
LINE
  8
0
 62
     0
 10
150.507
 20
5.78362
 30
0.0
 11
150.089
 21
5.57004
 31
0.0
  0
LINE
  8
0
 62
     0
 10
150.089
 20
5.57004
 30
0.0
 11
149.757
 21
5.23794
 31
0.0
  0
LINE
  8
0
 62
     0
 10
149.757
 20
5.23794
 30
0.0
 11
149.543
 21
4.82039
 31
0.0
  0
LINE
  8
0
 62
     0
 10
149.543
 20
4.82039
 30
0.0
 11
149.47
 21
4.35599
 31
0.0
  0
LINE
  8
0
 62
     0
 10
149.47
 20
4.35599
 30
0.0
 11
149.543
 21
3.89297
 31
0.0
  0
LINE
  8
0
 62
     0
 10
149.543
 20
3.89297
 30
0.0
 11
149.757
 21
3.47541
 31
0.0
  0
LINE
  8
0
 62
     0
 10
149.757
 20
3.47541
 30
0.0
 11
150.089
 21
3.14331
 31
0.0
  0
LINE
  8
0
 62
     0
 10
150.089
 20
3.14331
 30
0.0
 11
150.507
 21
2.92971
 31
0.0
  0
LINE
  8
0
 62
     0
 10
150.507
 20
2.92971
 30
0.0
 11
150.971
 21
2.85667
 31
0.0
  0
LINE
  8
0
 62
     0
 10
150.971
 20
2.85667
 30
0.0
 11
151.434
 21
2.92971
 31
0.0
  0
LINE
  8
0
 62
     0
 10
151.434
 20
2.92971
 30
0.0
 11
151.853
 21
3.14331
 31
0.0
  0
LINE
  8
0
 62
     0
 10
151.853
 20
3.14331
 30
0.0
 11
152.185
 21
3.47541
 31
0.0
  0
LINE
  8
0
 62
     0
 10
152.185
 20
3.47541
 30
0.0
 11
152.397
 21
3.89297
 31
0.0
  0
LINE
  8
0
 62
     0
 10
152.397
 20
3.89297
 30
0.0
 11
152.47
 21
4.35599
 31
0.0
  0
LINE
  8
0
 62
     0
 10
152.47
 20
4.35599
 30
0.0
 11
152.397
 21
4.82039
 31
0.0
  0
LINE
  8
0
 62
     0
 10
152.397
 20
4.82039
 30
0.0
 11
152.185
 21
5.23794
 31
0.0
  0
LINE
  8
0
 62
     0
 10
152.185
 20
5.23794
 30
0.0
 11
151.853
 21
5.57004
 31
0.0
  0
LINE
  8
0
 62
     0
 10
151.853
 20
5.57004
 30
0.0
 11
151.434
 21
5.78362
 31
0.0
  0
LINE
  8
0
 62
     0
 10
151.434
 20
5.78362
 30
0.0
 11
150.971
 21
5.85668
 31
0.0
  0
LINE
  8
0
 62
     0
 10
150.971
 20
5.85668
 30
0.0
 11
150.507
 21
5.78362
 31
0.0
  0
LINE
  8
0
 62
     0
 10
223.945
 20
5.78362
 30
0.0
 11
223.526
 21
5.57004
 31
0.0
  0
LINE
  8
0
 62
     0
 10
223.526
 20
5.57004
 30
0.0
 11
223.194
 21
5.23794
 31
0.0
  0
LINE
  8
0
 62
     0
 10
223.194
 20
5.23794
 30
0.0
 11
222.982
 21
4.82039
 31
0.0
  0
LINE
  8
0
 62
     0
 10
222.982
 20
4.82039
 30
0.0
 11
222.909
 21
4.35599
 31
0.0
  0
LINE
  8
0
 62
     0
 10
222.909
 20
4.35599
 30
0.0
 11
222.982
 21
3.89297
 31
0.0
  0
LINE
  8
0
 62
     0
 10
222.982
 20
3.89297
 30
0.0
 11
223.194
 21
3.47541
 31
0.0
  0
LINE
  8
0
 62
     0
 10
223.194
 20
3.47541
 30
0.0
 11
223.526
 21
3.14331
 31
0.0
  0
LINE
  8
0
 62
     0
 10
223.526
 20
3.14331
 30
0.0
 11
223.945
 21
2.92971
 31
0.0
  0
LINE
  8
0
 62
     0
 10
223.945
 20
2.92971
 30
0.0
 11
224.408
 21
2.85667
 31
0.0
  0
LINE
  8
0
 62
     0
 10
224.408
 20
2.85667
 30
0.0
 11
224.871
 21
2.92971
 31
0.0
  0
LINE
  8
0
 62
     0
 10
224.871
 20
2.92971
 30
0.0
 11
225.29
 21
3.14331
 31
0.0
  0
LINE
  8
0
 62
     0
 10
225.29
 20
3.14331
 30
0.0
 11
225.622
 21
3.47541
 31
0.0
  0
LINE
  8
0
 62
     0
 10
225.622
 20
3.47541
 30
0.0
 11
225.834
 21
3.89297
 31
0.0
  0
LINE
  8
0
 62
     0
 10
225.834
 20
3.89297
 30
0.0
 11
225.909
 21
4.35599
 31
0.0
  0
LINE
  8
0
 62
     0
 10
225.909
 20
4.35599
 30
0.0
 11
225.834
 21
4.82039
 31
0.0
  0
LINE
  8
0
 62
     0
 10
225.834
 20
4.82039
 30
0.0
 11
225.622
 21
5.23794
 31
0.0
  0
LINE
  8
0
 62
     0
 10
225.622
 20
5.23794
 30
0.0
 11
225.29
 21
5.57004
 31
0.0
  0
LINE
  8
0
 62
     0
 10
225.29
 20
5.57004
 30
0.0
 11
224.871
 21
5.78362
 31
0.0
  0
LINE
  8
0
 62
     0
 10
224.871
 20
5.78362
 30
0.0
 11
224.408
 21
5.85668
 31
0.0
  0
LINE
  8
0
 62
     0
 10
224.408
 20
5.85668
 30
0.0
 11
223.945
 21
5.78362
 31
0.0
  0
LINE
  8
0
 62
     0
 10
297.382
 20
5.78362
 30
0.0
 11
296.964
 21
5.57004
 31
0.0
  0
LINE
  8
0
 62
     0
 10
296.964
 20
5.57004
 30
0.0
 11
296.632
 21
5.23794
 31
0.0
  0
LINE
  8
0
 62
     0
 10
296.632
 20
5.23794
 30
0.0
 11
296.42
 21
4.82039
 31
0.0
  0
LINE
  8
0
 62
     0
 10
296.42
 20
4.82039
 30
0.0
 11
296.347
 21
4.35599
 31
0.0
  0
LINE
  8
0
 62
     0
 10
296.347
 20
4.35599
 30
0.0
 11
296.42
 21
3.89297
 31
0.0
  0
LINE
  8
0
 62
     0
 10
296.42
 20
3.89297
 30
0.0
 11
296.632
 21
3.47541
 31
0.0
  0
LINE
  8
0
 62
     0
 10
296.632
 20
3.47541
 30
0.0
 11
296.964
 21
3.14331
 31
0.0
  0
LINE
  8
0
 62
     0
 10
296.964
 20
3.14331
 30
0.0
 11
297.382
 21
2.92971
 31
0.0
  0
LINE
  8
0
 62
     0
 10
297.382
 20
2.92971
 30
0.0
 11
297.846
 21
2.85667
 31
0.0
  0
LINE
  8
0
 62
     0
 10
297.846
 20
2.85667
 30
0.0
 11
298.31
 21
2.92971
 31
0.0
  0
LINE
  8
0
 62
     0
 10
298.31
 20
2.92971
 30
0.0
 11
298.727
 21
3.14331
 31
0.0
  0
LINE
  8
0
 62
     0
 10
298.727
 20
3.14331
 30
0.0
 11
299.059
 21
3.47541
 31
0.0
  0
LINE
  8
0
 62
     0
 10
299.059
 20
3.47541
 30
0.0
 11
299.273
 21
3.89297
 31
0.0
  0
LINE
  8
0
 62
     0
 10
299.273
 20
3.89297
 30
0.0
 11
299.347
 21
4.35599
 31
0.0
  0
LINE
  8
0
 62
     0
 10
299.347
 20
4.35599
 30
0.0
 11
299.273
 21
4.82039
 31
0.0
  0
LINE
  8
0
 62
     0
 10
299.273
 20
4.82039
 30
0.0
 11
299.059
 21
5.23794
 31
0.0
  0
LINE
  8
0
 62
     0
 10
299.059
 20
5.23794
 30
0.0
 11
298.727
 21
5.57004
 31
0.0
  0
LINE
  8
0
 62
     0
 10
298.727
 20
5.57004
 30
0.0
 11
298.31
 21
5.78362
 31
0.0
  0
LINE
  8
0
 62
     0
 10
298.31
 20
5.78362
 30
0.0
 11
297.846
 21
5.85668
 31
0.0
  0
LINE
  8
0
 62
     0
 10
297.846
 20
5.85668
 30
0.0
 11
297.382
 21
5.78362
 31
0.0
  0
LINE
  8
0
 62
     0
 10
134.445
 20
24.8819
 30
0.0
 11
134.445
 21
23.8828
 31
0.0
  0
LINE
  8
0
 62
     0
 10
134.445
 20
23.8828
 30
0.0
 11
133.645
 21
23.8828
 31
0.0
  0
LINE
  8
0
 62
     0
 10
133.645
 20
23.8828
 30
0.0
 11
133.645
 21
20.7836
 31
0.0
  0
LINE
  8
0
 62
     0
 10
133.645
 20
20.7836
 30
0.0
 11
134.445
 21
20.7836
 31
0.0
  0
LINE
  8
0
 62
     0
 10
134.445
 20
20.7836
 30
0.0
 11
134.445
 21
20.1827
 31
0.0
  0
LINE
  8
0
 62
     0
 10
134.445
 20
20.1827
 30
0.0
 11
101.957
 21
20.1827
 31
0.0
  0
LINE
  8
0
 62
     0
 10
101.957
 20
20.1827
 30
0.0
 11
101.957
 21
23.4129
 31
0.0
  0
LINE
  8
0
 62
     0
 10
101.957
 20
23.4129
 30
0.0
 11
100.233
 21
23.4129
 31
0.0
  0
LINE
  8
0
 62
     0
 10
100.233
 20
23.4129
 30
0.0
 11
100.233
 21
24.3334
 31
0.0
  0
LINE
  8
0
 62
     0
 10
100.233
 20
24.3334
 30
0.0
 11
96.9327
 21
24.3334
 31
0.0
  0
LINE
  8
0
 62
     0
 10
96.9327
 20
24.3334
 30
0.0
 11
96.9327
 21
23.4129
 31
0.0
  0
LINE
  8
0
 62
     0
 10
96.9327
 20
23.4129
 30
0.0
 11
95.2073
 21
23.4129
 31
0.0
  0
LINE
  8
0
 62
     0
 10
95.2073
 20
23.4129
 30
0.0
 11
95.2073
 21
20.1827
 31
0.0
  0
LINE
  8
0
 62
     0
 10
95.2073
 20
20.1827
 30
0.0
 11
94.3818
 21
20.1827
 31
0.0
  0
LINE
  8
0
 62
     0
 10
94.3818
 20
20.1827
 30
0.0
 11
94.3818
 21
17.3826
 31
0.0
  0
LINE
  8
0
 62
     0
 10
94.3818
 20
17.3826
 30
0.0
 11
95.2073
 21
17.3826
 31
0.0
  0
LINE
  8
0
 62
     0
 10
95.2073
 20
17.3826
 30
0.0
 11
95.2073
 21
11.1139
 31
0.0
  0
LINE
  8
0
 62
     0
 10
95.2073
 20
11.1139
 30
0.0
 11
96.9327
 21
11.1139
 31
0.0
  0
LINE
  8
0
 62
     0
 10
96.9327
 20
11.1139
 30
0.0
 11
96.9327
 21
10.1327
 31
0.0
  0
LINE
  8
0
 62
     0
 10
96.9327
 20
10.1327
 30
0.0
 11
100.233
 21
10.1327
 31
0.0
  0
LINE
  8
0
 62
     0
 10
100.233
 20
10.1327
 30
0.0
 11
100.233
 21
11.1139
 31
0.0
  0
LINE
  8
0
 62
     0
 10
100.233
 20
11.1139
 30
0.0
 11
101.957
 21
11.1139
 31
0.0
  0
LINE
  8
0
 62
     0
 10
101.957
 20
11.1139
 30
0.0
 11
101.957
 21
15.5829
 31
0.0
  0
LINE
  8
0
 62
     0
 10
101.957
 20
15.5829
 30
0.0
 11
134.445
 21
15.5829
 31
0.0
  0
LINE
  8
0
 62
     0
 10
134.445
 20
15.5829
 30
0.0
 11
134.445
 21
14.982
 31
0.0
  0
LINE
  8
0
 62
     0
 10
134.445
 20
14.982
 30
0.0
 11
133.645
 21
14.982
 31
0.0
  0
LINE
  8
0
 62
     0
 10
133.645
 20
14.982
 30
0.0
 11
133.645
 21
11.8828
 31
0.0
  0
LINE
  8
0
 62
     0
 10
133.645
 20
11.8828
 30
0.0
 11
134.445
 21
11.8828
 31
0.0
  0
LINE
  8
0
 62
     0
 10
134.445
 20
11.8828
 30
0.0
 11
134.445
 21
10.8824
 31
0.0
  0
LINE
  8
0
 62
     0
 10
134.445
 20
10.8824
 30
0.0
 11
148.445
 21
10.8824
 31
0.0
  0
LINE
  8
0
 62
     0
 10
148.445
 20
10.8824
 30
0.0
 11
148.445
 21
11.8828
 31
0.0
  0
LINE
  8
0
 62
     0
 10
148.445
 20
11.8828
 30
0.0
 11
149.246
 21
11.8828
 31
0.0
  0
LINE
  8
0
 62
     0
 10
149.246
 20
11.8828
 30
0.0
 11
149.246
 21
14.982
 31
0.0
  0
LINE
  8
0
 62
     0
 10
149.246
 20
14.982
 30
0.0
 11
148.445
 21
14.982
 31
0.0
  0
LINE
  8
0
 62
     0
 10
148.445
 20
14.982
 30
0.0
 11
148.445
 21
15.5829
 31
0.0
  0
LINE
  8
0
 62
     0
 10
148.445
 20
15.5829
 30
0.0
 11
180.932
 21
15.5829
 31
0.0
  0
LINE
  8
0
 62
     0
 10
180.932
 20
15.5829
 30
0.0
 11
180.932
 21
11.1139
 31
0.0
  0
LINE
  8
0
 62
     0
 10
180.932
 20
11.1139
 30
0.0
 11
182.658
 21
11.1139
 31
0.0
  0
LINE
  8
0
 62
     0
 10
182.658
 20
11.1139
 30
0.0
 11
182.658
 21
10.1327
 31
0.0
  0
LINE
  8
0
 62
     0
 10
182.658
 20
10.1327
 30
0.0
 11
185.958
 21
10.1327
 31
0.0
  0
LINE
  8
0
 62
     0
 10
185.958
 20
10.1327
 30
0.0
 11
185.958
 21
11.1139
 31
0.0
  0
LINE
  8
0
 62
     0
 10
185.958
 20
11.1139
 30
0.0
 11
187.682
 21
11.1139
 31
0.0
  0
LINE
  8
0
 62
     0
 10
187.682
 20
11.1139
 30
0.0
 11
187.682
 21
17.3826
 31
0.0
  0
LINE
  8
0
 62
     0
 10
187.682
 20
17.3826
 30
0.0
 11
188.508
 21
17.3826
 31
0.0
  0
LINE
  8
0
 62
     0
 10
188.508
 20
17.3826
 30
0.0
 11
188.508
 21
20.1827
 31
0.0
  0
LINE
  8
0
 62
     0
 10
188.508
 20
20.1827
 30
0.0
 11
187.682
 21
20.1827
 31
0.0
  0
LINE
  8
0
 62
     0
 10
187.682
 20
20.1827
 30
0.0
 11
187.682
 21
23.4129
 31
0.0
  0
LINE
  8
0
 62
     0
 10
187.682
 20
23.4129
 30
0.0
 11
185.958
 21
23.4129
 31
0.0
  0
LINE
  8
0
 62
     0
 10
185.958
 20
23.4129
 30
0.0
 11
185.958
 21
24.3334
 31
0.0
  0
LINE
  8
0
 62
     0
 10
185.958
 20
24.3334
 30
0.0
 11
182.658
 21
24.3334
 31
0.0
  0
LINE
  8
0
 62
     0
 10
182.658
 20
24.3334
 30
0.0
 11
182.658
 21
23.4129
 31
0.0
  0
LINE
  8
0
 62
     0
 10
182.658
 20
23.4129
 30
0.0
 11
180.932
 21
23.4129
 31
0.0
  0
LINE
  8
0
 62
     0
 10
180.932
 20
23.4129
 30
0.0
 11
180.932
 21
20.1827
 31
0.0
  0
LINE
  8
0
 62
     0
 10
180.932
 20
20.1827
 30
0.0
 11
148.445
 21
20.1827
 31
0.0
  0
LINE
  8
0
 62
     0
 10
148.445
 20
20.1827
 30
0.0
 11
148.445
 21
20.7836
 31
0.0
  0
LINE
  8
0
 62
     0
 10
148.445
 20
20.7836
 30
0.0
 11
149.246
 21
20.7836
 31
0.0
  0
LINE
  8
0
 62
     0
 10
149.246
 20
20.7836
 30
0.0
 11
149.246
 21
23.8828
 31
0.0
  0
LINE
  8
0
 62
     0
 10
149.246
 20
23.8828
 30
0.0
 11
148.445
 21
23.8828
 31
0.0
  0
LINE
  8
0
 62
     0
 10
148.445
 20
23.8828
 30
0.0
 11
148.445
 21
24.8819
 31
0.0
  0
LINE
  8
0
 62
     0
 10
148.445
 20
24.8819
 30
0.0
 11
134.445
 21
24.8819
 31
0.0
  0
LINE
  8
0
 62
     0
 10
277.32
 20
24.8819
 30
0.0
 11
277.32
 21
23.8828
 31
0.0
  0
LINE
  8
0
 62
     0
 10
277.32
 20
23.8828
 30
0.0
 11
276.52
 21
23.8828
 31
0.0
  0
LINE
  8
0
 62
     0
 10
276.52
 20
23.8828
 30
0.0
 11
276.52
 21
20.7836
 31
0.0
  0
LINE
  8
0
 62
     0
 10
276.52
 20
20.7836
 30
0.0
 11
277.32
 21
20.7836
 31
0.0
  0
LINE
  8
0
 62
     0
 10
277.32
 20
20.7836
 30
0.0
 11
277.32
 21
14.982
 31
0.0
  0
LINE
  8
0
 62
     0
 10
277.32
 20
14.982
 30
0.0
 11
276.52
 21
14.982
 31
0.0
  0
LINE
  8
0
 62
     0
 10
276.52
 20
14.982
 30
0.0
 11
276.52
 21
11.8828
 31
0.0
  0
LINE
  8
0
 62
     0
 10
276.52
 20
11.8828
 30
0.0
 11
277.32
 21
11.8828
 31
0.0
  0
LINE
  8
0
 62
     0
 10
277.32
 20
11.8828
 30
0.0
 11
277.32
 21
10.8824
 31
0.0
  0
LINE
  8
0
 62
     0
 10
277.32
 20
10.8824
 30
0.0
 11
291.32
 21
10.8824
 31
0.0
  0
LINE
  8
0
 62
     0
 10
291.32
 20
10.8824
 30
0.0
 11
291.32
 21
11.8828
 31
0.0
  0
LINE
  8
0
 62
     0
 10
291.32
 20
11.8828
 30
0.0
 11
292.121
 21
11.8828
 31
0.0
  0
LINE
  8
0
 62
     0
 10
292.121
 20
11.8828
 30
0.0
 11
292.121
 21
14.982
 31
0.0
  0
LINE
  8
0
 62
     0
 10
292.121
 20
14.982
 30
0.0
 11
291.32
 21
14.982
 31
0.0
  0
LINE
  8
0
 62
     0
 10
291.32
 20
14.982
 30
0.0
 11
291.32
 21
20.7836
 31
0.0
  0
LINE
  8
0
 62
     0
 10
291.32
 20
20.7836
 30
0.0
 11
292.121
 21
20.7836
 31
0.0
  0
LINE
  8
0
 62
     0
 10
292.121
 20
20.7836
 30
0.0
 11
292.121
 21
23.8828
 31
0.0
  0
LINE
  8
0
 62
     0
 10
292.121
 20
23.8828
 30
0.0
 11
291.32
 21
23.8828
 31
0.0
  0
LINE
  8
0
 62
     0
 10
291.32
 20
23.8828
 30
0.0
 11
291.32
 21
24.8819
 31
0.0
  0
LINE
  8
0
 62
     0
 10
291.32
 20
24.8819
 30
0.0
 11
277.32
 21
24.8819
 31
0.0
  0
LINE
  8
0
 62
     0
 10
258.27
 20
24.8819
 30
0.0
 11
258.27
 21
23.8828
 31
0.0
  0
LINE
  8
0
 62
     0
 10
258.27
 20
23.8828
 30
0.0
 11
257.47
 21
23.8828
 31
0.0
  0
LINE
  8
0
 62
     0
 10
257.47
 20
23.8828
 30
0.0
 11
257.47
 21
20.7836
 31
0.0
  0
LINE
  8
0
 62
     0
 10
257.47
 20
20.7836
 30
0.0
 11
258.27
 21
20.7836
 31
0.0
  0
LINE
  8
0
 62
     0
 10
258.27
 20
20.7836
 30
0.0
 11
258.27
 21
14.982
 31
0.0
  0
LINE
  8
0
 62
     0
 10
258.27
 20
14.982
 30
0.0
 11
257.47
 21
14.982
 31
0.0
  0
LINE
  8
0
 62
     0
 10
257.47
 20
14.982
 30
0.0
 11
257.47
 21
11.8828
 31
0.0
  0
LINE
  8
0
 62
     0
 10
257.47
 20
11.8828
 30
0.0
 11
258.27
 21
11.8828
 31
0.0
  0
LINE
  8
0
 62
     0
 10
258.27
 20
11.8828
 30
0.0
 11
258.27
 21
10.8824
 31
0.0
  0
LINE
  8
0
 62
     0
 10
258.27
 20
10.8824
 30
0.0
 11
272.27
 21
10.8824
 31
0.0
  0
LINE
  8
0
 62
     0
 10
272.27
 20
10.8824
 30
0.0
 11
272.27
 21
11.8828
 31
0.0
  0
LINE
  8
0
 62
     0
 10
272.27
 20
11.8828
 30
0.0
 11
273.071
 21
11.8828
 31
0.0
  0
LINE
  8
0
 62
     0
 10
273.071
 20
11.8828
 30
0.0
 11
273.071
 21
14.982
 31
0.0
  0
LINE
  8
0
 62
     0
 10
273.071
 20
14.982
 30
0.0
 11
272.27
 21
14.982
 31
0.0
  0
LINE
  8
0
 62
     0
 10
272.27
 20
14.982
 30
0.0
 11
272.27
 21
20.7836
 31
0.0
  0
LINE
  8
0
 62
     0
 10
272.27
 20
20.7836
 30
0.0
 11
273.071
 21
20.7836
 31
0.0
  0
LINE
  8
0
 62
     0
 10
273.071
 20
20.7836
 30
0.0
 11
273.071
 21
23.8828
 31
0.0
  0
LINE
  8
0
 62
     0
 10
273.071
 20
23.8828
 30
0.0
 11
272.27
 21
23.8828
 31
0.0
  0
LINE
  8
0
 62
     0
 10
272.27
 20
23.8828
 30
0.0
 11
272.27
 21
24.8819
 31
0.0
  0
LINE
  8
0
 62
     0
 10
272.27
 20
24.8819
 30
0.0
 11
258.27
 21
24.8819
 31
0.0
  0
LINE
  8
0
 62
     0
 10
239.22
 20
24.8819
 30
0.0
 11
239.22
 21
23.8828
 31
0.0
  0
LINE
  8
0
 62
     0
 10
239.22
 20
23.8828
 30
0.0
 11
238.42
 21
23.8828
 31
0.0
  0
LINE
  8
0
 62
     0
 10
238.42
 20
23.8828
 30
0.0
 11
238.42
 21
20.7836
 31
0.0
  0
LINE
  8
0
 62
     0
 10
238.42
 20
20.7836
 30
0.0
 11
239.22
 21
20.7836
 31
0.0
  0
LINE
  8
0
 62
     0
 10
239.22
 20
20.7836
 30
0.0
 11
239.22
 21
14.982
 31
0.0
  0
LINE
  8
0
 62
     0
 10
239.22
 20
14.982
 30
0.0
 11
238.42
 21
14.982
 31
0.0
  0
LINE
  8
0
 62
     0
 10
238.42
 20
14.982
 30
0.0
 11
238.42
 21
11.8828
 31
0.0
  0
LINE
  8
0
 62
     0
 10
238.42
 20
11.8828
 30
0.0
 11
239.22
 21
11.8828
 31
0.0
  0
LINE
  8
0
 62
     0
 10
239.22
 20
11.8828
 30
0.0
 11
239.22
 21
10.8824
 31
0.0
  0
LINE
  8
0
 62
     0
 10
239.22
 20
10.8824
 30
0.0
 11
253.22
 21
10.8824
 31
0.0
  0
LINE
  8
0
 62
     0
 10
253.22
 20
10.8824
 30
0.0
 11
253.22
 21
11.8828
 31
0.0
  0
LINE
  8
0
 62
     0
 10
253.22
 20
11.8828
 30
0.0
 11
254.021
 21
11.8828
 31
0.0
  0
LINE
  8
0
 62
     0
 10
254.021
 20
11.8828
 30
0.0
 11
254.021
 21
14.982
 31
0.0
  0
LINE
  8
0
 62
     0
 10
254.021
 20
14.982
 30
0.0
 11
253.22
 21
14.982
 31
0.0
  0
LINE
  8
0
 62
     0
 10
253.22
 20
14.982
 30
0.0
 11
253.22
 21
20.7836
 31
0.0
  0
LINE
  8
0
 62
     0
 10
253.22
 20
20.7836
 30
0.0
 11
254.021
 21
20.7836
 31
0.0
  0
LINE
  8
0
 62
     0
 10
254.021
 20
20.7836
 30
0.0
 11
254.021
 21
23.8828
 31
0.0
  0
LINE
  8
0
 62
     0
 10
254.021
 20
23.8828
 30
0.0
 11
253.22
 21
23.8828
 31
0.0
  0
LINE
  8
0
 62
     0
 10
253.22
 20
23.8828
 30
0.0
 11
253.22
 21
24.8819
 31
0.0
  0
LINE
  8
0
 62
     0
 10
253.22
 20
24.8819
 30
0.0
 11
239.22
 21
24.8819
 31
0.0
  0
LINE
  8
0
 62
     0
 10
220.17
 20
24.8819
 30
0.0
 11
220.17
 21
23.8828
 31
0.0
  0
LINE
  8
0
 62
     0
 10
220.17
 20
23.8828
 30
0.0
 11
219.37
 21
23.8828
 31
0.0
  0
LINE
  8
0
 62
     0
 10
219.37
 20
23.8828
 30
0.0
 11
219.37
 21
20.7836
 31
0.0
  0
LINE
  8
0
 62
     0
 10
219.37
 20
20.7836
 30
0.0
 11
220.17
 21
20.7836
 31
0.0
  0
LINE
  8
0
 62
     0
 10
220.17
 20
20.7836
 30
0.0
 11
220.17
 21
14.982
 31
0.0
  0
LINE
  8
0
 62
     0
 10
220.17
 20
14.982
 30
0.0
 11
219.37
 21
14.982
 31
0.0
  0
LINE
  8
0
 62
     0
 10
219.37
 20
14.982
 30
0.0
 11
219.37
 21
11.8828
 31
0.0
  0
LINE
  8
0
 62
     0
 10
219.37
 20
11.8828
 30
0.0
 11
220.17
 21
11.8828
 31
0.0
  0
LINE
  8
0
 62
     0
 10
220.17
 20
11.8828
 30
0.0
 11
220.17
 21
10.8824
 31
0.0
  0
LINE
  8
0
 62
     0
 10
220.17
 20
10.8824
 30
0.0
 11
234.17
 21
10.8824
 31
0.0
  0
LINE
  8
0
 62
     0
 10
234.17
 20
10.8824
 30
0.0
 11
234.17
 21
11.8828
 31
0.0
  0
LINE
  8
0
 62
     0
 10
234.17
 20
11.8828
 30
0.0
 11
234.971
 21
11.8828
 31
0.0
  0
LINE
  8
0
 62
     0
 10
234.971
 20
11.8828
 30
0.0
 11
234.971
 21
14.982
 31
0.0
  0
LINE
  8
0
 62
     0
 10
234.971
 20
14.982
 30
0.0
 11
234.17
 21
14.982
 31
0.0
  0
LINE
  8
0
 62
     0
 10
234.17
 20
14.982
 30
0.0
 11
234.17
 21
20.7836
 31
0.0
  0
LINE
  8
0
 62
     0
 10
234.17
 20
20.7836
 30
0.0
 11
234.971
 21
20.7836
 31
0.0
  0
LINE
  8
0
 62
     0
 10
234.971
 20
20.7836
 30
0.0
 11
234.971
 21
23.8828
 31
0.0
  0
LINE
  8
0
 62
     0
 10
234.971
 20
23.8828
 30
0.0
 11
234.17
 21
23.8828
 31
0.0
  0
LINE
  8
0
 62
     0
 10
234.17
 20
23.8828
 30
0.0
 11
234.17
 21
24.8819
 31
0.0
  0
LINE
  8
0
 62
     0
 10
234.17
 20
24.8819
 30
0.0
 11
220.17
 21
24.8819
 31
0.0
  0
LINE
  8
0
 62
     0
 10
198.738
 20
24.8819
 30
0.0
 11
198.738
 21
23.8828
 31
0.0
  0
LINE
  8
0
 62
     0
 10
198.738
 20
23.8828
 30
0.0
 11
197.939
 21
23.8828
 31
0.0
  0
LINE
  8
0
 62
     0
 10
197.939
 20
23.8828
 30
0.0
 11
197.939
 21
20.7836
 31
0.0
  0
LINE
  8
0
 62
     0
 10
197.939
 20
20.7836
 30
0.0
 11
198.738
 21
20.7836
 31
0.0
  0
LINE
  8
0
 62
     0
 10
198.738
 20
20.7836
 30
0.0
 11
198.738
 21
14.982
 31
0.0
  0
LINE
  8
0
 62
     0
 10
198.738
 20
14.982
 30
0.0
 11
197.939
 21
14.982
 31
0.0
  0
LINE
  8
0
 62
     0
 10
197.939
 20
14.982
 30
0.0
 11
197.939
 21
11.8828
 31
0.0
  0
LINE
  8
0
 62
     0
 10
197.939
 20
11.8828
 30
0.0
 11
198.738
 21
11.8828
 31
0.0
  0
LINE
  8
0
 62
     0
 10
198.738
 20
11.8828
 30
0.0
 11
198.738
 21
10.8824
 31
0.0
  0
LINE
  8
0
 62
     0
 10
198.738
 20
10.8824
 30
0.0
 11
212.739
 21
10.8824
 31
0.0
  0
LINE
  8
0
 62
     0
 10
212.739
 20
10.8824
 30
0.0
 11
212.739
 21
11.8828
 31
0.0
  0
LINE
  8
0
 62
     0
 10
212.739
 20
11.8828
 30
0.0
 11
213.538
 21
11.8828
 31
0.0
  0
LINE
  8
0
 62
     0
 10
213.538
 20
11.8828
 30
0.0
 11
213.538
 21
14.982
 31
0.0
  0
LINE
  8
0
 62
     0
 10
213.538
 20
14.982
 30
0.0
 11
212.739
 21
14.982
 31
0.0
  0
LINE
  8
0
 62
     0
 10
212.739
 20
14.982
 30
0.0
 11
212.739
 21
20.7836
 31
0.0
  0
LINE
  8
0
 62
     0
 10
212.739
 20
20.7836
 30
0.0
 11
213.538
 21
20.7836
 31
0.0
  0
LINE
  8
0
 62
     0
 10
213.538
 20
20.7836
 30
0.0
 11
213.538
 21
23.8828
 31
0.0
  0
LINE
  8
0
 62
     0
 10
213.538
 20
23.8828
 30
0.0
 11
212.739
 21
23.8828
 31
0.0
  0
LINE
  8
0
 62
     0
 10
212.739
 20
23.8828
 30
0.0
 11
212.739
 21
24.8819
 31
0.0
  0
LINE
  8
0
 62
     0
 10
212.739
 20
24.8819
 30
0.0
 11
198.738
 21
24.8819
 31
0.0
  0
LINE
  8
0
 62
     0
 10
67.7704
 20
24.8819
 30
0.0
 11
67.7704
 21
23.8828
 31
0.0
  0
LINE
  8
0
 62
     0
 10
67.7704
 20
23.8828
 30
0.0
 11
66.9699
 21
23.8828
 31
0.0
  0
LINE
  8
0
 62
     0
 10
66.9699
 20
23.8828
 30
0.0
 11
66.9699
 21
20.7836
 31
0.0
  0
LINE
  8
0
 62
     0
 10
66.9699
 20
20.7836
 30
0.0
 11
67.7704
 21
20.7836
 31
0.0
  0
LINE
  8
0
 62
     0
 10
67.7704
 20
20.7836
 30
0.0
 11
67.7704
 21
14.982
 31
0.0
  0
LINE
  8
0
 62
     0
 10
67.7704
 20
14.982
 30
0.0
 11
66.9699
 21
14.982
 31
0.0
  0
LINE
  8
0
 62
     0
 10
66.9699
 20
14.982
 30
0.0
 11
66.9699
 21
11.8828
 31
0.0
  0
LINE
  8
0
 62
     0
 10
66.9699
 20
11.8828
 30
0.0
 11
67.7704
 21
11.8828
 31
0.0
  0
LINE
  8
0
 62
     0
 10
67.7704
 20
11.8828
 30
0.0
 11
67.7704
 21
10.8824
 31
0.0
  0
LINE
  8
0
 62
     0
 10
67.7704
 20
10.8824
 30
0.0
 11
81.77
 21
10.8824
 31
0.0
  0
LINE
  8
0
 62
     0
 10
81.77
 20
10.8824
 30
0.0
 11
81.77
 21
11.8828
 31
0.0
  0
LINE
  8
0
 62
     0
 10
81.77
 20
11.8828
 30
0.0
 11
82.5708
 21
11.8828
 31
0.0
  0
LINE
  8
0
 62
     0
 10
82.5708
 20
11.8828
 30
0.0
 11
82.5708
 21
14.982
 31
0.0
  0
LINE
  8
0
 62
     0
 10
82.5708
 20
14.982
 30
0.0
 11
81.77
 21
14.982
 31
0.0
  0
LINE
  8
0
 62
     0
 10
81.77
 20
14.982
 30
0.0
 11
81.77
 21
20.7836
 31
0.0
  0
LINE
  8
0
 62
     0
 10
81.77
 20
20.7836
 30
0.0
 11
82.5708
 21
20.7836
 31
0.0
  0
LINE
  8
0
 62
     0
 10
82.5708
 20
20.7836
 30
0.0
 11
82.5708
 21
23.8828
 31
0.0
  0
LINE
  8
0
 62
     0
 10
82.5708
 20
23.8828
 30
0.0
 11
81.77
 21
23.8828
 31
0.0
  0
LINE
  8
0
 62
     0
 10
81.77
 20
23.8828
 30
0.0
 11
81.77
 21
24.8819
 31
0.0
  0
LINE
  8
0
 62
     0
 10
81.77
 20
24.8819
 30
0.0
 11
67.7704
 21
24.8819
 31
0.0
  0
LINE
  8
0
 62
     0
 10
41.5766
 20
24.8819
 30
0.0
 11
41.5766
 21
23.8828
 31
0.0
  0
LINE
  8
0
 62
     0
 10
41.5766
 20
23.8828
 30
0.0
 11
40.7762
 21
23.8828
 31
0.0
  0
LINE
  8
0
 62
     0
 10
40.7762
 20
23.8828
 30
0.0
 11
40.7762
 21
20.7836
 31
0.0
  0
LINE
  8
0
 62
     0
 10
40.7762
 20
20.7836
 30
0.0
 11
41.5766
 21
20.7836
 31
0.0
  0
LINE
  8
0
 62
     0
 10
41.5766
 20
20.7836
 30
0.0
 11
41.5766
 21
14.982
 31
0.0
  0
LINE
  8
0
 62
     0
 10
41.5766
 20
14.982
 30
0.0
 11
40.7762
 21
14.982
 31
0.0
  0
LINE
  8
0
 62
     0
 10
40.7762
 20
14.982
 30
0.0
 11
40.7762
 21
11.8828
 31
0.0
  0
LINE
  8
0
 62
     0
 10
40.7762
 20
11.8828
 30
0.0
 11
41.5766
 21
11.8828
 31
0.0
  0
LINE
  8
0
 62
     0
 10
41.5766
 20
11.8828
 30
0.0
 11
41.5766
 21
10.8824
 31
0.0
  0
LINE
  8
0
 62
     0
 10
41.5766
 20
10.8824
 30
0.0
 11
55.5763
 21
10.8824
 31
0.0
  0
LINE
  8
0
 62
     0
 10
55.5763
 20
10.8824
 30
0.0
 11
55.5763
 21
11.8828
 31
0.0
  0
LINE
  8
0
 62
     0
 10
55.5763
 20
11.8828
 30
0.0
 11
56.3771
 21
11.8828
 31
0.0
  0
LINE
  8
0
 62
     0
 10
56.3771
 20
11.8828
 30
0.0
 11
56.3771
 21
14.982
 31
0.0
  0
LINE
  8
0
 62
     0
 10
56.3771
 20
14.982
 30
0.0
 11
55.5763
 21
14.982
 31
0.0
  0
LINE
  8
0
 62
     0
 10
55.5763
 20
14.982
 30
0.0
 11
55.5763
 21
20.7836
 31
0.0
  0
LINE
  8
0
 62
     0
 10
55.5763
 20
20.7836
 30
0.0
 11
56.3771
 21
20.7836
 31
0.0
  0
LINE
  8
0
 62
     0
 10
56.3771
 20
20.7836
 30
0.0
 11
56.3771
 21
23.8828
 31
0.0
  0
LINE
  8
0
 62
     0
 10
56.3771
 20
23.8828
 30
0.0
 11
55.5763
 21
23.8828
 31
0.0
  0
LINE
  8
0
 62
     0
 10
55.5763
 20
23.8828
 30
0.0
 11
55.5763
 21
24.8819
 31
0.0
  0
LINE
  8
0
 62
     0
 10
55.5763
 20
24.8819
 30
0.0
 11
41.5766
 21
24.8819
 31
0.0
  0
LINE
  8
0
 62
     0
 10
15.3831
 20
24.8819
 30
0.0
 11
15.3831
 21
23.8828
 31
0.0
  0
LINE
  8
0
 62
     0
 10
15.3831
 20
23.8828
 30
0.0
 11
14.5824
 21
23.8828
 31
0.0
  0
LINE
  8
0
 62
     0
 10
14.5824
 20
23.8828
 30
0.0
 11
14.5824
 21
20.7836
 31
0.0
  0
LINE
  8
0
 62
     0
 10
14.5824
 20
20.7836
 30
0.0
 11
15.3831
 21
20.7836
 31
0.0
  0
LINE
  8
0
 62
     0
 10
15.3831
 20
20.7836
 30
0.0
 11
15.3831
 21
14.982
 31
0.0
  0
LINE
  8
0
 62
     0
 10
15.3831
 20
14.982
 30
0.0
 11
14.5824
 21
14.982
 31
0.0
  0
LINE
  8
0
 62
     0
 10
14.5824
 20
14.982
 30
0.0
 11
14.5824
 21
11.8828
 31
0.0
  0
LINE
  8
0
 62
     0
 10
14.5824
 20
11.8828
 30
0.0
 11
15.3831
 21
11.8828
 31
0.0
  0
LINE
  8
0
 62
     0
 10
15.3831
 20
11.8828
 30
0.0
 11
15.3831
 21
10.8824
 31
0.0
  0
LINE
  8
0
 62
     0
 10
15.3831
 20
10.8824
 30
0.0
 11
29.3825
 21
10.8824
 31
0.0
  0
LINE
  8
0
 62
     0
 10
29.3825
 20
10.8824
 30
0.0
 11
29.3825
 21
11.8828
 31
0.0
  0
LINE
  8
0
 62
     0
 10
29.3825
 20
11.8828
 30
0.0
 11
30.1832
 21
11.8828
 31
0.0
  0
LINE
  8
0
 62
     0
 10
30.1832
 20
11.8828
 30
0.0
 11
30.1832
 21
14.982
 31
0.0
  0
LINE
  8
0
 62
     0
 10
30.1832
 20
14.982
 30
0.0
 11
29.3825
 21
14.982
 31
0.0
  0
LINE
  8
0
 62
     0
 10
29.3825
 20
14.982
 30
0.0
 11
29.3825
 21
20.7836
 31
0.0
  0
LINE
  8
0
 62
     0
 10
29.3825
 20
20.7836
 30
0.0
 11
30.1832
 21
20.7836
 31
0.0
  0
LINE
  8
0
 62
     0
 10
30.1832
 20
20.7836
 30
0.0
 11
30.1832
 21
23.8828
 31
0.0
  0
LINE
  8
0
 62
     0
 10
30.1832
 20
23.8828
 30
0.0
 11
29.3825
 21
23.8828
 31
0.0
  0
LINE
  8
0
 62
     0
 10
29.3825
 20
23.8828
 30
0.0
 11
29.3825
 21
24.8819
 31
0.0
  0
LINE
  8
0
 62
     0
 10
29.3825
 20
24.8819
 30
0.0
 11
15.3831
 21
24.8819
 31
0.0
  0
LINE
  8
0
 62
     0
 10
260.652
 20
43.9318
 30
0.0
 11
260.652
 21
42.9327
 31
0.0
  0
LINE
  8
0
 62
     0
 10
260.652
 20
42.9327
 30
0.0
 11
259.851
 21
42.9327
 31
0.0
  0
LINE
  8
0
 62
     0
 10
259.851
 20
42.9327
 30
0.0
 11
259.851
 21
39.8336
 31
0.0
  0
LINE
  8
0
 62
     0
 10
259.851
 20
39.8336
 30
0.0
 11
260.652
 21
39.8336
 31
0.0
  0
LINE
  8
0
 62
     0
 10
260.652
 20
39.8336
 30
0.0
 11
260.652
 21
39.2328
 31
0.0
  0
LINE
  8
0
 62
     0
 10
260.652
 20
39.2328
 30
0.0
 11
259.126
 21
39.2328
 31
0.0
  0
LINE
  8
0
 62
     0
 10
259.126
 20
39.2328
 30
0.0
 11
259.126
 21
42.4628
 31
0.0
  0
LINE
  8
0
 62
     0
 10
259.126
 20
42.4628
 30
0.0
 11
257.401
 21
42.4628
 31
0.0
  0
LINE
  8
0
 62
     0
 10
257.401
 20
42.4628
 30
0.0
 11
257.401
 21
43.3821
 31
0.0
  0
LINE
  8
0
 62
     0
 10
257.401
 20
43.3821
 30
0.0
 11
254.101
 21
43.3821
 31
0.0
  0
LINE
  8
0
 62
     0
 10
254.101
 20
43.3821
 30
0.0
 11
254.101
 21
42.4628
 31
0.0
  0
LINE
  8
0
 62
     0
 10
254.101
 20
42.4628
 30
0.0
 11
252.377
 21
42.4628
 31
0.0
  0
LINE
  8
0
 62
     0
 10
252.377
 20
42.4628
 30
0.0
 11
252.377
 21
39.2328
 31
0.0
  0
LINE
  8
0
 62
     0
 10
252.377
 20
39.2328
 30
0.0
 11
251.551
 21
39.2328
 31
0.0
  0
LINE
  8
0
 62
     0
 10
251.551
 20
39.2328
 30
0.0
 11
251.551
 21
36.4324
 31
0.0
  0
LINE
  8
0
 62
     0
 10
251.551
 20
36.4324
 30
0.0
 11
252.377
 21
36.4324
 31
0.0
  0
LINE
  8
0
 62
     0
 10
252.377
 20
36.4324
 30
0.0
 11
252.377
 21
30.1625
 31
0.0
  0
LINE
  8
0
 62
     0
 10
252.377
 20
30.1625
 30
0.0
 11
254.101
 21
30.1625
 31
0.0
  0
LINE
  8
0
 62
     0
 10
254.101
 20
30.1625
 30
0.0
 11
254.101
 21
29.1827
 31
0.0
  0
LINE
  8
0
 62
     0
 10
254.101
 20
29.1827
 30
0.0
 11
257.401
 21
29.1827
 31
0.0
  0
LINE
  8
0
 62
     0
 10
257.401
 20
29.1827
 30
0.0
 11
257.401
 21
30.1625
 31
0.0
  0
LINE
  8
0
 62
     0
 10
257.401
 20
30.1625
 30
0.0
 11
259.126
 21
30.1625
 31
0.0
  0
LINE
  8
0
 62
     0
 10
259.126
 20
30.1625
 30
0.0
 11
259.126
 21
34.6329
 31
0.0
  0
LINE
  8
0
 62
     0
 10
259.126
 20
34.6329
 30
0.0
 11
260.652
 21
34.6329
 31
0.0
  0
LINE
  8
0
 62
     0
 10
260.652
 20
34.6329
 30
0.0
 11
260.652
 21
34.0321
 31
0.0
  0
LINE
  8
0
 62
     0
 10
260.652
 20
34.0321
 30
0.0
 11
259.851
 21
34.0321
 31
0.0
  0
LINE
  8
0
 62
     0
 10
259.851
 20
34.0321
 30
0.0
 11
259.851
 21
30.9328
 31
0.0
  0
LINE
  8
0
 62
     0
 10
259.851
 20
30.9328
 30
0.0
 11
260.652
 21
30.9328
 31
0.0
  0
LINE
  8
0
 62
     0
 10
260.652
 20
30.9328
 30
0.0
 11
260.652
 21
29.9324
 31
0.0
  0
LINE
  8
0
 62
     0
 10
260.652
 20
29.9324
 30
0.0
 11
274.651
 21
29.9324
 31
0.0
  0
LINE
  8
0
 62
     0
 10
274.651
 20
29.9324
 30
0.0
 11
274.651
 21
30.9328
 31
0.0
  0
LINE
  8
0
 62
     0
 10
274.651
 20
30.9328
 30
0.0
 11
275.452
 21
30.9328
 31
0.0
  0
LINE
  8
0
 62
     0
 10
275.452
 20
30.9328
 30
0.0
 11
275.452
 21
34.0321
 31
0.0
  0
LINE
  8
0
 62
     0
 10
275.452
 20
34.0321
 30
0.0
 11
274.651
 21
34.0321
 31
0.0
  0
LINE
  8
0
 62
     0
 10
274.651
 20
34.0321
 30
0.0
 11
274.651
 21
34.6329
 31
0.0
  0
LINE
  8
0
 62
     0
 10
274.651
 20
34.6329
 30
0.0
 11
276.177
 21
34.6329
 31
0.0
  0
LINE
  8
0
 62
     0
 10
276.177
 20
34.6329
 30
0.0
 11
276.177
 21
30.1625
 31
0.0
  0
LINE
  8
0
 62
     0
 10
276.177
 20
30.1625
 30
0.0
 11
277.902
 21
30.1625
 31
0.0
  0
LINE
  8
0
 62
     0
 10
277.902
 20
30.1625
 30
0.0
 11
277.902
 21
29.1827
 31
0.0
  0
LINE
  8
0
 62
     0
 10
277.902
 20
29.1827
 30
0.0
 11
281.201
 21
29.1827
 31
0.0
  0
LINE
  8
0
 62
     0
 10
281.201
 20
29.1827
 30
0.0
 11
281.201
 21
30.1625
 31
0.0
  0
LINE
  8
0
 62
     0
 10
281.201
 20
30.1625
 30
0.0
 11
282.926
 21
30.1625
 31
0.0
  0
LINE
  8
0
 62
     0
 10
282.926
 20
30.1625
 30
0.0
 11
282.926
 21
36.4324
 31
0.0
  0
LINE
  8
0
 62
     0
 10
282.926
 20
36.4324
 30
0.0
 11
283.752
 21
36.4324
 31
0.0
  0
LINE
  8
0
 62
     0
 10
283.752
 20
36.4324
 30
0.0
 11
283.752
 21
39.2328
 31
0.0
  0
LINE
  8
0
 62
     0
 10
283.752
 20
39.2328
 30
0.0
 11
282.926
 21
39.2328
 31
0.0
  0
LINE
  8
0
 62
     0
 10
282.926
 20
39.2328
 30
0.0
 11
282.926
 21
42.4628
 31
0.0
  0
LINE
  8
0
 62
     0
 10
282.926
 20
42.4628
 30
0.0
 11
281.201
 21
42.4628
 31
0.0
  0
LINE
  8
0
 62
     0
 10
281.201
 20
42.4628
 30
0.0
 11
281.201
 21
43.3821
 31
0.0
  0
LINE
  8
0
 62
     0
 10
281.201
 20
43.3821
 30
0.0
 11
277.902
 21
43.3821
 31
0.0
  0
LINE
  8
0
 62
     0
 10
277.902
 20
43.3821
 30
0.0
 11
277.902
 21
42.4628
 31
0.0
  0
LINE
  8
0
 62
     0
 10
277.902
 20
42.4628
 30
0.0
 11
276.177
 21
42.4628
 31
0.0
  0
LINE
  8
0
 62
     0
 10
276.177
 20
42.4628
 30
0.0
 11
276.177
 21
39.2328
 31
0.0
  0
LINE
  8
0
 62
     0
 10
276.177
 20
39.2328
 30
0.0
 11
274.651
 21
39.2328
 31
0.0
  0
LINE
  8
0
 62
     0
 10
274.651
 20
39.2328
 30
0.0
 11
274.651
 21
39.8336
 31
0.0
  0
LINE
  8
0
 62
     0
 10
274.651
 20
39.8336
 30
0.0
 11
275.452
 21
39.8336
 31
0.0
  0
LINE
  8
0
 62
     0
 10
275.452
 20
39.8336
 30
0.0
 11
275.452
 21
42.9327
 31
0.0
  0
LINE
  8
0
 62
     0
 10
275.452
 20
42.9327
 30
0.0
 11
274.651
 21
42.9327
 31
0.0
  0
LINE
  8
0
 62
     0
 10
274.651
 20
42.9327
 30
0.0
 11
274.651
 21
43.9318
 31
0.0
  0
LINE
  8
0
 62
     0
 10
274.651
 20
43.9318
 30
0.0
 11
260.652
 21
43.9318
 31
0.0
  0
LINE
  8
0
 62
     0
 10
22.5268
 20
43.9318
 30
0.0
 11
22.5268
 21
42.9327
 31
0.0
  0
LINE
  8
0
 62
     0
 10
22.5268
 20
42.9327
 30
0.0
 11
21.7261
 21
42.9327
 31
0.0
  0
LINE
  8
0
 62
     0
 10
21.7261
 20
42.9327
 30
0.0
 11
21.7261
 21
39.8336
 31
0.0
  0
LINE
  8
0
 62
     0
 10
21.7261
 20
39.8336
 30
0.0
 11
22.5268
 21
39.8336
 31
0.0
  0
LINE
  8
0
 62
     0
 10
22.5268
 20
39.8336
 30
0.0
 11
22.5268
 21
39.2328
 31
0.0
  0
LINE
  8
0
 62
     0
 10
22.5268
 20
39.2328
 30
0.0
 11
21.0013
 21
39.2328
 31
0.0
  0
LINE
  8
0
 62
     0
 10
21.0013
 20
39.2328
 30
0.0
 11
21.0013
 21
42.4628
 31
0.0
  0
LINE
  8
0
 62
     0
 10
21.0013
 20
42.4628
 30
0.0
 11
19.276
 21
42.4628
 31
0.0
  0
LINE
  8
0
 62
     0
 10
19.276
 20
42.4628
 30
0.0
 11
19.276
 21
43.3821
 31
0.0
  0
LINE
  8
0
 62
     0
 10
19.276
 20
43.3821
 30
0.0
 11
15.977
 21
43.3821
 31
0.0
  0
LINE
  8
0
 62
     0
 10
15.977
 20
43.3821
 30
0.0
 11
15.977
 21
42.4628
 31
0.0
  0
LINE
  8
0
 62
     0
 10
15.977
 20
42.4628
 30
0.0
 11
14.2517
 21
42.4628
 31
0.0
  0
LINE
  8
0
 62
     0
 10
14.2517
 20
42.4628
 30
0.0
 11
14.2517
 21
39.2328
 31
0.0
  0
LINE
  8
0
 62
     0
 10
14.2517
 20
39.2328
 30
0.0
 11
13.4262
 21
39.2328
 31
0.0
  0
LINE
  8
0
 62
     0
 10
13.4262
 20
39.2328
 30
0.0
 11
13.4262
 21
36.4324
 31
0.0
  0
LINE
  8
0
 62
     0
 10
13.4262
 20
36.4324
 30
0.0
 11
14.2517
 21
36.4324
 31
0.0
  0
LINE
  8
0
 62
     0
 10
14.2517
 20
36.4324
 30
0.0
 11
14.2517
 21
30.1625
 31
0.0
  0
LINE
  8
0
 62
     0
 10
14.2517
 20
30.1625
 30
0.0
 11
15.977
 21
30.1625
 31
0.0
  0
LINE
  8
0
 62
     0
 10
15.977
 20
30.1625
 30
0.0
 11
15.977
 21
29.1827
 31
0.0
  0
LINE
  8
0
 62
     0
 10
15.977
 20
29.1827
 30
0.0
 11
19.276
 21
29.1827
 31
0.0
  0
LINE
  8
0
 62
     0
 10
19.276
 20
29.1827
 30
0.0
 11
19.276
 21
30.1625
 31
0.0
  0
LINE
  8
0
 62
     0
 10
19.276
 20
30.1625
 30
0.0
 11
21.0013
 21
30.1625
 31
0.0
  0
LINE
  8
0
 62
     0
 10
21.0013
 20
30.1625
 30
0.0
 11
21.0013
 21
34.6329
 31
0.0
  0
LINE
  8
0
 62
     0
 10
21.0013
 20
34.6329
 30
0.0
 11
22.5268
 21
34.6329
 31
0.0
  0
LINE
  8
0
 62
     0
 10
22.5268
 20
34.6329
 30
0.0
 11
22.5268
 21
34.0321
 31
0.0
  0
LINE
  8
0
 62
     0
 10
22.5268
 20
34.0321
 30
0.0
 11
21.7261
 21
34.0321
 31
0.0
  0
LINE
  8
0
 62
     0
 10
21.7261
 20
34.0321
 30
0.0
 11
21.7261
 21
30.9328
 31
0.0
  0
LINE
  8
0
 62
     0
 10
21.7261
 20
30.9328
 30
0.0
 11
22.5268
 21
30.9328
 31
0.0
  0
LINE
  8
0
 62
     0
 10
22.5268
 20
30.9328
 30
0.0
 11
22.5268
 21
29.9324
 31
0.0
  0
LINE
  8
0
 62
     0
 10
22.5268
 20
29.9324
 30
0.0
 11
36.5263
 21
29.9324
 31
0.0
  0
LINE
  8
0
 62
     0
 10
36.5263
 20
29.9324
 30
0.0
 11
36.5263
 21
30.9328
 31
0.0
  0
LINE
  8
0
 62
     0
 10
36.5263
 20
30.9328
 30
0.0
 11
37.3271
 21
30.9328
 31
0.0
  0
LINE
  8
0
 62
     0
 10
37.3271
 20
30.9328
 30
0.0
 11
37.3271
 21
34.0321
 31
0.0
  0
LINE
  8
0
 62
     0
 10
37.3271
 20
34.0321
 30
0.0
 11
36.5263
 21
34.0321
 31
0.0
  0
LINE
  8
0
 62
     0
 10
36.5263
 20
34.0321
 30
0.0
 11
36.5263
 21
34.6329
 31
0.0
  0
LINE
  8
0
 62
     0
 10
36.5263
 20
34.6329
 30
0.0
 11
38.0517
 21
34.6329
 31
0.0
  0
LINE
  8
0
 62
     0
 10
38.0517
 20
34.6329
 30
0.0
 11
38.0517
 21
30.1625
 31
0.0
  0
LINE
  8
0
 62
     0
 10
38.0517
 20
30.1625
 30
0.0
 11
39.7771
 21
30.1625
 31
0.0
  0
LINE
  8
0
 62
     0
 10
39.7771
 20
30.1625
 30
0.0
 11
39.7771
 21
29.1827
 31
0.0
  0
LINE
  8
0
 62
     0
 10
39.7771
 20
29.1827
 30
0.0
 11
43.0759
 21
29.1827
 31
0.0
  0
LINE
  8
0
 62
     0
 10
43.0759
 20
29.1827
 30
0.0
 11
43.0759
 21
30.1625
 31
0.0
  0
LINE
  8
0
 62
     0
 10
43.0759
 20
30.1625
 30
0.0
 11
44.8014
 21
30.1625
 31
0.0
  0
LINE
  8
0
 62
     0
 10
44.8014
 20
30.1625
 30
0.0
 11
44.8014
 21
36.4324
 31
0.0
  0
LINE
  8
0
 62
     0
 10
44.8014
 20
36.4324
 30
0.0
 11
45.6269
 21
36.4324
 31
0.0
  0
LINE
  8
0
 62
     0
 10
45.6269
 20
36.4324
 30
0.0
 11
45.6269
 21
39.2328
 31
0.0
  0
LINE
  8
0
 62
     0
 10
45.6269
 20
39.2328
 30
0.0
 11
44.8014
 21
39.2328
 31
0.0
  0
LINE
  8
0
 62
     0
 10
44.8014
 20
39.2328
 30
0.0
 11
44.8014
 21
42.4628
 31
0.0
  0
LINE
  8
0
 62
     0
 10
44.8014
 20
42.4628
 30
0.0
 11
43.0759
 21
42.4628
 31
0.0
  0
LINE
  8
0
 62
     0
 10
43.0759
 20
42.4628
 30
0.0
 11
43.0759
 21
43.3821
 31
0.0
  0
LINE
  8
0
 62
     0
 10
43.0759
 20
43.3821
 30
0.0
 11
39.7771
 21
43.3821
 31
0.0
  0
LINE
  8
0
 62
     0
 10
39.7771
 20
43.3821
 30
0.0
 11
39.7771
 21
42.4628
 31
0.0
  0
LINE
  8
0
 62
     0
 10
39.7771
 20
42.4628
 30
0.0
 11
38.0517
 21
42.4628
 31
0.0
  0
LINE
  8
0
 62
     0
 10
38.0517
 20
42.4628
 30
0.0
 11
38.0517
 21
39.2328
 31
0.0
  0
LINE
  8
0
 62
     0
 10
38.0517
 20
39.2328
 30
0.0
 11
36.5263
 21
39.2328
 31
0.0
  0
LINE
  8
0
 62
     0
 10
36.5263
 20
39.2328
 30
0.0
 11
36.5263
 21
39.8336
 31
0.0
  0
LINE
  8
0
 62
     0
 10
36.5263
 20
39.8336
 30
0.0
 11
37.3271
 21
39.8336
 31
0.0
  0
LINE
  8
0
 62
     0
 10
37.3271
 20
39.8336
 30
0.0
 11
37.3271
 21
42.9327
 31
0.0
  0
LINE
  8
0
 62
     0
 10
37.3271
 20
42.9327
 30
0.0
 11
36.5263
 21
42.9327
 31
0.0
  0
LINE
  8
0
 62
     0
 10
36.5263
 20
42.9327
 30
0.0
 11
36.5263
 21
43.9318
 31
0.0
  0
LINE
  8
0
 62
     0
 10
36.5263
 20
43.9318
 30
0.0
 11
22.5268
 21
43.9318
 31
0.0
  0
LINE
  8
0
 62
     0
 10
224.933
 20
43.9318
 30
0.0
 11
224.933
 21
42.9327
 31
0.0
  0
LINE
  8
0
 62
     0
 10
224.933
 20
42.9327
 30
0.0
 11
224.132
 21
42.9327
 31
0.0
  0
LINE
  8
0
 62
     0
 10
224.132
 20
42.9327
 30
0.0
 11
224.132
 21
39.8336
 31
0.0
  0
LINE
  8
0
 62
     0
 10
224.132
 20
39.8336
 30
0.0
 11
224.933
 21
39.8336
 31
0.0
  0
LINE
  8
0
 62
     0
 10
224.933
 20
39.8336
 30
0.0
 11
224.933
 21
34.0321
 31
0.0
  0
LINE
  8
0
 62
     0
 10
224.933
 20
34.0321
 30
0.0
 11
224.132
 21
34.0321
 31
0.0
  0
LINE
  8
0
 62
     0
 10
224.132
 20
34.0321
 30
0.0
 11
224.132
 21
30.9328
 31
0.0
  0
LINE
  8
0
 62
     0
 10
224.132
 20
30.9328
 30
0.0
 11
224.933
 21
30.9328
 31
0.0
  0
LINE
  8
0
 62
     0
 10
224.933
 20
30.9328
 30
0.0
 11
224.933
 21
29.9324
 31
0.0
  0
LINE
  8
0
 62
     0
 10
224.933
 20
29.9324
 30
0.0
 11
238.933
 21
29.9324
 31
0.0
  0
LINE
  8
0
 62
     0
 10
238.933
 20
29.9324
 30
0.0
 11
238.933
 21
30.9328
 31
0.0
  0
LINE
  8
0
 62
     0
 10
238.933
 20
30.9328
 30
0.0
 11
239.733
 21
30.9328
 31
0.0
  0
LINE
  8
0
 62
     0
 10
239.733
 20
30.9328
 30
0.0
 11
239.733
 21
34.0321
 31
0.0
  0
LINE
  8
0
 62
     0
 10
239.733
 20
34.0321
 30
0.0
 11
238.933
 21
34.0321
 31
0.0
  0
LINE
  8
0
 62
     0
 10
238.933
 20
34.0321
 30
0.0
 11
238.933
 21
39.8336
 31
0.0
  0
LINE
  8
0
 62
     0
 10
238.933
 20
39.8336
 30
0.0
 11
239.733
 21
39.8336
 31
0.0
  0
LINE
  8
0
 62
     0
 10
239.733
 20
39.8336
 30
0.0
 11
239.733
 21
42.9327
 31
0.0
  0
LINE
  8
0
 62
     0
 10
239.733
 20
42.9327
 30
0.0
 11
238.933
 21
42.9327
 31
0.0
  0
LINE
  8
0
 62
     0
 10
238.933
 20
42.9327
 30
0.0
 11
238.933
 21
43.9318
 31
0.0
  0
LINE
  8
0
 62
     0
 10
238.933
 20
43.9318
 30
0.0
 11
224.933
 21
43.9318
 31
0.0
  0
LINE
  8
0
 62
     0
 10
205.883
 20
43.9318
 30
0.0
 11
205.883
 21
42.9327
 31
0.0
  0
LINE
  8
0
 62
     0
 10
205.883
 20
42.9327
 30
0.0
 11
205.082
 21
42.9327
 31
0.0
  0
LINE
  8
0
 62
     0
 10
205.082
 20
42.9327
 30
0.0
 11
205.082
 21
39.8336
 31
0.0
  0
LINE
  8
0
 62
     0
 10
205.082
 20
39.8336
 30
0.0
 11
205.883
 21
39.8336
 31
0.0
  0
LINE
  8
0
 62
     0
 10
205.883
 20
39.8336
 30
0.0
 11
205.883
 21
34.0321
 31
0.0
  0
LINE
  8
0
 62
     0
 10
205.883
 20
34.0321
 30
0.0
 11
205.082
 21
34.0321
 31
0.0
  0
LINE
  8
0
 62
     0
 10
205.082
 20
34.0321
 30
0.0
 11
205.082
 21
30.9328
 31
0.0
  0
LINE
  8
0
 62
     0
 10
205.082
 20
30.9328
 30
0.0
 11
205.883
 21
30.9328
 31
0.0
  0
LINE
  8
0
 62
     0
 10
205.883
 20
30.9328
 30
0.0
 11
205.883
 21
29.9324
 31
0.0
  0
LINE
  8
0
 62
     0
 10
205.883
 20
29.9324
 30
0.0
 11
219.883
 21
29.9324
 31
0.0
  0
LINE
  8
0
 62
     0
 10
219.883
 20
29.9324
 30
0.0
 11
219.883
 21
30.9328
 31
0.0
  0
LINE
  8
0
 62
     0
 10
219.883
 20
30.9328
 30
0.0
 11
220.683
 21
30.9328
 31
0.0
  0
LINE
  8
0
 62
     0
 10
220.683
 20
30.9328
 30
0.0
 11
220.683
 21
34.0321
 31
0.0
  0
LINE
  8
0
 62
     0
 10
220.683
 20
34.0321
 30
0.0
 11
219.883
 21
34.0321
 31
0.0
  0
LINE
  8
0
 62
     0
 10
219.883
 20
34.0321
 30
0.0
 11
219.883
 21
39.8336
 31
0.0
  0
LINE
  8
0
 62
     0
 10
219.883
 20
39.8336
 30
0.0
 11
220.683
 21
39.8336
 31
0.0
  0
LINE
  8
0
 62
     0
 10
220.683
 20
39.8336
 30
0.0
 11
220.683
 21
42.9327
 31
0.0
  0
LINE
  8
0
 62
     0
 10
220.683
 20
42.9327
 30
0.0
 11
219.883
 21
42.9327
 31
0.0
  0
LINE
  8
0
 62
     0
 10
219.883
 20
42.9327
 30
0.0
 11
219.883
 21
43.9318
 31
0.0
  0
LINE
  8
0
 62
     0
 10
219.883
 20
43.9318
 30
0.0
 11
205.883
 21
43.9318
 31
0.0
  0
LINE
  8
0
 62
     0
 10
186.833
 20
43.9318
 30
0.0
 11
186.833
 21
42.9327
 31
0.0
  0
LINE
  8
0
 62
     0
 10
186.833
 20
42.9327
 30
0.0
 11
186.032
 21
42.9327
 31
0.0
  0
LINE
  8
0
 62
     0
 10
186.032
 20
42.9327
 30
0.0
 11
186.032
 21
39.8336
 31
0.0
  0
LINE
  8
0
 62
     0
 10
186.032
 20
39.8336
 30
0.0
 11
186.833
 21
39.8336
 31
0.0
  0
LINE
  8
0
 62
     0
 10
186.833
 20
39.8336
 30
0.0
 11
186.833
 21
34.0321
 31
0.0
  0
LINE
  8
0
 62
     0
 10
186.833
 20
34.0321
 30
0.0
 11
186.032
 21
34.0321
 31
0.0
  0
LINE
  8
0
 62
     0
 10
186.032
 20
34.0321
 30
0.0
 11
186.032
 21
30.9328
 31
0.0
  0
LINE
  8
0
 62
     0
 10
186.032
 20
30.9328
 30
0.0
 11
186.833
 21
30.9328
 31
0.0
  0
LINE
  8
0
 62
     0
 10
186.833
 20
30.9328
 30
0.0
 11
186.833
 21
29.9324
 31
0.0
  0
LINE
  8
0
 62
     0
 10
186.833
 20
29.9324
 30
0.0
 11
200.833
 21
29.9324
 31
0.0
  0
LINE
  8
0
 62
     0
 10
200.833
 20
29.9324
 30
0.0
 11
200.833
 21
30.9328
 31
0.0
  0
LINE
  8
0
 62
     0
 10
200.833
 20
30.9328
 30
0.0
 11
201.633
 21
30.9328
 31
0.0
  0
LINE
  8
0
 62
     0
 10
201.633
 20
30.9328
 30
0.0
 11
201.633
 21
34.0321
 31
0.0
  0
LINE
  8
0
 62
     0
 10
201.633
 20
34.0321
 30
0.0
 11
200.833
 21
34.0321
 31
0.0
  0
LINE
  8
0
 62
     0
 10
200.833
 20
34.0321
 30
0.0
 11
200.833
 21
39.8336
 31
0.0
  0
LINE
  8
0
 62
     0
 10
200.833
 20
39.8336
 30
0.0
 11
201.633
 21
39.8336
 31
0.0
  0
LINE
  8
0
 62
     0
 10
201.633
 20
39.8336
 30
0.0
 11
201.633
 21
42.9327
 31
0.0
  0
LINE
  8
0
 62
     0
 10
201.633
 20
42.9327
 30
0.0
 11
200.833
 21
42.9327
 31
0.0
  0
LINE
  8
0
 62
     0
 10
200.833
 20
42.9327
 30
0.0
 11
200.833
 21
43.9318
 31
0.0
  0
LINE
  8
0
 62
     0
 10
200.833
 20
43.9318
 30
0.0
 11
186.833
 21
43.9318
 31
0.0
  0
LINE
  8
0
 62
     0
 10
167.783
 20
43.9318
 30
0.0
 11
167.783
 21
42.9327
 31
0.0
  0
LINE
  8
0
 62
     0
 10
167.783
 20
42.9327
 30
0.0
 11
166.982
 21
42.9327
 31
0.0
  0
LINE
  8
0
 62
     0
 10
166.982
 20
42.9327
 30
0.0
 11
166.982
 21
39.8336
 31
0.0
  0
LINE
  8
0
 62
     0
 10
166.982
 20
39.8336
 30
0.0
 11
167.783
 21
39.8336
 31
0.0
  0
LINE
  8
0
 62
     0
 10
167.783
 20
39.8336
 30
0.0
 11
167.783
 21
34.0321
 31
0.0
  0
LINE
  8
0
 62
     0
 10
167.783
 20
34.0321
 30
0.0
 11
166.982
 21
34.0321
 31
0.0
  0
LINE
  8
0
 62
     0
 10
166.982
 20
34.0321
 30
0.0
 11
166.982
 21
30.9328
 31
0.0
  0
LINE
  8
0
 62
     0
 10
166.982
 20
30.9328
 30
0.0
 11
167.783
 21
30.9328
 31
0.0
  0
LINE
  8
0
 62
     0
 10
167.783
 20
30.9328
 30
0.0
 11
167.783
 21
29.9324
 31
0.0
  0
LINE
  8
0
 62
     0
 10
167.783
 20
29.9324
 30
0.0
 11
181.783
 21
29.9324
 31
0.0
  0
LINE
  8
0
 62
     0
 10
181.783
 20
29.9324
 30
0.0
 11
181.783
 21
30.9328
 31
0.0
  0
LINE
  8
0
 62
     0
 10
181.783
 20
30.9328
 30
0.0
 11
182.583
 21
30.9328
 31
0.0
  0
LINE
  8
0
 62
     0
 10
182.583
 20
30.9328
 30
0.0
 11
182.583
 21
34.0321
 31
0.0
  0
LINE
  8
0
 62
     0
 10
182.583
 20
34.0321
 30
0.0
 11
181.783
 21
34.0321
 31
0.0
  0
LINE
  8
0
 62
     0
 10
181.783
 20
34.0321
 30
0.0
 11
181.783
 21
39.8336
 31
0.0
  0
LINE
  8
0
 62
     0
 10
181.783
 20
39.8336
 30
0.0
 11
182.583
 21
39.8336
 31
0.0
  0
LINE
  8
0
 62
     0
 10
182.583
 20
39.8336
 30
0.0
 11
182.583
 21
42.9327
 31
0.0
  0
LINE
  8
0
 62
     0
 10
182.583
 20
42.9327
 30
0.0
 11
181.783
 21
42.9327
 31
0.0
  0
LINE
  8
0
 62
     0
 10
181.783
 20
42.9327
 30
0.0
 11
181.783
 21
43.9318
 31
0.0
  0
LINE
  8
0
 62
     0
 10
181.783
 20
43.9318
 30
0.0
 11
167.783
 21
43.9318
 31
0.0
  0
LINE
  8
0
 62
     0
 10
148.733
 20
43.9318
 30
0.0
 11
148.733
 21
42.9327
 31
0.0
  0
LINE
  8
0
 62
     0
 10
148.733
 20
42.9327
 30
0.0
 11
147.932
 21
42.9327
 31
0.0
  0
LINE
  8
0
 62
     0
 10
147.932
 20
42.9327
 30
0.0
 11
147.932
 21
39.8336
 31
0.0
  0
LINE
  8
0
 62
     0
 10
147.932
 20
39.8336
 30
0.0
 11
148.733
 21
39.8336
 31
0.0
  0
LINE
  8
0
 62
     0
 10
148.733
 20
39.8336
 30
0.0
 11
148.733
 21
34.0321
 31
0.0
  0
LINE
  8
0
 62
     0
 10
148.733
 20
34.0321
 30
0.0
 11
147.932
 21
34.0321
 31
0.0
  0
LINE
  8
0
 62
     0
 10
147.932
 20
34.0321
 30
0.0
 11
147.932
 21
30.9328
 31
0.0
  0
LINE
  8
0
 62
     0
 10
147.932
 20
30.9328
 30
0.0
 11
148.733
 21
30.9328
 31
0.0
  0
LINE
  8
0
 62
     0
 10
148.733
 20
30.9328
 30
0.0
 11
148.733
 21
29.9324
 31
0.0
  0
LINE
  8
0
 62
     0
 10
148.733
 20
29.9324
 30
0.0
 11
162.733
 21
29.9324
 31
0.0
  0
LINE
  8
0
 62
     0
 10
162.733
 20
29.9324
 30
0.0
 11
162.733
 21
30.9328
 31
0.0
  0
LINE
  8
0
 62
     0
 10
162.733
 20
30.9328
 30
0.0
 11
163.533
 21
30.9328
 31
0.0
  0
LINE
  8
0
 62
     0
 10
163.533
 20
30.9328
 30
0.0
 11
163.533
 21
34.0321
 31
0.0
  0
LINE
  8
0
 62
     0
 10
163.533
 20
34.0321
 30
0.0
 11
162.733
 21
34.0321
 31
0.0
  0
LINE
  8
0
 62
     0
 10
162.733
 20
34.0321
 30
0.0
 11
162.733
 21
39.8336
 31
0.0
  0
LINE
  8
0
 62
     0
 10
162.733
 20
39.8336
 30
0.0
 11
163.533
 21
39.8336
 31
0.0
  0
LINE
  8
0
 62
     0
 10
163.533
 20
39.8336
 30
0.0
 11
163.533
 21
42.9327
 31
0.0
  0
LINE
  8
0
 62
     0
 10
163.533
 20
42.9327
 30
0.0
 11
162.733
 21
42.9327
 31
0.0
  0
LINE
  8
0
 62
     0
 10
162.733
 20
42.9327
 30
0.0
 11
162.733
 21
43.9318
 31
0.0
  0
LINE
  8
0
 62
     0
 10
162.733
 20
43.9318
 30
0.0
 11
148.733
 21
43.9318
 31
0.0
  0
LINE
  8
0
 62
     0
 10
129.683
 20
43.9318
 30
0.0
 11
129.683
 21
42.9327
 31
0.0
  0
LINE
  8
0
 62
     0
 10
129.683
 20
42.9327
 30
0.0
 11
128.882
 21
42.9327
 31
0.0
  0
LINE
  8
0
 62
     0
 10
128.882
 20
42.9327
 30
0.0
 11
128.882
 21
39.8336
 31
0.0
  0
LINE
  8
0
 62
     0
 10
128.882
 20
39.8336
 30
0.0
 11
129.683
 21
39.8336
 31
0.0
  0
LINE
  8
0
 62
     0
 10
129.683
 20
39.8336
 30
0.0
 11
129.683
 21
34.0321
 31
0.0
  0
LINE
  8
0
 62
     0
 10
129.683
 20
34.0321
 30
0.0
 11
128.882
 21
34.0321
 31
0.0
  0
LINE
  8
0
 62
     0
 10
128.882
 20
34.0321
 30
0.0
 11
128.882
 21
30.9328
 31
0.0
  0
LINE
  8
0
 62
     0
 10
128.882
 20
30.9328
 30
0.0
 11
129.683
 21
30.9328
 31
0.0
  0
LINE
  8
0
 62
     0
 10
129.683
 20
30.9328
 30
0.0
 11
129.683
 21
29.9324
 31
0.0
  0
LINE
  8
0
 62
     0
 10
129.683
 20
29.9324
 30
0.0
 11
143.683
 21
29.9324
 31
0.0
  0
LINE
  8
0
 62
     0
 10
143.683
 20
29.9324
 30
0.0
 11
143.683
 21
30.9328
 31
0.0
  0
LINE
  8
0
 62
     0
 10
143.683
 20
30.9328
 30
0.0
 11
144.483
 21
30.9328
 31
0.0
  0
LINE
  8
0
 62
     0
 10
144.483
 20
30.9328
 30
0.0
 11
144.483
 21
34.0321
 31
0.0
  0
LINE
  8
0
 62
     0
 10
144.483
 20
34.0321
 30
0.0
 11
143.683
 21
34.0321
 31
0.0
  0
LINE
  8
0
 62
     0
 10
143.683
 20
34.0321
 30
0.0
 11
143.683
 21
39.8336
 31
0.0
  0
LINE
  8
0
 62
     0
 10
143.683
 20
39.8336
 30
0.0
 11
144.483
 21
39.8336
 31
0.0
  0
LINE
  8
0
 62
     0
 10
144.483
 20
39.8336
 30
0.0
 11
144.483
 21
42.9327
 31
0.0
  0
LINE
  8
0
 62
     0
 10
144.483
 20
42.9327
 30
0.0
 11
143.683
 21
42.9327
 31
0.0
  0
LINE
  8
0
 62
     0
 10
143.683
 20
42.9327
 30
0.0
 11
143.683
 21
43.9318
 31
0.0
  0
LINE
  8
0
 62
     0
 10
143.683
 20
43.9318
 30
0.0
 11
129.683
 21
43.9318
 31
0.0
  0
LINE
  8
0
 62
     0
 10
110.633
 20
43.9318
 30
0.0
 11
110.633
 21
42.9327
 31
0.0
  0
LINE
  8
0
 62
     0
 10
110.633
 20
42.9327
 30
0.0
 11
109.832
 21
42.9327
 31
0.0
  0
LINE
  8
0
 62
     0
 10
109.832
 20
42.9327
 30
0.0
 11
109.832
 21
39.8336
 31
0.0
  0
LINE
  8
0
 62
     0
 10
109.832
 20
39.8336
 30
0.0
 11
110.633
 21
39.8336
 31
0.0
  0
LINE
  8
0
 62
     0
 10
110.633
 20
39.8336
 30
0.0
 11
110.633
 21
34.0321
 31
0.0
  0
LINE
  8
0
 62
     0
 10
110.633
 20
34.0321
 30
0.0
 11
109.832
 21
34.0321
 31
0.0
  0
LINE
  8
0
 62
     0
 10
109.832
 20
34.0321
 30
0.0
 11
109.832
 21
30.9328
 31
0.0
  0
LINE
  8
0
 62
     0
 10
109.832
 20
30.9328
 30
0.0
 11
110.633
 21
30.9328
 31
0.0
  0
LINE
  8
0
 62
     0
 10
110.633
 20
30.9328
 30
0.0
 11
110.633
 21
29.9324
 31
0.0
  0
LINE
  8
0
 62
     0
 10
110.633
 20
29.9324
 30
0.0
 11
124.633
 21
29.9324
 31
0.0
  0
LINE
  8
0
 62
     0
 10
124.633
 20
29.9324
 30
0.0
 11
124.633
 21
30.9328
 31
0.0
  0
LINE
  8
0
 62
     0
 10
124.633
 20
30.9328
 30
0.0
 11
125.432
 21
30.9328
 31
0.0
  0
LINE
  8
0
 62
     0
 10
125.432
 20
30.9328
 30
0.0
 11
125.432
 21
34.0321
 31
0.0
  0
LINE
  8
0
 62
     0
 10
125.432
 20
34.0321
 30
0.0
 11
124.633
 21
34.0321
 31
0.0
  0
LINE
  8
0
 62
     0
 10
124.633
 20
34.0321
 30
0.0
 11
124.633
 21
39.8336
 31
0.0
  0
LINE
  8
0
 62
     0
 10
124.633
 20
39.8336
 30
0.0
 11
125.432
 21
39.8336
 31
0.0
  0
LINE
  8
0
 62
     0
 10
125.432
 20
39.8336
 30
0.0
 11
125.432
 21
42.9327
 31
0.0
  0
LINE
  8
0
 62
     0
 10
125.432
 20
42.9327
 30
0.0
 11
124.633
 21
42.9327
 31
0.0
  0
LINE
  8
0
 62
     0
 10
124.633
 20
42.9327
 30
0.0
 11
124.633
 21
43.9318
 31
0.0
  0
LINE
  8
0
 62
     0
 10
124.633
 20
43.9318
 30
0.0
 11
110.633
 21
43.9318
 31
0.0
  0
LINE
  8
0
 62
     0
 10
91.5829
 20
43.9318
 30
0.0
 11
91.5829
 21
42.9327
 31
0.0
  0
LINE
  8
0
 62
     0
 10
91.5829
 20
42.9327
 30
0.0
 11
90.7824
 21
42.9327
 31
0.0
  0
LINE
  8
0
 62
     0
 10
90.7824
 20
42.9327
 30
0.0
 11
90.7824
 21
39.8336
 31
0.0
  0
LINE
  8
0
 62
     0
 10
90.7824
 20
39.8336
 30
0.0
 11
91.5829
 21
39.8336
 31
0.0
  0
LINE
  8
0
 62
     0
 10
91.5829
 20
39.8336
 30
0.0
 11
91.5829
 21
34.0321
 31
0.0
  0
LINE
  8
0
 62
     0
 10
91.5829
 20
34.0321
 30
0.0
 11
90.7824
 21
34.0321
 31
0.0
  0
LINE
  8
0
 62
     0
 10
90.7824
 20
34.0321
 30
0.0
 11
90.7824
 21
30.9328
 31
0.0
  0
LINE
  8
0
 62
     0
 10
90.7824
 20
30.9328
 30
0.0
 11
91.5829
 21
30.9328
 31
0.0
  0
LINE
  8
0
 62
     0
 10
91.5829
 20
30.9328
 30
0.0
 11
91.5829
 21
29.9324
 31
0.0
  0
LINE
  8
0
 62
     0
 10
91.5829
 20
29.9324
 30
0.0
 11
105.583
 21
29.9324
 31
0.0
  0
LINE
  8
0
 62
     0
 10
105.583
 20
29.9324
 30
0.0
 11
105.583
 21
30.9328
 31
0.0
  0
LINE
  8
0
 62
     0
 10
105.583
 20
30.9328
 30
0.0
 11
106.383
 21
30.9328
 31
0.0
  0
LINE
  8
0
 62
     0
 10
106.383
 20
30.9328
 30
0.0
 11
106.383
 21
34.0321
 31
0.0
  0
LINE
  8
0
 62
     0
 10
106.383
 20
34.0321
 30
0.0
 11
105.583
 21
34.0321
 31
0.0
  0
LINE
  8
0
 62
     0
 10
105.583
 20
34.0321
 30
0.0
 11
105.583
 21
39.8336
 31
0.0
  0
LINE
  8
0
 62
     0
 10
105.583
 20
39.8336
 30
0.0
 11
106.383
 21
39.8336
 31
0.0
  0
LINE
  8
0
 62
     0
 10
106.383
 20
39.8336
 30
0.0
 11
106.383
 21
42.9327
 31
0.0
  0
LINE
  8
0
 62
     0
 10
106.383
 20
42.9327
 30
0.0
 11
105.583
 21
42.9327
 31
0.0
  0
LINE
  8
0
 62
     0
 10
105.583
 20
42.9327
 30
0.0
 11
105.583
 21
43.9318
 31
0.0
  0
LINE
  8
0
 62
     0
 10
105.583
 20
43.9318
 30
0.0
 11
91.5829
 21
43.9318
 31
0.0
  0
LINE
  8
0
 62
     0
 10
72.5329
 20
43.9318
 30
0.0
 11
72.5329
 21
42.9327
 31
0.0
  0
LINE
  8
0
 62
     0
 10
72.5329
 20
42.9327
 30
0.0
 11
71.7324
 21
42.9327
 31
0.0
  0
LINE
  8
0
 62
     0
 10
71.7324
 20
42.9327
 30
0.0
 11
71.7324
 21
39.8336
 31
0.0
  0
LINE
  8
0
 62
     0
 10
71.7324
 20
39.8336
 30
0.0
 11
72.5329
 21
39.8336
 31
0.0
  0
LINE
  8
0
 62
     0
 10
72.5329
 20
39.8336
 30
0.0
 11
72.5329
 21
34.0321
 31
0.0
  0
LINE
  8
0
 62
     0
 10
72.5329
 20
34.0321
 30
0.0
 11
71.7324
 21
34.0321
 31
0.0
  0
LINE
  8
0
 62
     0
 10
71.7324
 20
34.0321
 30
0.0
 11
71.7324
 21
30.9328
 31
0.0
  0
LINE
  8
0
 62
     0
 10
71.7324
 20
30.9328
 30
0.0
 11
72.5329
 21
30.9328
 31
0.0
  0
LINE
  8
0
 62
     0
 10
72.5329
 20
30.9328
 30
0.0
 11
72.5329
 21
29.9324
 31
0.0
  0
LINE
  8
0
 62
     0
 10
72.5329
 20
29.9324
 30
0.0
 11
86.5325
 21
29.9324
 31
0.0
  0
LINE
  8
0
 62
     0
 10
86.5325
 20
29.9324
 30
0.0
 11
86.5325
 21
30.9328
 31
0.0
  0
LINE
  8
0
 62
     0
 10
86.5325
 20
30.9328
 30
0.0
 11
87.3333
 21
30.9328
 31
0.0
  0
LINE
  8
0
 62
     0
 10
87.3333
 20
30.9328
 30
0.0
 11
87.3333
 21
34.0321
 31
0.0
  0
LINE
  8
0
 62
     0
 10
87.3333
 20
34.0321
 30
0.0
 11
86.5325
 21
34.0321
 31
0.0
  0
LINE
  8
0
 62
     0
 10
86.5325
 20
34.0321
 30
0.0
 11
86.5325
 21
39.8336
 31
0.0
  0
LINE
  8
0
 62
     0
 10
86.5325
 20
39.8336
 30
0.0
 11
87.3333
 21
39.8336
 31
0.0
  0
LINE
  8
0
 62
     0
 10
87.3333
 20
39.8336
 30
0.0
 11
87.3333
 21
42.9327
 31
0.0
  0
LINE
  8
0
 62
     0
 10
87.3333
 20
42.9327
 30
0.0
 11
86.5325
 21
42.9327
 31
0.0
  0
LINE
  8
0
 62
     0
 10
86.5325
 20
42.9327
 30
0.0
 11
86.5325
 21
43.9318
 31
0.0
  0
LINE
  8
0
 62
     0
 10
86.5325
 20
43.9318
 30
0.0
 11
72.5329
 21
43.9318
 31
0.0
  0
LINE
  8
0
 62
     0
 10
53.4829
 20
43.9318
 30
0.0
 11
53.4829
 21
42.9327
 31
0.0
  0
LINE
  8
0
 62
     0
 10
53.4829
 20
42.9327
 30
0.0
 11
52.6824
 21
42.9327
 31
0.0
  0
LINE
  8
0
 62
     0
 10
52.6824
 20
42.9327
 30
0.0
 11
52.6824
 21
39.8336
 31
0.0
  0
LINE
  8
0
 62
     0
 10
52.6824
 20
39.8336
 30
0.0
 11
53.4829
 21
39.8336
 31
0.0
  0
LINE
  8
0
 62
     0
 10
53.4829
 20
39.8336
 30
0.0
 11
53.4829
 21
34.0321
 31
0.0
  0
LINE
  8
0
 62
     0
 10
53.4829
 20
34.0321
 30
0.0
 11
52.6824
 21
34.0321
 31
0.0
  0
LINE
  8
0
 62
     0
 10
52.6824
 20
34.0321
 30
0.0
 11
52.6824
 21
30.9328
 31
0.0
  0
LINE
  8
0
 62
     0
 10
52.6824
 20
30.9328
 30
0.0
 11
53.4829
 21
30.9328
 31
0.0
  0
LINE
  8
0
 62
     0
 10
53.4829
 20
30.9328
 30
0.0
 11
53.4829
 21
29.9324
 31
0.0
  0
LINE
  8
0
 62
     0
 10
53.4829
 20
29.9324
 30
0.0
 11
67.4825
 21
29.9324
 31
0.0
  0
LINE
  8
0
 62
     0
 10
67.4825
 20
29.9324
 30
0.0
 11
67.4825
 21
30.9328
 31
0.0
  0
LINE
  8
0
 62
     0
 10
67.4825
 20
30.9328
 30
0.0
 11
68.2833
 21
30.9328
 31
0.0
  0
LINE
  8
0
 62
     0
 10
68.2833
 20
30.9328
 30
0.0
 11
68.2833
 21
34.0321
 31
0.0
  0
LINE
  8
0
 62
     0
 10
68.2833
 20
34.0321
 30
0.0
 11
67.4825
 21
34.0321
 31
0.0
  0
LINE
  8
0
 62
     0
 10
67.4825
 20
34.0321
 30
0.0
 11
67.4825
 21
39.8336
 31
0.0
  0
LINE
  8
0
 62
     0
 10
67.4825
 20
39.8336
 30
0.0
 11
68.2833
 21
39.8336
 31
0.0
  0
LINE
  8
0
 62
     0
 10
68.2833
 20
39.8336
 30
0.0
 11
68.2833
 21
42.9327
 31
0.0
  0
LINE
  8
0
 62
     0
 10
68.2833
 20
42.9327
 30
0.0
 11
67.4825
 21
42.9327
 31
0.0
  0
LINE
  8
0
 62
     0
 10
67.4825
 20
42.9327
 30
0.0
 11
67.4825
 21
43.9318
 31
0.0
  0
LINE
  8
0
 62
     0
 10
67.4825
 20
43.9318
 30
0.0
 11
53.4829
 21
43.9318
 31
0.0
  0
LINE
  8
0
 62
     0
 10
265.413
 20
62.9818
 30
0.0
 11
265.413
 21
61.9827
 31
0.0
  0
LINE
  8
0
 62
     0
 10
265.413
 20
61.9827
 30
0.0
 11
264.614
 21
61.9827
 31
0.0
  0
LINE
  8
0
 62
     0
 10
264.614
 20
61.9827
 30
0.0
 11
264.614
 21
58.8821
 31
0.0
  0
LINE
  8
0
 62
     0
 10
264.614
 20
58.8821
 30
0.0
 11
265.413
 21
58.8821
 31
0.0
  0
LINE
  8
0
 62
     0
 10
265.413
 20
58.8821
 30
0.0
 11
265.413
 21
58.2828
 31
0.0
  0
LINE
  8
0
 62
     0
 10
265.413
 20
58.2828
 30
0.0
 11
263.889
 21
58.2828
 31
0.0
  0
LINE
  8
0
 62
     0
 10
263.889
 20
58.2828
 30
0.0
 11
263.889
 21
61.5128
 31
0.0
  0
LINE
  8
0
 62
     0
 10
263.889
 20
61.5128
 30
0.0
 11
262.164
 21
61.5128
 31
0.0
  0
LINE
  8
0
 62
     0
 10
262.164
 20
61.5128
 30
0.0
 11
262.164
 21
62.4321
 31
0.0
  0
LINE
  8
0
 62
     0
 10
262.164
 20
62.4321
 30
0.0
 11
258.863
 21
62.4321
 31
0.0
  0
LINE
  8
0
 62
     0
 10
258.863
 20
62.4321
 30
0.0
 11
258.863
 21
61.5128
 31
0.0
  0
LINE
  8
0
 62
     0
 10
258.863
 20
61.5128
 30
0.0
 11
257.139
 21
61.5128
 31
0.0
  0
LINE
  8
0
 62
     0
 10
257.139
 20
61.5128
 30
0.0
 11
257.139
 21
58.2828
 31
0.0
  0
LINE
  8
0
 62
     0
 10
257.139
 20
58.2828
 30
0.0
 11
256.314
 21
58.2828
 31
0.0
  0
LINE
  8
0
 62
     0
 10
256.314
 20
58.2828
 30
0.0
 11
256.314
 21
55.4824
 31
0.0
  0
LINE
  8
0
 62
     0
 10
256.314
 20
55.4824
 30
0.0
 11
257.139
 21
55.4824
 31
0.0
  0
LINE
  8
0
 62
     0
 10
257.139
 20
55.4824
 30
0.0
 11
257.139
 21
49.2125
 31
0.0
  0
LINE
  8
0
 62
     0
 10
257.139
 20
49.2125
 30
0.0
 11
258.863
 21
49.2125
 31
0.0
  0
LINE
  8
0
 62
     0
 10
258.863
 20
49.2125
 30
0.0
 11
258.863
 21
48.2328
 31
0.0
  0
LINE
  8
0
 62
     0
 10
258.863
 20
48.2328
 30
0.0
 11
262.164
 21
48.2328
 31
0.0
  0
LINE
  8
0
 62
     0
 10
262.164
 20
48.2328
 30
0.0
 11
262.164
 21
49.2125
 31
0.0
  0
LINE
  8
0
 62
     0
 10
262.164
 20
49.2125
 30
0.0
 11
263.889
 21
49.2125
 31
0.0
  0
LINE
  8
0
 62
     0
 10
263.889
 20
49.2125
 30
0.0
 11
263.889
 21
53.6829
 31
0.0
  0
LINE
  8
0
 62
     0
 10
263.889
 20
53.6829
 30
0.0
 11
265.413
 21
53.6829
 31
0.0
  0
LINE
  8
0
 62
     0
 10
265.413
 20
53.6829
 30
0.0
 11
265.413
 21
53.0821
 31
0.0
  0
LINE
  8
0
 62
     0
 10
265.413
 20
53.0821
 30
0.0
 11
264.614
 21
53.0821
 31
0.0
  0
LINE
  8
0
 62
     0
 10
264.614
 20
53.0821
 30
0.0
 11
264.614
 21
49.983
 31
0.0
  0
LINE
  8
0
 62
     0
 10
264.614
 20
49.983
 30
0.0
 11
265.413
 21
49.983
 31
0.0
  0
LINE
  8
0
 62
     0
 10
265.413
 20
49.983
 30
0.0
 11
265.413
 21
48.9825
 31
0.0
  0
LINE
  8
0
 62
     0
 10
265.413
 20
48.9825
 30
0.0
 11
279.414
 21
48.9825
 31
0.0
  0
LINE
  8
0
 62
     0
 10
279.414
 20
48.9825
 30
0.0
 11
279.414
 21
49.983
 31
0.0
  0
LINE
  8
0
 62
     0
 10
279.414
 20
49.983
 30
0.0
 11
280.213
 21
49.983
 31
0.0
  0
LINE
  8
0
 62
     0
 10
280.213
 20
49.983
 30
0.0
 11
280.213
 21
53.0821
 31
0.0
  0
LINE
  8
0
 62
     0
 10
280.213
 20
53.0821
 30
0.0
 11
279.414
 21
53.0821
 31
0.0
  0
LINE
  8
0
 62
     0
 10
279.414
 20
53.0821
 30
0.0
 11
279.414
 21
53.6829
 31
0.0
  0
LINE
  8
0
 62
     0
 10
279.414
 20
53.6829
 30
0.0
 11
280.938
 21
53.6829
 31
0.0
  0
LINE
  8
0
 62
     0
 10
280.938
 20
53.6829
 30
0.0
 11
280.938
 21
49.2125
 31
0.0
  0
LINE
  8
0
 62
     0
 10
280.938
 20
49.2125
 30
0.0
 11
282.663
 21
49.2125
 31
0.0
  0
LINE
  8
0
 62
     0
 10
282.663
 20
49.2125
 30
0.0
 11
282.663
 21
48.2328
 31
0.0
  0
LINE
  8
0
 62
     0
 10
282.663
 20
48.2328
 30
0.0
 11
285.963
 21
48.2328
 31
0.0
  0
LINE
  8
0
 62
     0
 10
285.963
 20
48.2328
 30
0.0
 11
285.963
 21
49.2125
 31
0.0
  0
LINE
  8
0
 62
     0
 10
285.963
 20
49.2125
 30
0.0
 11
287.689
 21
49.2125
 31
0.0
  0
LINE
  8
0
 62
     0
 10
287.689
 20
49.2125
 30
0.0
 11
287.689
 21
55.4824
 31
0.0
  0
LINE
  8
0
 62
     0
 10
287.689
 20
55.4824
 30
0.0
 11
288.513
 21
55.4824
 31
0.0
  0
LINE
  8
0
 62
     0
 10
288.513
 20
55.4824
 30
0.0
 11
288.513
 21
58.2828
 31
0.0
  0
LINE
  8
0
 62
     0
 10
288.513
 20
58.2828
 30
0.0
 11
287.689
 21
58.2828
 31
0.0
  0
LINE
  8
0
 62
     0
 10
287.689
 20
58.2828
 30
0.0
 11
287.689
 21
61.5128
 31
0.0
  0
LINE
  8
0
 62
     0
 10
287.689
 20
61.5128
 30
0.0
 11
285.963
 21
61.5128
 31
0.0
  0
LINE
  8
0
 62
     0
 10
285.963
 20
61.5128
 30
0.0
 11
285.963
 21
62.4321
 31
0.0
  0
LINE
  8
0
 62
     0
 10
285.963
 20
62.4321
 30
0.0
 11
282.663
 21
62.4321
 31
0.0
  0
LINE
  8
0
 62
     0
 10
282.663
 20
62.4321
 30
0.0
 11
282.663
 21
61.5128
 31
0.0
  0
LINE
  8
0
 62
     0
 10
282.663
 20
61.5128
 30
0.0
 11
280.938
 21
61.5128
 31
0.0
  0
LINE
  8
0
 62
     0
 10
280.938
 20
61.5128
 30
0.0
 11
280.938
 21
58.2828
 31
0.0
  0
LINE
  8
0
 62
     0
 10
280.938
 20
58.2828
 30
0.0
 11
279.414
 21
58.2828
 31
0.0
  0
LINE
  8
0
 62
     0
 10
279.414
 20
58.2828
 30
0.0
 11
279.414
 21
58.8821
 31
0.0
  0
LINE
  8
0
 62
     0
 10
279.414
 20
58.8821
 30
0.0
 11
280.213
 21
58.8821
 31
0.0
  0
LINE
  8
0
 62
     0
 10
280.213
 20
58.8821
 30
0.0
 11
280.213
 21
61.9827
 31
0.0
  0
LINE
  8
0
 62
     0
 10
280.213
 20
61.9827
 30
0.0
 11
279.414
 21
61.9827
 31
0.0
  0
LINE
  8
0
 62
     0
 10
279.414
 20
61.9827
 30
0.0
 11
279.414
 21
62.9818
 31
0.0
  0
LINE
  8
0
 62
     0
 10
279.414
 20
62.9818
 30
0.0
 11
265.413
 21
62.9818
 31
0.0
  0
LINE
  8
0
 62
     0
 10
234.458
 20
62.9818
 30
0.0
 11
234.458
 21
61.9827
 31
0.0
  0
LINE
  8
0
 62
     0
 10
234.458
 20
61.9827
 30
0.0
 11
233.657
 21
61.9827
 31
0.0
  0
LINE
  8
0
 62
     0
 10
233.657
 20
61.9827
 30
0.0
 11
233.657
 21
58.8821
 31
0.0
  0
LINE
  8
0
 62
     0
 10
233.657
 20
58.8821
 30
0.0
 11
234.458
 21
58.8821
 31
0.0
  0
LINE
  8
0
 62
     0
 10
234.458
 20
58.8821
 30
0.0
 11
234.458
 21
53.0821
 31
0.0
  0
LINE
  8
0
 62
     0
 10
234.458
 20
53.0821
 30
0.0
 11
233.657
 21
53.0821
 31
0.0
  0
LINE
  8
0
 62
     0
 10
233.657
 20
53.0821
 30
0.0
 11
233.657
 21
49.983
 31
0.0
  0
LINE
  8
0
 62
     0
 10
233.657
 20
49.983
 30
0.0
 11
234.458
 21
49.983
 31
0.0
  0
LINE
  8
0
 62
     0
 10
234.458
 20
49.983
 30
0.0
 11
234.458
 21
48.9825
 31
0.0
  0
LINE
  8
0
 62
     0
 10
234.458
 20
48.9825
 30
0.0
 11
248.458
 21
48.9825
 31
0.0
  0
LINE
  8
0
 62
     0
 10
248.458
 20
48.9825
 30
0.0
 11
248.458
 21
49.983
 31
0.0
  0
LINE
  8
0
 62
     0
 10
248.458
 20
49.983
 30
0.0
 11
249.258
 21
49.983
 31
0.0
  0
LINE
  8
0
 62
     0
 10
249.258
 20
49.983
 30
0.0
 11
249.258
 21
53.0821
 31
0.0
  0
LINE
  8
0
 62
     0
 10
249.258
 20
53.0821
 30
0.0
 11
248.458
 21
53.0821
 31
0.0
  0
LINE
  8
0
 62
     0
 10
248.458
 20
53.0821
 30
0.0
 11
248.458
 21
58.8821
 31
0.0
  0
LINE
  8
0
 62
     0
 10
248.458
 20
58.8821
 30
0.0
 11
249.258
 21
58.8821
 31
0.0
  0
LINE
  8
0
 62
     0
 10
249.258
 20
58.8821
 30
0.0
 11
249.258
 21
61.9827
 31
0.0
  0
LINE
  8
0
 62
     0
 10
249.258
 20
61.9827
 30
0.0
 11
248.458
 21
61.9827
 31
0.0
  0
LINE
  8
0
 62
     0
 10
248.458
 20
61.9827
 30
0.0
 11
248.458
 21
62.9818
 31
0.0
  0
LINE
  8
0
 62
     0
 10
248.458
 20
62.9818
 30
0.0
 11
234.458
 21
62.9818
 31
0.0
  0
LINE
  8
0
 62
     0
 10
215.408
 20
62.9818
 30
0.0
 11
215.408
 21
61.9827
 31
0.0
  0
LINE
  8
0
 62
     0
 10
215.408
 20
61.9827
 30
0.0
 11
214.607
 21
61.9827
 31
0.0
  0
LINE
  8
0
 62
     0
 10
214.607
 20
61.9827
 30
0.0
 11
214.607
 21
58.8821
 31
0.0
  0
LINE
  8
0
 62
     0
 10
214.607
 20
58.8821
 30
0.0
 11
215.408
 21
58.8821
 31
0.0
  0
LINE
  8
0
 62
     0
 10
215.408
 20
58.8821
 30
0.0
 11
215.408
 21
53.0821
 31
0.0
  0
LINE
  8
0
 62
     0
 10
215.408
 20
53.0821
 30
0.0
 11
214.607
 21
53.0821
 31
0.0
  0
LINE
  8
0
 62
     0
 10
214.607
 20
53.0821
 30
0.0
 11
214.607
 21
49.983
 31
0.0
  0
LINE
  8
0
 62
     0
 10
214.607
 20
49.983
 30
0.0
 11
215.408
 21
49.983
 31
0.0
  0
LINE
  8
0
 62
     0
 10
215.408
 20
49.983
 30
0.0
 11
215.408
 21
48.9825
 31
0.0
  0
LINE
  8
0
 62
     0
 10
215.408
 20
48.9825
 30
0.0
 11
229.408
 21
48.9825
 31
0.0
  0
LINE
  8
0
 62
     0
 10
229.408
 20
48.9825
 30
0.0
 11
229.408
 21
49.983
 31
0.0
  0
LINE
  8
0
 62
     0
 10
229.408
 20
49.983
 30
0.0
 11
230.208
 21
49.983
 31
0.0
  0
LINE
  8
0
 62
     0
 10
230.208
 20
49.983
 30
0.0
 11
230.208
 21
53.0821
 31
0.0
  0
LINE
  8
0
 62
     0
 10
230.208
 20
53.0821
 30
0.0
 11
229.408
 21
53.0821
 31
0.0
  0
LINE
  8
0
 62
     0
 10
229.408
 20
53.0821
 30
0.0
 11
229.408
 21
58.8821
 31
0.0
  0
LINE
  8
0
 62
     0
 10
229.408
 20
58.8821
 30
0.0
 11
230.208
 21
58.8821
 31
0.0
  0
LINE
  8
0
 62
     0
 10
230.208
 20
58.8821
 30
0.0
 11
230.208
 21
61.9827
 31
0.0
  0
LINE
  8
0
 62
     0
 10
230.208
 20
61.9827
 30
0.0
 11
229.408
 21
61.9827
 31
0.0
  0
LINE
  8
0
 62
     0
 10
229.408
 20
61.9827
 30
0.0
 11
229.408
 21
62.9818
 31
0.0
  0
LINE
  8
0
 62
     0
 10
229.408
 20
62.9818
 30
0.0
 11
215.408
 21
62.9818
 31
0.0
  0
LINE
  8
0
 62
     0
 10
196.358
 20
62.9818
 30
0.0
 11
196.358
 21
61.9827
 31
0.0
  0
LINE
  8
0
 62
     0
 10
196.358
 20
61.9827
 30
0.0
 11
195.557
 21
61.9827
 31
0.0
  0
LINE
  8
0
 62
     0
 10
195.557
 20
61.9827
 30
0.0
 11
195.557
 21
58.8821
 31
0.0
  0
LINE
  8
0
 62
     0
 10
195.557
 20
58.8821
 30
0.0
 11
196.358
 21
58.8821
 31
0.0
  0
LINE
  8
0
 62
     0
 10
196.358
 20
58.8821
 30
0.0
 11
196.358
 21
53.0821
 31
0.0
  0
LINE
  8
0
 62
     0
 10
196.358
 20
53.0821
 30
0.0
 11
195.557
 21
53.0821
 31
0.0
  0
LINE
  8
0
 62
     0
 10
195.557
 20
53.0821
 30
0.0
 11
195.557
 21
49.983
 31
0.0
  0
LINE
  8
0
 62
     0
 10
195.557
 20
49.983
 30
0.0
 11
196.358
 21
49.983
 31
0.0
  0
LINE
  8
0
 62
     0
 10
196.358
 20
49.983
 30
0.0
 11
196.358
 21
48.9825
 31
0.0
  0
LINE
  8
0
 62
     0
 10
196.358
 20
48.9825
 30
0.0
 11
210.358
 21
48.9825
 31
0.0
  0
LINE
  8
0
 62
     0
 10
210.358
 20
48.9825
 30
0.0
 11
210.358
 21
49.983
 31
0.0
  0
LINE
  8
0
 62
     0
 10
210.358
 20
49.983
 30
0.0
 11
211.158
 21
49.983
 31
0.0
  0
LINE
  8
0
 62
     0
 10
211.158
 20
49.983
 30
0.0
 11
211.158
 21
53.0821
 31
0.0
  0
LINE
  8
0
 62
     0
 10
211.158
 20
53.0821
 30
0.0
 11
210.358
 21
53.0821
 31
0.0
  0
LINE
  8
0
 62
     0
 10
210.358
 20
53.0821
 30
0.0
 11
210.358
 21
58.8821
 31
0.0
  0
LINE
  8
0
 62
     0
 10
210.358
 20
58.8821
 30
0.0
 11
211.158
 21
58.8821
 31
0.0
  0
LINE
  8
0
 62
     0
 10
211.158
 20
58.8821
 30
0.0
 11
211.158
 21
61.9827
 31
0.0
  0
LINE
  8
0
 62
     0
 10
211.158
 20
61.9827
 30
0.0
 11
210.358
 21
61.9827
 31
0.0
  0
LINE
  8
0
 62
     0
 10
210.358
 20
61.9827
 30
0.0
 11
210.358
 21
62.9818
 31
0.0
  0
LINE
  8
0
 62
     0
 10
210.358
 20
62.9818
 30
0.0
 11
196.358
 21
62.9818
 31
0.0
  0
LINE
  8
0
 62
     0
 10
177.308
 20
62.9818
 30
0.0
 11
177.308
 21
61.9827
 31
0.0
  0
LINE
  8
0
 62
     0
 10
177.308
 20
61.9827
 30
0.0
 11
176.507
 21
61.9827
 31
0.0
  0
LINE
  8
0
 62
     0
 10
176.507
 20
61.9827
 30
0.0
 11
176.507
 21
58.8821
 31
0.0
  0
LINE
  8
0
 62
     0
 10
176.507
 20
58.8821
 30
0.0
 11
177.308
 21
58.8821
 31
0.0
  0
LINE
  8
0
 62
     0
 10
177.308
 20
58.8821
 30
0.0
 11
177.308
 21
53.0821
 31
0.0
  0
LINE
  8
0
 62
     0
 10
177.308
 20
53.0821
 30
0.0
 11
176.507
 21
53.0821
 31
0.0
  0
LINE
  8
0
 62
     0
 10
176.507
 20
53.0821
 30
0.0
 11
176.507
 21
49.983
 31
0.0
  0
LINE
  8
0
 62
     0
 10
176.507
 20
49.983
 30
0.0
 11
177.308
 21
49.983
 31
0.0
  0
LINE
  8
0
 62
     0
 10
177.308
 20
49.983
 30
0.0
 11
177.308
 21
48.9825
 31
0.0
  0
LINE
  8
0
 62
     0
 10
177.308
 20
48.9825
 30
0.0
 11
191.308
 21
48.9825
 31
0.0
  0
LINE
  8
0
 62
     0
 10
191.308
 20
48.9825
 30
0.0
 11
191.308
 21
49.983
 31
0.0
  0
LINE
  8
0
 62
     0
 10
191.308
 20
49.983
 30
0.0
 11
192.108
 21
49.983
 31
0.0
  0
LINE
  8
0
 62
     0
 10
192.108
 20
49.983
 30
0.0
 11
192.108
 21
53.0821
 31
0.0
  0
LINE
  8
0
 62
     0
 10
192.108
 20
53.0821
 30
0.0
 11
191.308
 21
53.0821
 31
0.0
  0
LINE
  8
0
 62
     0
 10
191.308
 20
53.0821
 30
0.0
 11
191.308
 21
58.8821
 31
0.0
  0
LINE
  8
0
 62
     0
 10
191.308
 20
58.8821
 30
0.0
 11
192.108
 21
58.8821
 31
0.0
  0
LINE
  8
0
 62
     0
 10
192.108
 20
58.8821
 30
0.0
 11
192.108
 21
61.9827
 31
0.0
  0
LINE
  8
0
 62
     0
 10
192.108
 20
61.9827
 30
0.0
 11
191.308
 21
61.9827
 31
0.0
  0
LINE
  8
0
 62
     0
 10
191.308
 20
61.9827
 30
0.0
 11
191.308
 21
62.9818
 31
0.0
  0
LINE
  8
0
 62
     0
 10
191.308
 20
62.9818
 30
0.0
 11
177.308
 21
62.9818
 31
0.0
  0
LINE
  8
0
 62
     0
 10
158.258
 20
62.9818
 30
0.0
 11
158.258
 21
61.9827
 31
0.0
  0
LINE
  8
0
 62
     0
 10
158.258
 20
61.9827
 30
0.0
 11
157.457
 21
61.9827
 31
0.0
  0
LINE
  8
0
 62
     0
 10
157.457
 20
61.9827
 30
0.0
 11
157.457
 21
58.8821
 31
0.0
  0
LINE
  8
0
 62
     0
 10
157.457
 20
58.8821
 30
0.0
 11
158.258
 21
58.8821
 31
0.0
  0
LINE
  8
0
 62
     0
 10
158.258
 20
58.8821
 30
0.0
 11
158.258
 21
53.0821
 31
0.0
  0
LINE
  8
0
 62
     0
 10
158.258
 20
53.0821
 30
0.0
 11
157.457
 21
53.0821
 31
0.0
  0
LINE
  8
0
 62
     0
 10
157.457
 20
53.0821
 30
0.0
 11
157.457
 21
49.983
 31
0.0
  0
LINE
  8
0
 62
     0
 10
157.457
 20
49.983
 30
0.0
 11
158.258
 21
49.983
 31
0.0
  0
LINE
  8
0
 62
     0
 10
158.258
 20
49.983
 30
0.0
 11
158.258
 21
48.9825
 31
0.0
  0
LINE
  8
0
 62
     0
 10
158.258
 20
48.9825
 30
0.0
 11
172.258
 21
48.9825
 31
0.0
  0
LINE
  8
0
 62
     0
 10
172.258
 20
48.9825
 30
0.0
 11
172.258
 21
49.983
 31
0.0
  0
LINE
  8
0
 62
     0
 10
172.258
 20
49.983
 30
0.0
 11
173.058
 21
49.983
 31
0.0
  0
LINE
  8
0
 62
     0
 10
173.058
 20
49.983
 30
0.0
 11
173.058
 21
53.0821
 31
0.0
  0
LINE
  8
0
 62
     0
 10
173.058
 20
53.0821
 30
0.0
 11
172.258
 21
53.0821
 31
0.0
  0
LINE
  8
0
 62
     0
 10
172.258
 20
53.0821
 30
0.0
 11
172.258
 21
58.8821
 31
0.0
  0
LINE
  8
0
 62
     0
 10
172.258
 20
58.8821
 30
0.0
 11
173.058
 21
58.8821
 31
0.0
  0
LINE
  8
0
 62
     0
 10
173.058
 20
58.8821
 30
0.0
 11
173.058
 21
61.9827
 31
0.0
  0
LINE
  8
0
 62
     0
 10
173.058
 20
61.9827
 30
0.0
 11
172.258
 21
61.9827
 31
0.0
  0
LINE
  8
0
 62
     0
 10
172.258
 20
61.9827
 30
0.0
 11
172.258
 21
62.9818
 31
0.0
  0
LINE
  8
0
 62
     0
 10
172.258
 20
62.9818
 30
0.0
 11
158.258
 21
62.9818
 31
0.0
  0
LINE
  8
0
 62
     0
 10
139.208
 20
62.9818
 30
0.0
 11
139.208
 21
61.9827
 31
0.0
  0
LINE
  8
0
 62
     0
 10
139.208
 20
61.9827
 30
0.0
 11
138.407
 21
61.9827
 31
0.0
  0
LINE
  8
0
 62
     0
 10
138.407
 20
61.9827
 30
0.0
 11
138.407
 21
58.8821
 31
0.0
  0
LINE
  8
0
 62
     0
 10
138.407
 20
58.8821
 30
0.0
 11
139.208
 21
58.8821
 31
0.0
  0
LINE
  8
0
 62
     0
 10
139.208
 20
58.8821
 30
0.0
 11
139.208
 21
53.0821
 31
0.0
  0
LINE
  8
0
 62
     0
 10
139.208
 20
53.0821
 30
0.0
 11
138.407
 21
53.0821
 31
0.0
  0
LINE
  8
0
 62
     0
 10
138.407
 20
53.0821
 30
0.0
 11
138.407
 21
49.983
 31
0.0
  0
LINE
  8
0
 62
     0
 10
138.407
 20
49.983
 30
0.0
 11
139.208
 21
49.983
 31
0.0
  0
LINE
  8
0
 62
     0
 10
139.208
 20
49.983
 30
0.0
 11
139.208
 21
48.9825
 31
0.0
  0
LINE
  8
0
 62
     0
 10
139.208
 20
48.9825
 30
0.0
 11
153.208
 21
48.9825
 31
0.0
  0
LINE
  8
0
 62
     0
 10
153.208
 20
48.9825
 30
0.0
 11
153.208
 21
49.983
 31
0.0
  0
LINE
  8
0
 62
     0
 10
153.208
 20
49.983
 30
0.0
 11
154.008
 21
49.983
 31
0.0
  0
LINE
  8
0
 62
     0
 10
154.008
 20
49.983
 30
0.0
 11
154.008
 21
53.0821
 31
0.0
  0
LINE
  8
0
 62
     0
 10
154.008
 20
53.0821
 30
0.0
 11
153.208
 21
53.0821
 31
0.0
  0
LINE
  8
0
 62
     0
 10
153.208
 20
53.0821
 30
0.0
 11
153.208
 21
58.8821
 31
0.0
  0
LINE
  8
0
 62
     0
 10
153.208
 20
58.8821
 30
0.0
 11
154.008
 21
58.8821
 31
0.0
  0
LINE
  8
0
 62
     0
 10
154.008
 20
58.8821
 30
0.0
 11
154.008
 21
61.9827
 31
0.0
  0
LINE
  8
0
 62
     0
 10
154.008
 20
61.9827
 30
0.0
 11
153.208
 21
61.9827
 31
0.0
  0
LINE
  8
0
 62
     0
 10
153.208
 20
61.9827
 30
0.0
 11
153.208
 21
62.9818
 31
0.0
  0
LINE
  8
0
 62
     0
 10
153.208
 20
62.9818
 30
0.0
 11
139.208
 21
62.9818
 31
0.0
  0
LINE
  8
0
 62
     0
 10
120.158
 20
62.9818
 30
0.0
 11
120.158
 21
61.9827
 31
0.0
  0
LINE
  8
0
 62
     0
 10
120.158
 20
61.9827
 30
0.0
 11
119.357
 21
61.9827
 31
0.0
  0
LINE
  8
0
 62
     0
 10
119.357
 20
61.9827
 30
0.0
 11
119.357
 21
58.8821
 31
0.0
  0
LINE
  8
0
 62
     0
 10
119.357
 20
58.8821
 30
0.0
 11
120.158
 21
58.8821
 31
0.0
  0
LINE
  8
0
 62
     0
 10
120.158
 20
58.8821
 30
0.0
 11
120.158
 21
53.0821
 31
0.0
  0
LINE
  8
0
 62
     0
 10
120.158
 20
53.0821
 30
0.0
 11
119.357
 21
53.0821
 31
0.0
  0
LINE
  8
0
 62
     0
 10
119.357
 20
53.0821
 30
0.0
 11
119.357
 21
49.983
 31
0.0
  0
LINE
  8
0
 62
     0
 10
119.357
 20
49.983
 30
0.0
 11
120.158
 21
49.983
 31
0.0
  0
LINE
  8
0
 62
     0
 10
120.158
 20
49.983
 30
0.0
 11
120.158
 21
48.9825
 31
0.0
  0
LINE
  8
0
 62
     0
 10
120.158
 20
48.9825
 30
0.0
 11
134.158
 21
48.9825
 31
0.0
  0
LINE
  8
0
 62
     0
 10
134.158
 20
48.9825
 30
0.0
 11
134.158
 21
49.983
 31
0.0
  0
LINE
  8
0
 62
     0
 10
134.158
 20
49.983
 30
0.0
 11
134.958
 21
49.983
 31
0.0
  0
LINE
  8
0
 62
     0
 10
134.958
 20
49.983
 30
0.0
 11
134.958
 21
53.0821
 31
0.0
  0
LINE
  8
0
 62
     0
 10
134.958
 20
53.0821
 30
0.0
 11
134.158
 21
53.0821
 31
0.0
  0
LINE
  8
0
 62
     0
 10
134.158
 20
53.0821
 30
0.0
 11
134.158
 21
58.8821
 31
0.0
  0
LINE
  8
0
 62
     0
 10
134.158
 20
58.8821
 30
0.0
 11
134.958
 21
58.8821
 31
0.0
  0
LINE
  8
0
 62
     0
 10
134.958
 20
58.8821
 30
0.0
 11
134.958
 21
61.9827
 31
0.0
  0
LINE
  8
0
 62
     0
 10
134.958
 20
61.9827
 30
0.0
 11
134.158
 21
61.9827
 31
0.0
  0
LINE
  8
0
 62
     0
 10
134.158
 20
61.9827
 30
0.0
 11
134.158
 21
62.9818
 31
0.0
  0
LINE
  8
0
 62
     0
 10
134.158
 20
62.9818
 30
0.0
 11
120.158
 21
62.9818
 31
0.0
  0
LINE
  8
0
 62
     0
 10
101.108
 20
62.9818
 30
0.0
 11
101.108
 21
61.9827
 31
0.0
  0
LINE
  8
0
 62
     0
 10
101.108
 20
61.9827
 30
0.0
 11
100.307
 21
61.9827
 31
0.0
  0
LINE
  8
0
 62
     0
 10
100.307
 20
61.9827
 30
0.0
 11
100.307
 21
58.8821
 31
0.0
  0
LINE
  8
0
 62
     0
 10
100.307
 20
58.8821
 30
0.0
 11
101.108
 21
58.8821
 31
0.0
  0
LINE
  8
0
 62
     0
 10
101.108
 20
58.8821
 30
0.0
 11
101.108
 21
53.0821
 31
0.0
  0
LINE
  8
0
 62
     0
 10
101.108
 20
53.0821
 30
0.0
 11
100.307
 21
53.0821
 31
0.0
  0
LINE
  8
0
 62
     0
 10
100.307
 20
53.0821
 30
0.0
 11
100.307
 21
49.983
 31
0.0
  0
LINE
  8
0
 62
     0
 10
100.307
 20
49.983
 30
0.0
 11
101.108
 21
49.983
 31
0.0
  0
LINE
  8
0
 62
     0
 10
101.108
 20
49.983
 30
0.0
 11
101.108
 21
48.9825
 31
0.0
  0
LINE
  8
0
 62
     0
 10
101.108
 20
48.9825
 30
0.0
 11
115.108
 21
48.9825
 31
0.0
  0
LINE
  8
0
 62
     0
 10
115.108
 20
48.9825
 30
0.0
 11
115.108
 21
49.983
 31
0.0
  0
LINE
  8
0
 62
     0
 10
115.108
 20
49.983
 30
0.0
 11
115.908
 21
49.983
 31
0.0
  0
LINE
  8
0
 62
     0
 10
115.908
 20
49.983
 30
0.0
 11
115.908
 21
53.0821
 31
0.0
  0
LINE
  8
0
 62
     0
 10
115.908
 20
53.0821
 30
0.0
 11
115.108
 21
53.0821
 31
0.0
  0
LINE
  8
0
 62
     0
 10
115.108
 20
53.0821
 30
0.0
 11
115.108
 21
58.8821
 31
0.0
  0
LINE
  8
0
 62
     0
 10
115.108
 20
58.8821
 30
0.0
 11
115.908
 21
58.8821
 31
0.0
  0
LINE
  8
0
 62
     0
 10
115.908
 20
58.8821
 30
0.0
 11
115.908
 21
61.9827
 31
0.0
  0
LINE
  8
0
 62
     0
 10
115.908
 20
61.9827
 30
0.0
 11
115.108
 21
61.9827
 31
0.0
  0
LINE
  8
0
 62
     0
 10
115.108
 20
61.9827
 30
0.0
 11
115.108
 21
62.9818
 31
0.0
  0
LINE
  8
0
 62
     0
 10
115.108
 20
62.9818
 30
0.0
 11
101.108
 21
62.9818
 31
0.0
  0
LINE
  8
0
 62
     0
 10
82.0579
 20
62.9818
 30
0.0
 11
82.0579
 21
61.9827
 31
0.0
  0
LINE
  8
0
 62
     0
 10
82.0579
 20
61.9827
 30
0.0
 11
81.2574
 21
61.9827
 31
0.0
  0
LINE
  8
0
 62
     0
 10
81.2574
 20
61.9827
 30
0.0
 11
81.2574
 21
58.8821
 31
0.0
  0
LINE
  8
0
 62
     0
 10
81.2574
 20
58.8821
 30
0.0
 11
82.0579
 21
58.8821
 31
0.0
  0
LINE
  8
0
 62
     0
 10
82.0579
 20
58.8821
 30
0.0
 11
82.0579
 21
53.0821
 31
0.0
  0
LINE
  8
0
 62
     0
 10
82.0579
 20
53.0821
 30
0.0
 11
81.2574
 21
53.0821
 31
0.0
  0
LINE
  8
0
 62
     0
 10
81.2574
 20
53.0821
 30
0.0
 11
81.2574
 21
49.983
 31
0.0
  0
LINE
  8
0
 62
     0
 10
81.2574
 20
49.983
 30
0.0
 11
82.0579
 21
49.983
 31
0.0
  0
LINE
  8
0
 62
     0
 10
82.0579
 20
49.983
 30
0.0
 11
82.0579
 21
48.9825
 31
0.0
  0
LINE
  8
0
 62
     0
 10
82.0579
 20
48.9825
 30
0.0
 11
96.0575
 21
48.9825
 31
0.0
  0
LINE
  8
0
 62
     0
 10
96.0575
 20
48.9825
 30
0.0
 11
96.0575
 21
49.983
 31
0.0
  0
LINE
  8
0
 62
     0
 10
96.0575
 20
49.983
 30
0.0
 11
96.8583
 21
49.983
 31
0.0
  0
LINE
  8
0
 62
     0
 10
96.8583
 20
49.983
 30
0.0
 11
96.8583
 21
53.0821
 31
0.0
  0
LINE
  8
0
 62
     0
 10
96.8583
 20
53.0821
 30
0.0
 11
96.0575
 21
53.0821
 31
0.0
  0
LINE
  8
0
 62
     0
 10
96.0575
 20
53.0821
 30
0.0
 11
96.0575
 21
58.8821
 31
0.0
  0
LINE
  8
0
 62
     0
 10
96.0575
 20
58.8821
 30
0.0
 11
96.8583
 21
58.8821
 31
0.0
  0
LINE
  8
0
 62
     0
 10
96.8583
 20
58.8821
 30
0.0
 11
96.8583
 21
61.9827
 31
0.0
  0
LINE
  8
0
 62
     0
 10
96.8583
 20
61.9827
 30
0.0
 11
96.0575
 21
61.9827
 31
0.0
  0
LINE
  8
0
 62
     0
 10
96.0575
 20
61.9827
 30
0.0
 11
96.0575
 21
62.9818
 31
0.0
  0
LINE
  8
0
 62
     0
 10
96.0575
 20
62.9818
 30
0.0
 11
82.0579
 21
62.9818
 31
0.0
  0
LINE
  8
0
 62
     0
 10
63.0079
 20
62.9818
 30
0.0
 11
63.0079
 21
61.9827
 31
0.0
  0
LINE
  8
0
 62
     0
 10
63.0079
 20
61.9827
 30
0.0
 11
62.2074
 21
61.9827
 31
0.0
  0
LINE
  8
0
 62
     0
 10
62.2074
 20
61.9827
 30
0.0
 11
62.2074
 21
58.8821
 31
0.0
  0
LINE
  8
0
 62
     0
 10
62.2074
 20
58.8821
 30
0.0
 11
63.0079
 21
58.8821
 31
0.0
  0
LINE
  8
0
 62
     0
 10
63.0079
 20
58.8821
 30
0.0
 11
63.0079
 21
53.0821
 31
0.0
  0
LINE
  8
0
 62
     0
 10
63.0079
 20
53.0821
 30
0.0
 11
62.2074
 21
53.0821
 31
0.0
  0
LINE
  8
0
 62
     0
 10
62.2074
 20
53.0821
 30
0.0
 11
62.2074
 21
49.983
 31
0.0
  0
LINE
  8
0
 62
     0
 10
62.2074
 20
49.983
 30
0.0
 11
63.0079
 21
49.983
 31
0.0
  0
LINE
  8
0
 62
     0
 10
63.0079
 20
49.983
 30
0.0
 11
63.0079
 21
48.9825
 31
0.0
  0
LINE
  8
0
 62
     0
 10
63.0079
 20
48.9825
 30
0.0
 11
77.0075
 21
48.9825
 31
0.0
  0
LINE
  8
0
 62
     0
 10
77.0075
 20
48.9825
 30
0.0
 11
77.0075
 21
49.983
 31
0.0
  0
LINE
  8
0
 62
     0
 10
77.0075
 20
49.983
 30
0.0
 11
77.8083
 21
49.983
 31
0.0
  0
LINE
  8
0
 62
     0
 10
77.8083
 20
49.983
 30
0.0
 11
77.8083
 21
53.0821
 31
0.0
  0
LINE
  8
0
 62
     0
 10
77.8083
 20
53.0821
 30
0.0
 11
77.0075
 21
53.0821
 31
0.0
  0
LINE
  8
0
 62
     0
 10
77.0075
 20
53.0821
 30
0.0
 11
77.0075
 21
58.8821
 31
0.0
  0
LINE
  8
0
 62
     0
 10
77.0075
 20
58.8821
 30
0.0
 11
77.8083
 21
58.8821
 31
0.0
  0
LINE
  8
0
 62
     0
 10
77.8083
 20
58.8821
 30
0.0
 11
77.8083
 21
61.9827
 31
0.0
  0
LINE
  8
0
 62
     0
 10
77.8083
 20
61.9827
 30
0.0
 11
77.0075
 21
61.9827
 31
0.0
  0
LINE
  8
0
 62
     0
 10
77.0075
 20
61.9827
 30
0.0
 11
77.0075
 21
62.9818
 31
0.0
  0
LINE
  8
0
 62
     0
 10
77.0075
 20
62.9818
 30
0.0
 11
63.0079
 21
62.9818
 31
0.0
  0
LINE
  8
0
 62
     0
 10
43.9579
 20
62.9818
 30
0.0
 11
43.9579
 21
61.9827
 31
0.0
  0
LINE
  8
0
 62
     0
 10
43.9579
 20
61.9827
 30
0.0
 11
43.1574
 21
61.9827
 31
0.0
  0
LINE
  8
0
 62
     0
 10
43.1574
 20
61.9827
 30
0.0
 11
43.1574
 21
58.8821
 31
0.0
  0
LINE
  8
0
 62
     0
 10
43.1574
 20
58.8821
 30
0.0
 11
43.9579
 21
58.8821
 31
0.0
  0
LINE
  8
0
 62
     0
 10
43.9579
 20
58.8821
 30
0.0
 11
43.9579
 21
53.0821
 31
0.0
  0
LINE
  8
0
 62
     0
 10
43.9579
 20
53.0821
 30
0.0
 11
43.1574
 21
53.0821
 31
0.0
  0
LINE
  8
0
 62
     0
 10
43.1574
 20
53.0821
 30
0.0
 11
43.1574
 21
49.983
 31
0.0
  0
LINE
  8
0
 62
     0
 10
43.1574
 20
49.983
 30
0.0
 11
43.9579
 21
49.983
 31
0.0
  0
LINE
  8
0
 62
     0
 10
43.9579
 20
49.983
 30
0.0
 11
43.9579
 21
48.9825
 31
0.0
  0
LINE
  8
0
 62
     0
 10
43.9579
 20
48.9825
 30
0.0
 11
57.9575
 21
48.9825
 31
0.0
  0
LINE
  8
0
 62
     0
 10
57.9575
 20
48.9825
 30
0.0
 11
57.9575
 21
49.983
 31
0.0
  0
LINE
  8
0
 62
     0
 10
57.9575
 20
49.983
 30
0.0
 11
58.7583
 21
49.983
 31
0.0
  0
LINE
  8
0
 62
     0
 10
58.7583
 20
49.983
 30
0.0
 11
58.7583
 21
53.0821
 31
0.0
  0
LINE
  8
0
 62
     0
 10
58.7583
 20
53.0821
 30
0.0
 11
57.9575
 21
53.0821
 31
0.0
  0
LINE
  8
0
 62
     0
 10
57.9575
 20
53.0821
 30
0.0
 11
57.9575
 21
58.8821
 31
0.0
  0
LINE
  8
0
 62
     0
 10
57.9575
 20
58.8821
 30
0.0
 11
58.7583
 21
58.8821
 31
0.0
  0
LINE
  8
0
 62
     0
 10
58.7583
 20
58.8821
 30
0.0
 11
58.7583
 21
61.9827
 31
0.0
  0
LINE
  8
0
 62
     0
 10
58.7583
 20
61.9827
 30
0.0
 11
57.9575
 21
61.9827
 31
0.0
  0
LINE
  8
0
 62
     0
 10
57.9575
 20
61.9827
 30
0.0
 11
57.9575
 21
62.9818
 31
0.0
  0
LINE
  8
0
 62
     0
 10
57.9575
 20
62.9818
 30
0.0
 11
43.9579
 21
62.9818
 31
0.0
  0
LINE
  8
0
 62
     0
 10
17.7629
 20
62.9818
 30
0.0
 11
17.7629
 21
61.9827
 31
0.0
  0
LINE
  8
0
 62
     0
 10
17.7629
 20
61.9827
 30
0.0
 11
16.9636
 21
61.9827
 31
0.0
  0
LINE
  8
0
 62
     0
 10
16.9636
 20
61.9827
 30
0.0
 11
16.9636
 21
58.8821
 31
0.0
  0
LINE
  8
0
 62
     0
 10
16.9636
 20
58.8821
 30
0.0
 11
17.7629
 21
58.8821
 31
0.0
  0
LINE
  8
0
 62
     0
 10
17.7629
 20
58.8821
 30
0.0
 11
17.7629
 21
53.0821
 31
0.0
  0
LINE
  8
0
 62
     0
 10
17.7629
 20
53.0821
 30
0.0
 11
16.9636
 21
53.0821
 31
0.0
  0
LINE
  8
0
 62
     0
 10
16.9636
 20
53.0821
 30
0.0
 11
16.9636
 21
49.983
 31
0.0
  0
LINE
  8
0
 62
     0
 10
16.9636
 20
49.983
 30
0.0
 11
17.7629
 21
49.983
 31
0.0
  0
LINE
  8
0
 62
     0
 10
17.7629
 20
49.983
 30
0.0
 11
17.7629
 21
48.9825
 31
0.0
  0
LINE
  8
0
 62
     0
 10
17.7629
 20
48.9825
 30
0.0
 11
31.7638
 21
48.9825
 31
0.0
  0
LINE
  8
0
 62
     0
 10
31.7638
 20
48.9825
 30
0.0
 11
31.7638
 21
49.983
 31
0.0
  0
LINE
  8
0
 62
     0
 10
31.7638
 20
49.983
 30
0.0
 11
32.563
 21
49.983
 31
0.0
  0
LINE
  8
0
 62
     0
 10
32.563
 20
49.983
 30
0.0
 11
32.563
 21
53.0821
 31
0.0
  0
LINE
  8
0
 62
     0
 10
32.563
 20
53.0821
 30
0.0
 11
31.7638
 21
53.0821
 31
0.0
  0
LINE
  8
0
 62
     0
 10
31.7638
 20
53.0821
 30
0.0
 11
31.7638
 21
58.8821
 31
0.0
  0
LINE
  8
0
 62
     0
 10
31.7638
 20
58.8821
 30
0.0
 11
32.563
 21
58.8821
 31
0.0
  0
LINE
  8
0
 62
     0
 10
32.563
 20
58.8821
 30
0.0
 11
32.563
 21
61.9827
 31
0.0
  0
LINE
  8
0
 62
     0
 10
32.563
 20
61.9827
 30
0.0
 11
31.7638
 21
61.9827
 31
0.0
  0
LINE
  8
0
 62
     0
 10
31.7638
 20
61.9827
 30
0.0
 11
31.7638
 21
62.9818
 31
0.0
  0
LINE
  8
0
 62
     0
 10
31.7638
 20
62.9818
 30
0.0
 11
17.7629
 21
62.9818
 31
0.0
  0
LINE
  8
0
 62
     0
 10
3.63114
 20
68.41
 30
0.0
 11
3.21359
 21
68.1965
 31
0.0
  0
LINE
  8
0
 62
     0
 10
3.21359
 20
68.1965
 30
0.0
 11
2.88148
 21
67.8642
 31
0.0
  0
LINE
  8
0
 62
     0
 10
2.88148
 20
67.8642
 30
0.0
 11
2.66788
 21
67.4469
 31
0.0
  0
LINE
  8
0
 62
     0
 10
2.66788
 20
67.4469
 30
0.0
 11
2.59485
 21
66.9823
 31
0.0
  0
LINE
  8
0
 62
     0
 10
2.59485
 20
66.9823
 30
0.0
 11
2.66788
 21
66.518
 31
0.0
  0
LINE
  8
0
 62
     0
 10
2.66788
 20
66.518
 30
0.0
 11
2.88148
 21
66.1003
 31
0.0
  0
LINE
  8
0
 62
     0
 10
2.88148
 20
66.1003
 30
0.0
 11
3.21359
 21
65.7684
 31
0.0
  0
LINE
  8
0
 62
     0
 10
3.21359
 20
65.7684
 30
0.0
 11
3.63114
 21
65.5546
 31
0.0
  0
LINE
  8
0
 62
     0
 10
3.63114
 20
65.5546
 30
0.0
 11
4.09554
 21
65.4816
 31
0.0
  0
LINE
  8
0
 62
     0
 10
4.09554
 20
65.4816
 30
0.0
 11
4.55856
 21
65.5546
 31
0.0
  0
LINE
  8
0
 62
     0
 10
4.55856
 20
65.5546
 30
0.0
 11
4.97611
 21
65.7684
 31
0.0
  0
LINE
  8
0
 62
     0
 10
4.97611
 20
65.7684
 30
0.0
 11
5.30821
 21
66.1003
 31
0.0
  0
LINE
  8
0
 62
     0
 10
5.30821
 20
66.1003
 30
0.0
 11
5.52178
 21
66.518
 31
0.0
  0
LINE
  8
0
 62
     0
 10
5.52178
 20
66.518
 30
0.0
 11
5.59484
 21
66.9823
 31
0.0
  0
LINE
  8
0
 62
     0
 10
5.59484
 20
66.9823
 30
0.0
 11
5.52178
 21
67.4469
 31
0.0
  0
LINE
  8
0
 62
     0
 10
5.52178
 20
67.4469
 30
0.0
 11
5.30821
 21
67.8642
 31
0.0
  0
LINE
  8
0
 62
     0
 10
5.30821
 20
67.8642
 30
0.0
 11
4.97611
 21
68.1965
 31
0.0
  0
LINE
  8
0
 62
     0
 10
4.97611
 20
68.1965
 30
0.0
 11
4.55856
 21
68.41
 31
0.0
  0
LINE
  8
0
 62
     0
 10
4.55856
 20
68.41
 30
0.0
 11
4.09554
 21
68.4816
 31
0.0
  0
LINE
  8
0
 62
     0
 10
4.09554
 20
68.4816
 30
0.0
 11
3.63114
 21
68.41
 31
0.0
  0
LINE
  8
0
 62
     0
 10
297.382
 20
68.41
 30
0.0
 11
296.964
 21
68.1965
 31
0.0
  0
LINE
  8
0
 62
     0
 10
296.964
 20
68.1965
 30
0.0
 11
296.632
 21
67.8642
 31
0.0
  0
LINE
  8
0
 62
     0
 10
296.632
 20
67.8642
 30
0.0
 11
296.42
 21
67.4469
 31
0.0
  0
LINE
  8
0
 62
     0
 10
296.42
 20
67.4469
 30
0.0
 11
296.347
 21
66.9823
 31
0.0
  0
LINE
  8
0
 62
     0
 10
296.347
 20
66.9823
 30
0.0
 11
296.42
 21
66.518
 31
0.0
  0
LINE
  8
0
 62
     0
 10
296.42
 20
66.518
 30
0.0
 11
296.632
 21
66.1003
 31
0.0
  0
LINE
  8
0
 62
     0
 10
296.632
 20
66.1003
 30
0.0
 11
296.964
 21
65.7684
 31
0.0
  0
LINE
  8
0
 62
     0
 10
296.964
 20
65.7684
 30
0.0
 11
297.382
 21
65.5546
 31
0.0
  0
LINE
  8
0
 62
     0
 10
297.382
 20
65.5546
 30
0.0
 11
297.846
 21
65.4816
 31
0.0
  0
LINE
  8
0
 62
     0
 10
297.846
 20
65.4816
 30
0.0
 11
298.31
 21
65.5546
 31
0.0
  0
LINE
  8
0
 62
     0
 10
298.31
 20
65.5546
 30
0.0
 11
298.727
 21
65.7684
 31
0.0
  0
LINE
  8
0
 62
     0
 10
298.727
 20
65.7684
 30
0.0
 11
299.059
 21
66.1003
 31
0.0
  0
LINE
  8
0
 62
     0
 10
299.059
 20
66.1003
 30
0.0
 11
299.273
 21
66.518
 31
0.0
  0
LINE
  8
0
 62
     0
 10
299.273
 20
66.518
 30
0.0
 11
299.347
 21
66.9823
 31
0.0
  0
LINE
  8
0
 62
     0
 10
299.347
 20
66.9823
 30
0.0
 11
299.273
 21
67.4469
 31
0.0
  0
LINE
  8
0
 62
     0
 10
299.273
 20
67.4469
 30
0.0
 11
299.059
 21
67.8642
 31
0.0
  0
LINE
  8
0
 62
     0
 10
299.059
 20
67.8642
 30
0.0
 11
298.727
 21
68.1965
 31
0.0
  0
LINE
  8
0
 62
     0
 10
298.727
 20
68.1965
 30
0.0
 11
298.31
 21
68.41
 31
0.0
  0
LINE
  8
0
 62
     0
 10
298.31
 20
68.41
 30
0.0
 11
297.846
 21
68.4816
 31
0.0
  0
LINE
  8
0
 62
     0
 10
297.846
 20
68.4816
 30
0.0
 11
297.382
 21
68.41
 31
0.0
  0
LINE
  8
0
 62
     0
 10
272.558
 20
82.0318
 30
0.0
 11
272.558
 21
81.0327
 31
0.0
  0
LINE
  8
0
 62
     0
 10
272.558
 20
81.0327
 30
0.0
 11
271.757
 21
81.0327
 31
0.0
  0
LINE
  8
0
 62
     0
 10
271.757
 20
81.0327
 30
0.0
 11
271.757
 21
77.9321
 31
0.0
  0
LINE
  8
0
 62
     0
 10
271.757
 20
77.9321
 30
0.0
 11
272.558
 21
77.9321
 31
0.0
  0
LINE
  8
0
 62
     0
 10
272.558
 20
77.9321
 30
0.0
 11
272.558
 21
72.1321
 31
0.0
  0
LINE
  8
0
 62
     0
 10
272.558
 20
72.1321
 30
0.0
 11
271.757
 21
72.1321
 31
0.0
  0
LINE
  8
0
 62
     0
 10
271.757
 20
72.1321
 30
0.0
 11
271.757
 21
69.033
 31
0.0
  0
LINE
  8
0
 62
     0
 10
271.757
 20
69.033
 30
0.0
 11
272.558
 21
69.033
 31
0.0
  0
LINE
  8
0
 62
     0
 10
272.558
 20
69.033
 30
0.0
 11
272.558
 21
68.0325
 31
0.0
  0
LINE
  8
0
 62
     0
 10
272.558
 20
68.0325
 30
0.0
 11
286.558
 21
68.0325
 31
0.0
  0
LINE
  8
0
 62
     0
 10
286.558
 20
68.0325
 30
0.0
 11
286.558
 21
69.033
 31
0.0
  0
LINE
  8
0
 62
     0
 10
286.558
 20
69.033
 30
0.0
 11
287.358
 21
69.033
 31
0.0
  0
LINE
  8
0
 62
     0
 10
287.358
 20
69.033
 30
0.0
 11
287.358
 21
72.1321
 31
0.0
  0
LINE
  8
0
 62
     0
 10
287.358
 20
72.1321
 30
0.0
 11
286.558
 21
72.1321
 31
0.0
  0
LINE
  8
0
 62
     0
 10
286.558
 20
72.1321
 30
0.0
 11
286.558
 21
77.9321
 31
0.0
  0
LINE
  8
0
 62
     0
 10
286.558
 20
77.9321
 30
0.0
 11
287.358
 21
77.9321
 31
0.0
  0
LINE
  8
0
 62
     0
 10
287.358
 20
77.9321
 30
0.0
 11
287.358
 21
81.0327
 31
0.0
  0
LINE
  8
0
 62
     0
 10
287.358
 20
81.0327
 30
0.0
 11
286.558
 21
81.0327
 31
0.0
  0
LINE
  8
0
 62
     0
 10
286.558
 20
81.0327
 30
0.0
 11
286.558
 21
82.0318
 31
0.0
  0
LINE
  8
0
 62
     0
 10
286.558
 20
82.0318
 30
0.0
 11
272.558
 21
82.0318
 31
0.0
  0
LINE
  8
0
 62
     0
 10
248.745
 20
82.0318
 30
0.0
 11
248.745
 21
81.0327
 31
0.0
  0
LINE
  8
0
 62
     0
 10
248.745
 20
81.0327
 30
0.0
 11
247.945
 21
81.0327
 31
0.0
  0
LINE
  8
0
 62
     0
 10
247.945
 20
81.0327
 30
0.0
 11
247.945
 21
77.9321
 31
0.0
  0
LINE
  8
0
 62
     0
 10
247.945
 20
77.9321
 30
0.0
 11
248.745
 21
77.9321
 31
0.0
  0
LINE
  8
0
 62
     0
 10
248.745
 20
77.9321
 30
0.0
 11
248.745
 21
72.1321
 31
0.0
  0
LINE
  8
0
 62
     0
 10
248.745
 20
72.1321
 30
0.0
 11
247.945
 21
72.1321
 31
0.0
  0
LINE
  8
0
 62
     0
 10
247.945
 20
72.1321
 30
0.0
 11
247.945
 21
69.033
 31
0.0
  0
LINE
  8
0
 62
     0
 10
247.945
 20
69.033
 30
0.0
 11
248.745
 21
69.033
 31
0.0
  0
LINE
  8
0
 62
     0
 10
248.745
 20
69.033
 30
0.0
 11
248.745
 21
68.0325
 31
0.0
  0
LINE
  8
0
 62
     0
 10
248.745
 20
68.0325
 30
0.0
 11
262.745
 21
68.0325
 31
0.0
  0
LINE
  8
0
 62
     0
 10
262.745
 20
68.0325
 30
0.0
 11
262.745
 21
69.033
 31
0.0
  0
LINE
  8
0
 62
     0
 10
262.745
 20
69.033
 30
0.0
 11
263.546
 21
69.033
 31
0.0
  0
LINE
  8
0
 62
     0
 10
263.546
 20
69.033
 30
0.0
 11
263.546
 21
72.1321
 31
0.0
  0
LINE
  8
0
 62
     0
 10
263.546
 20
72.1321
 30
0.0
 11
262.745
 21
72.1321
 31
0.0
  0
LINE
  8
0
 62
     0
 10
262.745
 20
72.1321
 30
0.0
 11
262.745
 21
77.9321
 31
0.0
  0
LINE
  8
0
 62
     0
 10
262.745
 20
77.9321
 30
0.0
 11
263.546
 21
77.9321
 31
0.0
  0
LINE
  8
0
 62
     0
 10
263.546
 20
77.9321
 30
0.0
 11
263.546
 21
81.0327
 31
0.0
  0
LINE
  8
0
 62
     0
 10
263.546
 20
81.0327
 30
0.0
 11
262.745
 21
81.0327
 31
0.0
  0
LINE
  8
0
 62
     0
 10
262.745
 20
81.0327
 30
0.0
 11
262.745
 21
82.0318
 31
0.0
  0
LINE
  8
0
 62
     0
 10
262.745
 20
82.0318
 30
0.0
 11
248.745
 21
82.0318
 31
0.0
  0
LINE
  8
0
 62
     0
 10
229.695
 20
82.0318
 30
0.0
 11
229.695
 21
81.0327
 31
0.0
  0
LINE
  8
0
 62
     0
 10
229.695
 20
81.0327
 30
0.0
 11
228.895
 21
81.0327
 31
0.0
  0
LINE
  8
0
 62
     0
 10
228.895
 20
81.0327
 30
0.0
 11
228.895
 21
77.9321
 31
0.0
  0
LINE
  8
0
 62
     0
 10
228.895
 20
77.9321
 30
0.0
 11
229.695
 21
77.9321
 31
0.0
  0
LINE
  8
0
 62
     0
 10
229.695
 20
77.9321
 30
0.0
 11
229.695
 21
72.1321
 31
0.0
  0
LINE
  8
0
 62
     0
 10
229.695
 20
72.1321
 30
0.0
 11
228.895
 21
72.1321
 31
0.0
  0
LINE
  8
0
 62
     0
 10
228.895
 20
72.1321
 30
0.0
 11
228.895
 21
69.033
 31
0.0
  0
LINE
  8
0
 62
     0
 10
228.895
 20
69.033
 30
0.0
 11
229.695
 21
69.033
 31
0.0
  0
LINE
  8
0
 62
     0
 10
229.695
 20
69.033
 30
0.0
 11
229.695
 21
68.0325
 31
0.0
  0
LINE
  8
0
 62
     0
 10
229.695
 20
68.0325
 30
0.0
 11
243.695
 21
68.0325
 31
0.0
  0
LINE
  8
0
 62
     0
 10
243.695
 20
68.0325
 30
0.0
 11
243.695
 21
69.033
 31
0.0
  0
LINE
  8
0
 62
     0
 10
243.695
 20
69.033
 30
0.0
 11
244.496
 21
69.033
 31
0.0
  0
LINE
  8
0
 62
     0
 10
244.496
 20
69.033
 30
0.0
 11
244.496
 21
72.1321
 31
0.0
  0
LINE
  8
0
 62
     0
 10
244.496
 20
72.1321
 30
0.0
 11
243.695
 21
72.1321
 31
0.0
  0
LINE
  8
0
 62
     0
 10
243.695
 20
72.1321
 30
0.0
 11
243.695
 21
77.9321
 31
0.0
  0
LINE
  8
0
 62
     0
 10
243.695
 20
77.9321
 30
0.0
 11
244.496
 21
77.9321
 31
0.0
  0
LINE
  8
0
 62
     0
 10
244.496
 20
77.9321
 30
0.0
 11
244.496
 21
81.0327
 31
0.0
  0
LINE
  8
0
 62
     0
 10
244.496
 20
81.0327
 30
0.0
 11
243.695
 21
81.0327
 31
0.0
  0
LINE
  8
0
 62
     0
 10
243.695
 20
81.0327
 30
0.0
 11
243.695
 21
82.0318
 31
0.0
  0
LINE
  8
0
 62
     0
 10
243.695
 20
82.0318
 30
0.0
 11
229.695
 21
82.0318
 31
0.0
  0
LINE
  8
0
 62
     0
 10
210.645
 20
82.0318
 30
0.0
 11
210.645
 21
81.0327
 31
0.0
  0
LINE
  8
0
 62
     0
 10
210.645
 20
81.0327
 30
0.0
 11
209.845
 21
81.0327
 31
0.0
  0
LINE
  8
0
 62
     0
 10
209.845
 20
81.0327
 30
0.0
 11
209.845
 21
77.9321
 31
0.0
  0
LINE
  8
0
 62
     0
 10
209.845
 20
77.9321
 30
0.0
 11
210.645
 21
77.9321
 31
0.0
  0
LINE
  8
0
 62
     0
 10
210.645
 20
77.9321
 30
0.0
 11
210.645
 21
72.1321
 31
0.0
  0
LINE
  8
0
 62
     0
 10
210.645
 20
72.1321
 30
0.0
 11
209.845
 21
72.1321
 31
0.0
  0
LINE
  8
0
 62
     0
 10
209.845
 20
72.1321
 30
0.0
 11
209.845
 21
69.033
 31
0.0
  0
LINE
  8
0
 62
     0
 10
209.845
 20
69.033
 30
0.0
 11
210.645
 21
69.033
 31
0.0
  0
LINE
  8
0
 62
     0
 10
210.645
 20
69.033
 30
0.0
 11
210.645
 21
68.0325
 31
0.0
  0
LINE
  8
0
 62
     0
 10
210.645
 20
68.0325
 30
0.0
 11
224.645
 21
68.0325
 31
0.0
  0
LINE
  8
0
 62
     0
 10
224.645
 20
68.0325
 30
0.0
 11
224.645
 21
69.033
 31
0.0
  0
LINE
  8
0
 62
     0
 10
224.645
 20
69.033
 30
0.0
 11
225.446
 21
69.033
 31
0.0
  0
LINE
  8
0
 62
     0
 10
225.446
 20
69.033
 30
0.0
 11
225.446
 21
72.1321
 31
0.0
  0
LINE
  8
0
 62
     0
 10
225.446
 20
72.1321
 30
0.0
 11
224.645
 21
72.1321
 31
0.0
  0
LINE
  8
0
 62
     0
 10
224.645
 20
72.1321
 30
0.0
 11
224.645
 21
77.9321
 31
0.0
  0
LINE
  8
0
 62
     0
 10
224.645
 20
77.9321
 30
0.0
 11
225.446
 21
77.9321
 31
0.0
  0
LINE
  8
0
 62
     0
 10
225.446
 20
77.9321
 30
0.0
 11
225.446
 21
81.0327
 31
0.0
  0
LINE
  8
0
 62
     0
 10
225.446
 20
81.0327
 30
0.0
 11
224.645
 21
81.0327
 31
0.0
  0
LINE
  8
0
 62
     0
 10
224.645
 20
81.0327
 30
0.0
 11
224.645
 21
82.0318
 31
0.0
  0
LINE
  8
0
 62
     0
 10
224.645
 20
82.0318
 30
0.0
 11
210.645
 21
82.0318
 31
0.0
  0
LINE
  8
0
 62
     0
 10
191.595
 20
82.0318
 30
0.0
 11
191.595
 21
81.0327
 31
0.0
  0
LINE
  8
0
 62
     0
 10
191.595
 20
81.0327
 30
0.0
 11
190.795
 21
81.0327
 31
0.0
  0
LINE
  8
0
 62
     0
 10
190.795
 20
81.0327
 30
0.0
 11
190.795
 21
77.9321
 31
0.0
  0
LINE
  8
0
 62
     0
 10
190.795
 20
77.9321
 30
0.0
 11
191.595
 21
77.9321
 31
0.0
  0
LINE
  8
0
 62
     0
 10
191.595
 20
77.9321
 30
0.0
 11
191.595
 21
72.1321
 31
0.0
  0
LINE
  8
0
 62
     0
 10
191.595
 20
72.1321
 30
0.0
 11
190.795
 21
72.1321
 31
0.0
  0
LINE
  8
0
 62
     0
 10
190.795
 20
72.1321
 30
0.0
 11
190.795
 21
69.033
 31
0.0
  0
LINE
  8
0
 62
     0
 10
190.795
 20
69.033
 30
0.0
 11
191.595
 21
69.033
 31
0.0
  0
LINE
  8
0
 62
     0
 10
191.595
 20
69.033
 30
0.0
 11
191.595
 21
68.0325
 31
0.0
  0
LINE
  8
0
 62
     0
 10
191.595
 20
68.0325
 30
0.0
 11
205.595
 21
68.0325
 31
0.0
  0
LINE
  8
0
 62
     0
 10
205.595
 20
68.0325
 30
0.0
 11
205.595
 21
69.033
 31
0.0
  0
LINE
  8
0
 62
     0
 10
205.595
 20
69.033
 30
0.0
 11
206.396
 21
69.033
 31
0.0
  0
LINE
  8
0
 62
     0
 10
206.396
 20
69.033
 30
0.0
 11
206.396
 21
72.1321
 31
0.0
  0
LINE
  8
0
 62
     0
 10
206.396
 20
72.1321
 30
0.0
 11
205.595
 21
72.1321
 31
0.0
  0
LINE
  8
0
 62
     0
 10
205.595
 20
72.1321
 30
0.0
 11
205.595
 21
77.9321
 31
0.0
  0
LINE
  8
0
 62
     0
 10
205.595
 20
77.9321
 30
0.0
 11
206.396
 21
77.9321
 31
0.0
  0
LINE
  8
0
 62
     0
 10
206.396
 20
77.9321
 30
0.0
 11
206.396
 21
81.0327
 31
0.0
  0
LINE
  8
0
 62
     0
 10
206.396
 20
81.0327
 30
0.0
 11
205.595
 21
81.0327
 31
0.0
  0
LINE
  8
0
 62
     0
 10
205.595
 20
81.0327
 30
0.0
 11
205.595
 21
82.0318
 31
0.0
  0
LINE
  8
0
 62
     0
 10
205.595
 20
82.0318
 30
0.0
 11
191.595
 21
82.0318
 31
0.0
  0
LINE
  8
0
 62
     0
 10
172.545
 20
82.0318
 30
0.0
 11
172.545
 21
81.0327
 31
0.0
  0
LINE
  8
0
 62
     0
 10
172.545
 20
81.0327
 30
0.0
 11
171.745
 21
81.0327
 31
0.0
  0
LINE
  8
0
 62
     0
 10
171.745
 20
81.0327
 30
0.0
 11
171.745
 21
77.9321
 31
0.0
  0
LINE
  8
0
 62
     0
 10
171.745
 20
77.9321
 30
0.0
 11
172.545
 21
77.9321
 31
0.0
  0
LINE
  8
0
 62
     0
 10
172.545
 20
77.9321
 30
0.0
 11
172.545
 21
72.1321
 31
0.0
  0
LINE
  8
0
 62
     0
 10
172.545
 20
72.1321
 30
0.0
 11
171.745
 21
72.1321
 31
0.0
  0
LINE
  8
0
 62
     0
 10
171.745
 20
72.1321
 30
0.0
 11
171.745
 21
69.033
 31
0.0
  0
LINE
  8
0
 62
     0
 10
171.745
 20
69.033
 30
0.0
 11
172.545
 21
69.033
 31
0.0
  0
LINE
  8
0
 62
     0
 10
172.545
 20
69.033
 30
0.0
 11
172.545
 21
68.0325
 31
0.0
  0
LINE
  8
0
 62
     0
 10
172.545
 20
68.0325
 30
0.0
 11
186.545
 21
68.0325
 31
0.0
  0
LINE
  8
0
 62
     0
 10
186.545
 20
68.0325
 30
0.0
 11
186.545
 21
69.033
 31
0.0
  0
LINE
  8
0
 62
     0
 10
186.545
 20
69.033
 30
0.0
 11
187.346
 21
69.033
 31
0.0
  0
LINE
  8
0
 62
     0
 10
187.346
 20
69.033
 30
0.0
 11
187.346
 21
72.1321
 31
0.0
  0
LINE
  8
0
 62
     0
 10
187.346
 20
72.1321
 30
0.0
 11
186.545
 21
72.1321
 31
0.0
  0
LINE
  8
0
 62
     0
 10
186.545
 20
72.1321
 30
0.0
 11
186.545
 21
77.9321
 31
0.0
  0
LINE
  8
0
 62
     0
 10
186.545
 20
77.9321
 30
0.0
 11
187.346
 21
77.9321
 31
0.0
  0
LINE
  8
0
 62
     0
 10
187.346
 20
77.9321
 30
0.0
 11
187.346
 21
81.0327
 31
0.0
  0
LINE
  8
0
 62
     0
 10
187.346
 20
81.0327
 30
0.0
 11
186.545
 21
81.0327
 31
0.0
  0
LINE
  8
0
 62
     0
 10
186.545
 20
81.0327
 30
0.0
 11
186.545
 21
82.0318
 31
0.0
  0
LINE
  8
0
 62
     0
 10
186.545
 20
82.0318
 30
0.0
 11
172.545
 21
82.0318
 31
0.0
  0
LINE
  8
0
 62
     0
 10
153.495
 20
82.0318
 30
0.0
 11
153.495
 21
81.0327
 31
0.0
  0
LINE
  8
0
 62
     0
 10
153.495
 20
81.0327
 30
0.0
 11
152.695
 21
81.0327
 31
0.0
  0
LINE
  8
0
 62
     0
 10
152.695
 20
81.0327
 30
0.0
 11
152.695
 21
77.9321
 31
0.0
  0
LINE
  8
0
 62
     0
 10
152.695
 20
77.9321
 30
0.0
 11
153.495
 21
77.9321
 31
0.0
  0
LINE
  8
0
 62
     0
 10
153.495
 20
77.9321
 30
0.0
 11
153.495
 21
72.1321
 31
0.0
  0
LINE
  8
0
 62
     0
 10
153.495
 20
72.1321
 30
0.0
 11
152.695
 21
72.1321
 31
0.0
  0
LINE
  8
0
 62
     0
 10
152.695
 20
72.1321
 30
0.0
 11
152.695
 21
69.033
 31
0.0
  0
LINE
  8
0
 62
     0
 10
152.695
 20
69.033
 30
0.0
 11
153.495
 21
69.033
 31
0.0
  0
LINE
  8
0
 62
     0
 10
153.495
 20
69.033
 30
0.0
 11
153.495
 21
68.0325
 31
0.0
  0
LINE
  8
0
 62
     0
 10
153.495
 20
68.0325
 30
0.0
 11
167.495
 21
68.0325
 31
0.0
  0
LINE
  8
0
 62
     0
 10
167.495
 20
68.0325
 30
0.0
 11
167.495
 21
69.033
 31
0.0
  0
LINE
  8
0
 62
     0
 10
167.495
 20
69.033
 30
0.0
 11
168.296
 21
69.033
 31
0.0
  0
LINE
  8
0
 62
     0
 10
168.296
 20
69.033
 30
0.0
 11
168.296
 21
72.1321
 31
0.0
  0
LINE
  8
0
 62
     0
 10
168.296
 20
72.1321
 30
0.0
 11
167.495
 21
72.1321
 31
0.0
  0
LINE
  8
0
 62
     0
 10
167.495
 20
72.1321
 30
0.0
 11
167.495
 21
77.9321
 31
0.0
  0
LINE
  8
0
 62
     0
 10
167.495
 20
77.9321
 30
0.0
 11
168.296
 21
77.9321
 31
0.0
  0
LINE
  8
0
 62
     0
 10
168.296
 20
77.9321
 30
0.0
 11
168.296
 21
81.0327
 31
0.0
  0
LINE
  8
0
 62
     0
 10
168.296
 20
81.0327
 30
0.0
 11
167.495
 21
81.0327
 31
0.0
  0
LINE
  8
0
 62
     0
 10
167.495
 20
81.0327
 30
0.0
 11
167.495
 21
82.0318
 31
0.0
  0
LINE
  8
0
 62
     0
 10
167.495
 20
82.0318
 30
0.0
 11
153.495
 21
82.0318
 31
0.0
  0
LINE
  8
0
 62
     0
 10
134.445
 20
82.0318
 30
0.0
 11
134.445
 21
81.0327
 31
0.0
  0
LINE
  8
0
 62
     0
 10
134.445
 20
81.0327
 30
0.0
 11
133.645
 21
81.0327
 31
0.0
  0
LINE
  8
0
 62
     0
 10
133.645
 20
81.0327
 30
0.0
 11
133.645
 21
77.9321
 31
0.0
  0
LINE
  8
0
 62
     0
 10
133.645
 20
77.9321
 30
0.0
 11
134.445
 21
77.9321
 31
0.0
  0
LINE
  8
0
 62
     0
 10
134.445
 20
77.9321
 30
0.0
 11
134.445
 21
72.1321
 31
0.0
  0
LINE
  8
0
 62
     0
 10
134.445
 20
72.1321
 30
0.0
 11
133.645
 21
72.1321
 31
0.0
  0
LINE
  8
0
 62
     0
 10
133.645
 20
72.1321
 30
0.0
 11
133.645
 21
69.033
 31
0.0
  0
LINE
  8
0
 62
     0
 10
133.645
 20
69.033
 30
0.0
 11
134.445
 21
69.033
 31
0.0
  0
LINE
  8
0
 62
     0
 10
134.445
 20
69.033
 30
0.0
 11
134.445
 21
68.0325
 31
0.0
  0
LINE
  8
0
 62
     0
 10
134.445
 20
68.0325
 30
0.0
 11
148.445
 21
68.0325
 31
0.0
  0
LINE
  8
0
 62
     0
 10
148.445
 20
68.0325
 30
0.0
 11
148.445
 21
69.033
 31
0.0
  0
LINE
  8
0
 62
     0
 10
148.445
 20
69.033
 30
0.0
 11
149.246
 21
69.033
 31
0.0
  0
LINE
  8
0
 62
     0
 10
149.246
 20
69.033
 30
0.0
 11
149.246
 21
72.1321
 31
0.0
  0
LINE
  8
0
 62
     0
 10
149.246
 20
72.1321
 30
0.0
 11
148.445
 21
72.1321
 31
0.0
  0
LINE
  8
0
 62
     0
 10
148.445
 20
72.1321
 30
0.0
 11
148.445
 21
77.9321
 31
0.0
  0
LINE
  8
0
 62
     0
 10
148.445
 20
77.9321
 30
0.0
 11
149.246
 21
77.9321
 31
0.0
  0
LINE
  8
0
 62
     0
 10
149.246
 20
77.9321
 30
0.0
 11
149.246
 21
81.0327
 31
0.0
  0
LINE
  8
0
 62
     0
 10
149.246
 20
81.0327
 30
0.0
 11
148.445
 21
81.0327
 31
0.0
  0
LINE
  8
0
 62
     0
 10
148.445
 20
81.0327
 30
0.0
 11
148.445
 21
82.0318
 31
0.0
  0
LINE
  8
0
 62
     0
 10
148.445
 20
82.0318
 30
0.0
 11
134.445
 21
82.0318
 31
0.0
  0
LINE
  8
0
 62
     0
 10
115.395
 20
82.0318
 30
0.0
 11
115.395
 21
81.0327
 31
0.0
  0
LINE
  8
0
 62
     0
 10
115.395
 20
81.0327
 30
0.0
 11
114.595
 21
81.0327
 31
0.0
  0
LINE
  8
0
 62
     0
 10
114.595
 20
81.0327
 30
0.0
 11
114.595
 21
77.9321
 31
0.0
  0
LINE
  8
0
 62
     0
 10
114.595
 20
77.9321
 30
0.0
 11
115.395
 21
77.9321
 31
0.0
  0
LINE
  8
0
 62
     0
 10
115.395
 20
77.9321
 30
0.0
 11
115.395
 21
72.1321
 31
0.0
  0
LINE
  8
0
 62
     0
 10
115.395
 20
72.1321
 30
0.0
 11
114.595
 21
72.1321
 31
0.0
  0
LINE
  8
0
 62
     0
 10
114.595
 20
72.1321
 30
0.0
 11
114.595
 21
69.033
 31
0.0
  0
LINE
  8
0
 62
     0
 10
114.595
 20
69.033
 30
0.0
 11
115.395
 21
69.033
 31
0.0
  0
LINE
  8
0
 62
     0
 10
115.395
 20
69.033
 30
0.0
 11
115.395
 21
68.0325
 31
0.0
  0
LINE
  8
0
 62
     0
 10
115.395
 20
68.0325
 30
0.0
 11
129.395
 21
68.0325
 31
0.0
  0
LINE
  8
0
 62
     0
 10
129.395
 20
68.0325
 30
0.0
 11
129.395
 21
69.033
 31
0.0
  0
LINE
  8
0
 62
     0
 10
129.395
 20
69.033
 30
0.0
 11
130.196
 21
69.033
 31
0.0
  0
LINE
  8
0
 62
     0
 10
130.196
 20
69.033
 30
0.0
 11
130.196
 21
72.1321
 31
0.0
  0
LINE
  8
0
 62
     0
 10
130.196
 20
72.1321
 30
0.0
 11
129.395
 21
72.1321
 31
0.0
  0
LINE
  8
0
 62
     0
 10
129.395
 20
72.1321
 30
0.0
 11
129.395
 21
77.9321
 31
0.0
  0
LINE
  8
0
 62
     0
 10
129.395
 20
77.9321
 30
0.0
 11
130.196
 21
77.9321
 31
0.0
  0
LINE
  8
0
 62
     0
 10
130.196
 20
77.9321
 30
0.0
 11
130.196
 21
81.0327
 31
0.0
  0
LINE
  8
0
 62
     0
 10
130.196
 20
81.0327
 30
0.0
 11
129.395
 21
81.0327
 31
0.0
  0
LINE
  8
0
 62
     0
 10
129.395
 20
81.0327
 30
0.0
 11
129.395
 21
82.0318
 31
0.0
  0
LINE
  8
0
 62
     0
 10
129.395
 20
82.0318
 30
0.0
 11
115.395
 21
82.0318
 31
0.0
  0
LINE
  8
0
 62
     0
 10
96.3454
 20
82.0318
 30
0.0
 11
96.3454
 21
81.0327
 31
0.0
  0
LINE
  8
0
 62
     0
 10
96.3454
 20
81.0327
 30
0.0
 11
95.5449
 21
81.0327
 31
0.0
  0
LINE
  8
0
 62
     0
 10
95.5449
 20
81.0327
 30
0.0
 11
95.5449
 21
77.9321
 31
0.0
  0
LINE
  8
0
 62
     0
 10
95.5449
 20
77.9321
 30
0.0
 11
96.3454
 21
77.9321
 31
0.0
  0
LINE
  8
0
 62
     0
 10
96.3454
 20
77.9321
 30
0.0
 11
96.3454
 21
72.1321
 31
0.0
  0
LINE
  8
0
 62
     0
 10
96.3454
 20
72.1321
 30
0.0
 11
95.5449
 21
72.1321
 31
0.0
  0
LINE
  8
0
 62
     0
 10
95.5449
 20
72.1321
 30
0.0
 11
95.5449
 21
69.033
 31
0.0
  0
LINE
  8
0
 62
     0
 10
95.5449
 20
69.033
 30
0.0
 11
96.3454
 21
69.033
 31
0.0
  0
LINE
  8
0
 62
     0
 10
96.3454
 20
69.033
 30
0.0
 11
96.3454
 21
68.0325
 31
0.0
  0
LINE
  8
0
 62
     0
 10
96.3454
 20
68.0325
 30
0.0
 11
110.345
 21
68.0325
 31
0.0
  0
LINE
  8
0
 62
     0
 10
110.345
 20
68.0325
 30
0.0
 11
110.345
 21
69.033
 31
0.0
  0
LINE
  8
0
 62
     0
 10
110.345
 20
69.033
 30
0.0
 11
111.146
 21
69.033
 31
0.0
  0
LINE
  8
0
 62
     0
 10
111.146
 20
69.033
 30
0.0
 11
111.146
 21
72.1321
 31
0.0
  0
LINE
  8
0
 62
     0
 10
111.146
 20
72.1321
 30
0.0
 11
110.345
 21
72.1321
 31
0.0
  0
LINE
  8
0
 62
     0
 10
110.345
 20
72.1321
 30
0.0
 11
110.345
 21
77.9321
 31
0.0
  0
LINE
  8
0
 62
     0
 10
110.345
 20
77.9321
 30
0.0
 11
111.146
 21
77.9321
 31
0.0
  0
LINE
  8
0
 62
     0
 10
111.146
 20
77.9321
 30
0.0
 11
111.146
 21
81.0327
 31
0.0
  0
LINE
  8
0
 62
     0
 10
111.146
 20
81.0327
 30
0.0
 11
110.345
 21
81.0327
 31
0.0
  0
LINE
  8
0
 62
     0
 10
110.345
 20
81.0327
 30
0.0
 11
110.345
 21
82.0318
 31
0.0
  0
LINE
  8
0
 62
     0
 10
110.345
 20
82.0318
 30
0.0
 11
96.3454
 21
82.0318
 31
0.0
  0
LINE
  8
0
 62
     0
 10
77.2954
 20
82.0318
 30
0.0
 11
77.2954
 21
81.0327
 31
0.0
  0
LINE
  8
0
 62
     0
 10
77.2954
 20
81.0327
 30
0.0
 11
76.4949
 21
81.0327
 31
0.0
  0
LINE
  8
0
 62
     0
 10
76.4949
 20
81.0327
 30
0.0
 11
76.4949
 21
77.9321
 31
0.0
  0
LINE
  8
0
 62
     0
 10
76.4949
 20
77.9321
 30
0.0
 11
77.2954
 21
77.9321
 31
0.0
  0
LINE
  8
0
 62
     0
 10
77.2954
 20
77.9321
 30
0.0
 11
77.2954
 21
72.1321
 31
0.0
  0
LINE
  8
0
 62
     0
 10
77.2954
 20
72.1321
 30
0.0
 11
76.4949
 21
72.1321
 31
0.0
  0
LINE
  8
0
 62
     0
 10
76.4949
 20
72.1321
 30
0.0
 11
76.4949
 21
69.033
 31
0.0
  0
LINE
  8
0
 62
     0
 10
76.4949
 20
69.033
 30
0.0
 11
77.2954
 21
69.033
 31
0.0
  0
LINE
  8
0
 62
     0
 10
77.2954
 20
69.033
 30
0.0
 11
77.2954
 21
68.0325
 31
0.0
  0
LINE
  8
0
 62
     0
 10
77.2954
 20
68.0325
 30
0.0
 11
91.295
 21
68.0325
 31
0.0
  0
LINE
  8
0
 62
     0
 10
91.295
 20
68.0325
 30
0.0
 11
91.295
 21
69.033
 31
0.0
  0
LINE
  8
0
 62
     0
 10
91.295
 20
69.033
 30
0.0
 11
92.0958
 21
69.033
 31
0.0
  0
LINE
  8
0
 62
     0
 10
92.0958
 20
69.033
 30
0.0
 11
92.0958
 21
72.1321
 31
0.0
  0
LINE
  8
0
 62
     0
 10
92.0958
 20
72.1321
 30
0.0
 11
91.295
 21
72.1321
 31
0.0
  0
LINE
  8
0
 62
     0
 10
91.295
 20
72.1321
 30
0.0
 11
91.295
 21
77.9321
 31
0.0
  0
LINE
  8
0
 62
     0
 10
91.295
 20
77.9321
 30
0.0
 11
92.0958
 21
77.9321
 31
0.0
  0
LINE
  8
0
 62
     0
 10
92.0958
 20
77.9321
 30
0.0
 11
92.0958
 21
81.0327
 31
0.0
  0
LINE
  8
0
 62
     0
 10
92.0958
 20
81.0327
 30
0.0
 11
91.295
 21
81.0327
 31
0.0
  0
LINE
  8
0
 62
     0
 10
91.295
 20
81.0327
 30
0.0
 11
91.295
 21
82.0318
 31
0.0
  0
LINE
  8
0
 62
     0
 10
91.295
 20
82.0318
 30
0.0
 11
77.2954
 21
82.0318
 31
0.0
  0
LINE
  8
0
 62
     0
 10
58.2454
 20
82.0318
 30
0.0
 11
58.2454
 21
81.0327
 31
0.0
  0
LINE
  8
0
 62
     0
 10
58.2454
 20
81.0327
 30
0.0
 11
57.4449
 21
81.0327
 31
0.0
  0
LINE
  8
0
 62
     0
 10
57.4449
 20
81.0327
 30
0.0
 11
57.4449
 21
77.9321
 31
0.0
  0
LINE
  8
0
 62
     0
 10
57.4449
 20
77.9321
 30
0.0
 11
58.2454
 21
77.9321
 31
0.0
  0
LINE
  8
0
 62
     0
 10
58.2454
 20
77.9321
 30
0.0
 11
58.2454
 21
72.1321
 31
0.0
  0
LINE
  8
0
 62
     0
 10
58.2454
 20
72.1321
 30
0.0
 11
57.4449
 21
72.1321
 31
0.0
  0
LINE
  8
0
 62
     0
 10
57.4449
 20
72.1321
 30
0.0
 11
57.4449
 21
69.033
 31
0.0
  0
LINE
  8
0
 62
     0
 10
57.4449
 20
69.033
 30
0.0
 11
58.2454
 21
69.033
 31
0.0
  0
LINE
  8
0
 62
     0
 10
58.2454
 20
69.033
 30
0.0
 11
58.2454
 21
68.0325
 31
0.0
  0
LINE
  8
0
 62
     0
 10
58.2454
 20
68.0325
 30
0.0
 11
72.245
 21
68.0325
 31
0.0
  0
LINE
  8
0
 62
     0
 10
72.245
 20
68.0325
 30
0.0
 11
72.245
 21
69.033
 31
0.0
  0
LINE
  8
0
 62
     0
 10
72.245
 20
69.033
 30
0.0
 11
73.0458
 21
69.033
 31
0.0
  0
LINE
  8
0
 62
     0
 10
73.0458
 20
69.033
 30
0.0
 11
73.0458
 21
72.1321
 31
0.0
  0
LINE
  8
0
 62
     0
 10
73.0458
 20
72.1321
 30
0.0
 11
72.245
 21
72.1321
 31
0.0
  0
LINE
  8
0
 62
     0
 10
72.245
 20
72.1321
 30
0.0
 11
72.245
 21
77.9321
 31
0.0
  0
LINE
  8
0
 62
     0
 10
72.245
 20
77.9321
 30
0.0
 11
73.0458
 21
77.9321
 31
0.0
  0
LINE
  8
0
 62
     0
 10
73.0458
 20
77.9321
 30
0.0
 11
73.0458
 21
81.0327
 31
0.0
  0
LINE
  8
0
 62
     0
 10
73.0458
 20
81.0327
 30
0.0
 11
72.245
 21
81.0327
 31
0.0
  0
LINE
  8
0
 62
     0
 10
72.245
 20
81.0327
 30
0.0
 11
72.245
 21
82.0318
 31
0.0
  0
LINE
  8
0
 62
     0
 10
72.245
 20
82.0318
 30
0.0
 11
58.2454
 21
82.0318
 31
0.0
  0
LINE
  8
0
 62
     0
 10
39.1954
 20
82.0318
 30
0.0
 11
39.1954
 21
81.0327
 31
0.0
  0
LINE
  8
0
 62
     0
 10
39.1954
 20
81.0327
 30
0.0
 11
38.3949
 21
81.0327
 31
0.0
  0
LINE
  8
0
 62
     0
 10
38.3949
 20
81.0327
 30
0.0
 11
38.3949
 21
77.9321
 31
0.0
  0
LINE
  8
0
 62
     0
 10
38.3949
 20
77.9321
 30
0.0
 11
39.1954
 21
77.9321
 31
0.0
  0
LINE
  8
0
 62
     0
 10
39.1954
 20
77.9321
 30
0.0
 11
39.1954
 21
72.1321
 31
0.0
  0
LINE
  8
0
 62
     0
 10
39.1954
 20
72.1321
 30
0.0
 11
38.3949
 21
72.1321
 31
0.0
  0
LINE
  8
0
 62
     0
 10
38.3949
 20
72.1321
 30
0.0
 11
38.3949
 21
69.033
 31
0.0
  0
LINE
  8
0
 62
     0
 10
38.3949
 20
69.033
 30
0.0
 11
39.1954
 21
69.033
 31
0.0
  0
LINE
  8
0
 62
     0
 10
39.1954
 20
69.033
 30
0.0
 11
39.1954
 21
68.0325
 31
0.0
  0
LINE
  8
0
 62
     0
 10
39.1954
 20
68.0325
 30
0.0
 11
53.195
 21
68.0325
 31
0.0
  0
LINE
  8
0
 62
     0
 10
53.195
 20
68.0325
 30
0.0
 11
53.195
 21
69.033
 31
0.0
  0
LINE
  8
0
 62
     0
 10
53.195
 20
69.033
 30
0.0
 11
53.9958
 21
69.033
 31
0.0
  0
LINE
  8
0
 62
     0
 10
53.9958
 20
69.033
 30
0.0
 11
53.9958
 21
72.1321
 31
0.0
  0
LINE
  8
0
 62
     0
 10
53.9958
 20
72.1321
 30
0.0
 11
53.195
 21
72.1321
 31
0.0
  0
LINE
  8
0
 62
     0
 10
53.195
 20
72.1321
 30
0.0
 11
53.195
 21
77.9321
 31
0.0
  0
LINE
  8
0
 62
     0
 10
53.195
 20
77.9321
 30
0.0
 11
53.9958
 21
77.9321
 31
0.0
  0
LINE
  8
0
 62
     0
 10
53.9958
 20
77.9321
 30
0.0
 11
53.9958
 21
81.0327
 31
0.0
  0
LINE
  8
0
 62
     0
 10
53.9958
 20
81.0327
 30
0.0
 11
53.195
 21
81.0327
 31
0.0
  0
LINE
  8
0
 62
     0
 10
53.195
 20
81.0327
 30
0.0
 11
53.195
 21
82.0318
 31
0.0
  0
LINE
  8
0
 62
     0
 10
53.195
 20
82.0318
 30
0.0
 11
39.1954
 21
82.0318
 31
0.0
  0
LINE
  8
0
 62
     0
 10
15.3831
 20
82.0318
 30
0.0
 11
15.3831
 21
81.0327
 31
0.0
  0
LINE
  8
0
 62
     0
 10
15.3831
 20
81.0327
 30
0.0
 11
14.5824
 21
81.0327
 31
0.0
  0
LINE
  8
0
 62
     0
 10
14.5824
 20
81.0327
 30
0.0
 11
14.5824
 21
77.9321
 31
0.0
  0
LINE
  8
0
 62
     0
 10
14.5824
 20
77.9321
 30
0.0
 11
15.3831
 21
77.9321
 31
0.0
  0
LINE
  8
0
 62
     0
 10
15.3831
 20
77.9321
 30
0.0
 11
15.3831
 21
72.1321
 31
0.0
  0
LINE
  8
0
 62
     0
 10
15.3831
 20
72.1321
 30
0.0
 11
14.5824
 21
72.1321
 31
0.0
  0
LINE
  8
0
 62
     0
 10
14.5824
 20
72.1321
 30
0.0
 11
14.5824
 21
69.033
 31
0.0
  0
LINE
  8
0
 62
     0
 10
14.5824
 20
69.033
 30
0.0
 11
15.3831
 21
69.033
 31
0.0
  0
LINE
  8
0
 62
     0
 10
15.3831
 20
69.033
 30
0.0
 11
15.3831
 21
68.0325
 31
0.0
  0
LINE
  8
0
 62
     0
 10
15.3831
 20
68.0325
 30
0.0
 11
29.3825
 21
68.0325
 31
0.0
  0
LINE
  8
0
 62
     0
 10
29.3825
 20
68.0325
 30
0.0
 11
29.3825
 21
69.033
 31
0.0
  0
LINE
  8
0
 62
     0
 10
29.3825
 20
69.033
 30
0.0
 11
30.1832
 21
69.033
 31
0.0
  0
LINE
  8
0
 62
     0
 10
30.1832
 20
69.033
 30
0.0
 11
30.1832
 21
72.1321
 31
0.0
  0
LINE
  8
0
 62
     0
 10
30.1832
 20
72.1321
 30
0.0
 11
29.3825
 21
72.1321
 31
0.0
  0
LINE
  8
0
 62
     0
 10
29.3825
 20
72.1321
 30
0.0
 11
29.3825
 21
77.9321
 31
0.0
  0
LINE
  8
0
 62
     0
 10
29.3825
 20
77.9321
 30
0.0
 11
30.1832
 21
77.9321
 31
0.0
  0
LINE
  8
0
 62
     0
 10
30.1832
 20
77.9321
 30
0.0
 11
30.1832
 21
81.0327
 31
0.0
  0
LINE
  8
0
 62
     0
 10
30.1832
 20
81.0327
 30
0.0
 11
29.3825
 21
81.0327
 31
0.0
  0
LINE
  8
0
 62
     0
 10
29.3825
 20
81.0327
 30
0.0
 11
29.3825
 21
82.0318
 31
0.0
  0
LINE
  8
0
 62
     0
 10
29.3825
 20
82.0318
 30
0.0
 11
15.3831
 21
82.0318
 31
0.0
  0
LINE
  8
0
 62
     0
 10
267.795
 20
101.082
 30
0.0
 11
267.795
 21
100.083
 31
0.0
  0
LINE
  8
0
 62
     0
 10
267.795
 20
100.083
 30
0.0
 11
266.995
 21
100.083
 31
0.0
  0
LINE
  8
0
 62
     0
 10
266.995
 20
100.083
 30
0.0
 11
266.995
 21
96.9821
 31
0.0
  0
LINE
  8
0
 62
     0
 10
266.995
 20
96.9821
 30
0.0
 11
267.795
 21
96.9821
 31
0.0
  0
LINE
  8
0
 62
     0
 10
267.795
 20
96.9821
 30
0.0
 11
267.795
 21
96.3828
 31
0.0
  0
LINE
  8
0
 62
     0
 10
267.795
 20
96.3828
 30
0.0
 11
266.27
 21
96.3828
 31
0.0
  0
LINE
  8
0
 62
     0
 10
266.27
 20
96.3828
 30
0.0
 11
266.27
 21
99.6128
 31
0.0
  0
LINE
  8
0
 62
     0
 10
266.27
 20
99.6128
 30
0.0
 11
264.546
 21
99.6128
 31
0.0
  0
LINE
  8
0
 62
     0
 10
264.546
 20
99.6128
 30
0.0
 11
264.546
 21
100.534
 31
0.0
  0
LINE
  8
0
 62
     0
 10
264.546
 20
100.534
 30
0.0
 11
261.246
 21
100.534
 31
0.0
  0
LINE
  8
0
 62
     0
 10
261.246
 20
100.534
 30
0.0
 11
261.246
 21
99.6128
 31
0.0
  0
LINE
  8
0
 62
     0
 10
261.246
 20
99.6128
 30
0.0
 11
259.52
 21
99.6128
 31
0.0
  0
LINE
  8
0
 62
     0
 10
259.52
 20
99.6128
 30
0.0
 11
259.52
 21
96.3828
 31
0.0
  0
LINE
  8
0
 62
     0
 10
259.52
 20
96.3828
 30
0.0
 11
258.695
 21
96.3828
 31
0.0
  0
LINE
  8
0
 62
     0
 10
258.695
 20
96.3828
 30
0.0
 11
258.695
 21
93.5824
 31
0.0
  0
LINE
  8
0
 62
     0
 10
258.695
 20
93.5824
 30
0.0
 11
259.52
 21
93.5824
 31
0.0
  0
LINE
  8
0
 62
     0
 10
259.52
 20
93.5824
 30
0.0
 11
259.52
 21
87.3125
 31
0.0
  0
LINE
  8
0
 62
     0
 10
259.52
 20
87.3125
 30
0.0
 11
261.246
 21
87.3125
 31
0.0
  0
LINE
  8
0
 62
     0
 10
261.246
 20
87.3125
 30
0.0
 11
261.246
 21
86.3328
 31
0.0
  0
LINE
  8
0
 62
     0
 10
261.246
 20
86.3328
 30
0.0
 11
264.546
 21
86.3328
 31
0.0
  0
LINE
  8
0
 62
     0
 10
264.546
 20
86.3328
 30
0.0
 11
264.546
 21
87.3125
 31
0.0
  0
LINE
  8
0
 62
     0
 10
264.546
 20
87.3125
 30
0.0
 11
266.27
 21
87.3125
 31
0.0
  0
LINE
  8
0
 62
     0
 10
266.27
 20
87.3125
 30
0.0
 11
266.27
 21
91.7829
 31
0.0
  0
LINE
  8
0
 62
     0
 10
266.27
 20
91.7829
 30
0.0
 11
267.795
 21
91.7829
 31
0.0
  0
LINE
  8
0
 62
     0
 10
267.795
 20
91.7829
 30
0.0
 11
267.795
 21
91.1821
 31
0.0
  0
LINE
  8
0
 62
     0
 10
267.795
 20
91.1821
 30
0.0
 11
266.995
 21
91.1821
 31
0.0
  0
LINE
  8
0
 62
     0
 10
266.995
 20
91.1821
 30
0.0
 11
266.995
 21
88.083
 31
0.0
  0
LINE
  8
0
 62
     0
 10
266.995
 20
88.083
 30
0.0
 11
267.795
 21
88.083
 31
0.0
  0
LINE
  8
0
 62
     0
 10
267.795
 20
88.083
 30
0.0
 11
267.795
 21
87.0825
 31
0.0
  0
LINE
  8
0
 62
     0
 10
267.795
 20
87.0825
 30
0.0
 11
281.795
 21
87.0825
 31
0.0
  0
LINE
  8
0
 62
     0
 10
281.795
 20
87.0825
 30
0.0
 11
281.795
 21
88.083
 31
0.0
  0
LINE
  8
0
 62
     0
 10
281.795
 20
88.083
 30
0.0
 11
282.596
 21
88.083
 31
0.0
  0
LINE
  8
0
 62
     0
 10
282.596
 20
88.083
 30
0.0
 11
282.596
 21
91.1821
 31
0.0
  0
LINE
  8
0
 62
     0
 10
282.596
 20
91.1821
 30
0.0
 11
281.795
 21
91.1821
 31
0.0
  0
LINE
  8
0
 62
     0
 10
281.795
 20
91.1821
 30
0.0
 11
281.795
 21
91.7829
 31
0.0
  0
LINE
  8
0
 62
     0
 10
281.795
 20
91.7829
 30
0.0
 11
283.32
 21
91.7829
 31
0.0
  0
LINE
  8
0
 62
     0
 10
283.32
 20
91.7829
 30
0.0
 11
283.32
 21
87.3125
 31
0.0
  0
LINE
  8
0
 62
     0
 10
283.32
 20
87.3125
 30
0.0
 11
285.046
 21
87.3125
 31
0.0
  0
LINE
  8
0
 62
     0
 10
285.046
 20
87.3125
 30
0.0
 11
285.046
 21
86.3328
 31
0.0
  0
LINE
  8
0
 62
     0
 10
285.046
 20
86.3328
 30
0.0
 11
288.345
 21
86.3328
 31
0.0
  0
LINE
  8
0
 62
     0
 10
288.345
 20
86.3328
 30
0.0
 11
288.345
 21
87.3125
 31
0.0
  0
LINE
  8
0
 62
     0
 10
288.345
 20
87.3125
 30
0.0
 11
290.07
 21
87.3125
 31
0.0
  0
LINE
  8
0
 62
     0
 10
290.07
 20
87.3125
 30
0.0
 11
290.07
 21
93.5824
 31
0.0
  0
LINE
  8
0
 62
     0
 10
290.07
 20
93.5824
 30
0.0
 11
290.896
 21
93.5824
 31
0.0
  0
LINE
  8
0
 62
     0
 10
290.896
 20
93.5824
 30
0.0
 11
290.896
 21
96.3828
 31
0.0
  0
LINE
  8
0
 62
     0
 10
290.896
 20
96.3828
 30
0.0
 11
290.07
 21
96.3828
 31
0.0
  0
LINE
  8
0
 62
     0
 10
290.07
 20
96.3828
 30
0.0
 11
290.07
 21
99.6128
 31
0.0
  0
LINE
  8
0
 62
     0
 10
290.07
 20
99.6128
 30
0.0
 11
288.345
 21
99.6128
 31
0.0
  0
LINE
  8
0
 62
     0
 10
288.345
 20
99.6128
 30
0.0
 11
288.345
 21
100.534
 31
0.0
  0
LINE
  8
0
 62
     0
 10
288.345
 20
100.534
 30
0.0
 11
285.046
 21
100.534
 31
0.0
  0
LINE
  8
0
 62
     0
 10
285.046
 20
100.534
 30
0.0
 11
285.046
 21
99.6128
 31
0.0
  0
LINE
  8
0
 62
     0
 10
285.046
 20
99.6128
 30
0.0
 11
283.32
 21
99.6128
 31
0.0
  0
LINE
  8
0
 62
     0
 10
283.32
 20
99.6128
 30
0.0
 11
283.32
 21
96.3828
 31
0.0
  0
LINE
  8
0
 62
     0
 10
283.32
 20
96.3828
 30
0.0
 11
281.795
 21
96.3828
 31
0.0
  0
LINE
  8
0
 62
     0
 10
281.795
 20
96.3828
 30
0.0
 11
281.795
 21
96.9821
 31
0.0
  0
LINE
  8
0
 62
     0
 10
281.795
 20
96.9821
 30
0.0
 11
282.596
 21
96.9821
 31
0.0
  0
LINE
  8
0
 62
     0
 10
282.596
 20
96.9821
 30
0.0
 11
282.596
 21
100.083
 31
0.0
  0
LINE
  8
0
 62
     0
 10
282.596
 20
100.083
 30
0.0
 11
281.795
 21
100.083
 31
0.0
  0
LINE
  8
0
 62
     0
 10
281.795
 20
100.083
 30
0.0
 11
281.795
 21
101.082
 31
0.0
  0
LINE
  8
0
 62
     0
 10
281.795
 20
101.082
 30
0.0
 11
267.795
 21
101.082
 31
0.0
  0
LINE
  8
0
 62
     0
 10
239.22
 20
101.082
 30
0.0
 11
239.22
 21
100.083
 31
0.0
  0
LINE
  8
0
 62
     0
 10
239.22
 20
100.083
 30
0.0
 11
238.42
 21
100.083
 31
0.0
  0
LINE
  8
0
 62
     0
 10
238.42
 20
100.083
 30
0.0
 11
238.42
 21
96.9821
 31
0.0
  0
LINE
  8
0
 62
     0
 10
238.42
 20
96.9821
 30
0.0
 11
239.22
 21
96.9821
 31
0.0
  0
LINE
  8
0
 62
     0
 10
239.22
 20
96.9821
 30
0.0
 11
239.22
 21
91.1821
 31
0.0
  0
LINE
  8
0
 62
     0
 10
239.22
 20
91.1821
 30
0.0
 11
238.42
 21
91.1821
 31
0.0
  0
LINE
  8
0
 62
     0
 10
238.42
 20
91.1821
 30
0.0
 11
238.42
 21
88.083
 31
0.0
  0
LINE
  8
0
 62
     0
 10
238.42
 20
88.083
 30
0.0
 11
239.22
 21
88.083
 31
0.0
  0
LINE
  8
0
 62
     0
 10
239.22
 20
88.083
 30
0.0
 11
239.22
 21
87.0825
 31
0.0
  0
LINE
  8
0
 62
     0
 10
239.22
 20
87.0825
 30
0.0
 11
253.22
 21
87.0825
 31
0.0
  0
LINE
  8
0
 62
     0
 10
253.22
 20
87.0825
 30
0.0
 11
253.22
 21
88.083
 31
0.0
  0
LINE
  8
0
 62
     0
 10
253.22
 20
88.083
 30
0.0
 11
254.021
 21
88.083
 31
0.0
  0
LINE
  8
0
 62
     0
 10
254.021
 20
88.083
 30
0.0
 11
254.021
 21
91.1821
 31
0.0
  0
LINE
  8
0
 62
     0
 10
254.021
 20
91.1821
 30
0.0
 11
253.22
 21
91.1821
 31
0.0
  0
LINE
  8
0
 62
     0
 10
253.22
 20
91.1821
 30
0.0
 11
253.22
 21
96.9821
 31
0.0
  0
LINE
  8
0
 62
     0
 10
253.22
 20
96.9821
 30
0.0
 11
254.021
 21
96.9821
 31
0.0
  0
LINE
  8
0
 62
     0
 10
254.021
 20
96.9821
 30
0.0
 11
254.021
 21
100.083
 31
0.0
  0
LINE
  8
0
 62
     0
 10
254.021
 20
100.083
 30
0.0
 11
253.22
 21
100.083
 31
0.0
  0
LINE
  8
0
 62
     0
 10
253.22
 20
100.083
 30
0.0
 11
253.22
 21
101.082
 31
0.0
  0
LINE
  8
0
 62
     0
 10
253.22
 20
101.082
 30
0.0
 11
239.22
 21
101.082
 31
0.0
  0
LINE
  8
0
 62
     0
 10
220.17
 20
101.082
 30
0.0
 11
220.17
 21
100.083
 31
0.0
  0
LINE
  8
0
 62
     0
 10
220.17
 20
100.083
 30
0.0
 11
219.37
 21
100.083
 31
0.0
  0
LINE
  8
0
 62
     0
 10
219.37
 20
100.083
 30
0.0
 11
219.37
 21
96.9821
 31
0.0
  0
LINE
  8
0
 62
     0
 10
219.37
 20
96.9821
 30
0.0
 11
220.17
 21
96.9821
 31
0.0
  0
LINE
  8
0
 62
     0
 10
220.17
 20
96.9821
 30
0.0
 11
220.17
 21
91.1821
 31
0.0
  0
LINE
  8
0
 62
     0
 10
220.17
 20
91.1821
 30
0.0
 11
219.37
 21
91.1821
 31
0.0
  0
LINE
  8
0
 62
     0
 10
219.37
 20
91.1821
 30
0.0
 11
219.37
 21
88.083
 31
0.0
  0
LINE
  8
0
 62
     0
 10
219.37
 20
88.083
 30
0.0
 11
220.17
 21
88.083
 31
0.0
  0
LINE
  8
0
 62
     0
 10
220.17
 20
88.083
 30
0.0
 11
220.17
 21
87.0825
 31
0.0
  0
LINE
  8
0
 62
     0
 10
220.17
 20
87.0825
 30
0.0
 11
234.17
 21
87.0825
 31
0.0
  0
LINE
  8
0
 62
     0
 10
234.17
 20
87.0825
 30
0.0
 11
234.17
 21
88.083
 31
0.0
  0
LINE
  8
0
 62
     0
 10
234.17
 20
88.083
 30
0.0
 11
234.971
 21
88.083
 31
0.0
  0
LINE
  8
0
 62
     0
 10
234.971
 20
88.083
 30
0.0
 11
234.971
 21
91.1821
 31
0.0
  0
LINE
  8
0
 62
     0
 10
234.971
 20
91.1821
 30
0.0
 11
234.17
 21
91.1821
 31
0.0
  0
LINE
  8
0
 62
     0
 10
234.17
 20
91.1821
 30
0.0
 11
234.17
 21
96.9821
 31
0.0
  0
LINE
  8
0
 62
     0
 10
234.17
 20
96.9821
 30
0.0
 11
234.971
 21
96.9821
 31
0.0
  0
LINE
  8
0
 62
     0
 10
234.971
 20
96.9821
 30
0.0
 11
234.971
 21
100.083
 31
0.0
  0
LINE
  8
0
 62
     0
 10
234.971
 20
100.083
 30
0.0
 11
234.17
 21
100.083
 31
0.0
  0
LINE
  8
0
 62
     0
 10
234.17
 20
100.083
 30
0.0
 11
234.17
 21
101.082
 31
0.0
  0
LINE
  8
0
 62
     0
 10
234.17
 20
101.082
 30
0.0
 11
220.17
 21
101.082
 31
0.0
  0
LINE
  8
0
 62
     0
 10
201.12
 20
101.082
 30
0.0
 11
201.12
 21
100.083
 31
0.0
  0
LINE
  8
0
 62
     0
 10
201.12
 20
100.083
 30
0.0
 11
200.32
 21
100.083
 31
0.0
  0
LINE
  8
0
 62
     0
 10
200.32
 20
100.083
 30
0.0
 11
200.32
 21
96.9821
 31
0.0
  0
LINE
  8
0
 62
     0
 10
200.32
 20
96.9821
 30
0.0
 11
201.12
 21
96.9821
 31
0.0
  0
LINE
  8
0
 62
     0
 10
201.12
 20
96.9821
 30
0.0
 11
201.12
 21
91.1821
 31
0.0
  0
LINE
  8
0
 62
     0
 10
201.12
 20
91.1821
 30
0.0
 11
200.32
 21
91.1821
 31
0.0
  0
LINE
  8
0
 62
     0
 10
200.32
 20
91.1821
 30
0.0
 11
200.32
 21
88.083
 31
0.0
  0
LINE
  8
0
 62
     0
 10
200.32
 20
88.083
 30
0.0
 11
201.12
 21
88.083
 31
0.0
  0
LINE
  8
0
 62
     0
 10
201.12
 20
88.083
 30
0.0
 11
201.12
 21
87.0825
 31
0.0
  0
LINE
  8
0
 62
     0
 10
201.12
 20
87.0825
 30
0.0
 11
215.12
 21
87.0825
 31
0.0
  0
LINE
  8
0
 62
     0
 10
215.12
 20
87.0825
 30
0.0
 11
215.12
 21
88.083
 31
0.0
  0
LINE
  8
0
 62
     0
 10
215.12
 20
88.083
 30
0.0
 11
215.921
 21
88.083
 31
0.0
  0
LINE
  8
0
 62
     0
 10
215.921
 20
88.083
 30
0.0
 11
215.921
 21
91.1821
 31
0.0
  0
LINE
  8
0
 62
     0
 10
215.921
 20
91.1821
 30
0.0
 11
215.12
 21
91.1821
 31
0.0
  0
LINE
  8
0
 62
     0
 10
215.12
 20
91.1821
 30
0.0
 11
215.12
 21
96.9821
 31
0.0
  0
LINE
  8
0
 62
     0
 10
215.12
 20
96.9821
 30
0.0
 11
215.921
 21
96.9821
 31
0.0
  0
LINE
  8
0
 62
     0
 10
215.921
 20
96.9821
 30
0.0
 11
215.921
 21
100.083
 31
0.0
  0
LINE
  8
0
 62
     0
 10
215.921
 20
100.083
 30
0.0
 11
215.12
 21
100.083
 31
0.0
  0
LINE
  8
0
 62
     0
 10
215.12
 20
100.083
 30
0.0
 11
215.12
 21
101.082
 31
0.0
  0
LINE
  8
0
 62
     0
 10
215.12
 20
101.082
 30
0.0
 11
201.12
 21
101.082
 31
0.0
  0
LINE
  8
0
 62
     0
 10
182.07
 20
101.082
 30
0.0
 11
182.07
 21
100.083
 31
0.0
  0
LINE
  8
0
 62
     0
 10
182.07
 20
100.083
 30
0.0
 11
181.27
 21
100.083
 31
0.0
  0
LINE
  8
0
 62
     0
 10
181.27
 20
100.083
 30
0.0
 11
181.27
 21
96.9821
 31
0.0
  0
LINE
  8
0
 62
     0
 10
181.27
 20
96.9821
 30
0.0
 11
182.07
 21
96.9821
 31
0.0
  0
LINE
  8
0
 62
     0
 10
182.07
 20
96.9821
 30
0.0
 11
182.07
 21
91.1821
 31
0.0
  0
LINE
  8
0
 62
     0
 10
182.07
 20
91.1821
 30
0.0
 11
181.27
 21
91.1821
 31
0.0
  0
LINE
  8
0
 62
     0
 10
181.27
 20
91.1821
 30
0.0
 11
181.27
 21
88.083
 31
0.0
  0
LINE
  8
0
 62
     0
 10
181.27
 20
88.083
 30
0.0
 11
182.07
 21
88.083
 31
0.0
  0
LINE
  8
0
 62
     0
 10
182.07
 20
88.083
 30
0.0
 11
182.07
 21
87.0825
 31
0.0
  0
LINE
  8
0
 62
     0
 10
182.07
 20
87.0825
 30
0.0
 11
196.07
 21
87.0825
 31
0.0
  0
LINE
  8
0
 62
     0
 10
196.07
 20
87.0825
 30
0.0
 11
196.07
 21
88.083
 31
0.0
  0
LINE
  8
0
 62
     0
 10
196.07
 20
88.083
 30
0.0
 11
196.871
 21
88.083
 31
0.0
  0
LINE
  8
0
 62
     0
 10
196.871
 20
88.083
 30
0.0
 11
196.871
 21
91.1821
 31
0.0
  0
LINE
  8
0
 62
     0
 10
196.871
 20
91.1821
 30
0.0
 11
196.07
 21
91.1821
 31
0.0
  0
LINE
  8
0
 62
     0
 10
196.07
 20
91.1821
 30
0.0
 11
196.07
 21
96.9821
 31
0.0
  0
LINE
  8
0
 62
     0
 10
196.07
 20
96.9821
 30
0.0
 11
196.871
 21
96.9821
 31
0.0
  0
LINE
  8
0
 62
     0
 10
196.871
 20
96.9821
 30
0.0
 11
196.871
 21
100.083
 31
0.0
  0
LINE
  8
0
 62
     0
 10
196.871
 20
100.083
 30
0.0
 11
196.07
 21
100.083
 31
0.0
  0
LINE
  8
0
 62
     0
 10
196.07
 20
100.083
 30
0.0
 11
196.07
 21
101.082
 31
0.0
  0
LINE
  8
0
 62
     0
 10
196.07
 20
101.082
 30
0.0
 11
182.07
 21
101.082
 31
0.0
  0
LINE
  8
0
 62
     0
 10
163.02
 20
101.082
 30
0.0
 11
163.02
 21
100.083
 31
0.0
  0
LINE
  8
0
 62
     0
 10
163.02
 20
100.083
 30
0.0
 11
162.22
 21
100.083
 31
0.0
  0
LINE
  8
0
 62
     0
 10
162.22
 20
100.083
 30
0.0
 11
162.22
 21
96.9821
 31
0.0
  0
LINE
  8
0
 62
     0
 10
162.22
 20
96.9821
 30
0.0
 11
163.02
 21
96.9821
 31
0.0
  0
LINE
  8
0
 62
     0
 10
163.02
 20
96.9821
 30
0.0
 11
163.02
 21
91.1821
 31
0.0
  0
LINE
  8
0
 62
     0
 10
163.02
 20
91.1821
 30
0.0
 11
162.22
 21
91.1821
 31
0.0
  0
LINE
  8
0
 62
     0
 10
162.22
 20
91.1821
 30
0.0
 11
162.22
 21
88.083
 31
0.0
  0
LINE
  8
0
 62
     0
 10
162.22
 20
88.083
 30
0.0
 11
163.02
 21
88.083
 31
0.0
  0
LINE
  8
0
 62
     0
 10
163.02
 20
88.083
 30
0.0
 11
163.02
 21
87.0825
 31
0.0
  0
LINE
  8
0
 62
     0
 10
163.02
 20
87.0825
 30
0.0
 11
177.02
 21
87.0825
 31
0.0
  0
LINE
  8
0
 62
     0
 10
177.02
 20
87.0825
 30
0.0
 11
177.02
 21
88.083
 31
0.0
  0
LINE
  8
0
 62
     0
 10
177.02
 20
88.083
 30
0.0
 11
177.821
 21
88.083
 31
0.0
  0
LINE
  8
0
 62
     0
 10
177.821
 20
88.083
 30
0.0
 11
177.821
 21
91.1821
 31
0.0
  0
LINE
  8
0
 62
     0
 10
177.821
 20
91.1821
 30
0.0
 11
177.02
 21
91.1821
 31
0.0
  0
LINE
  8
0
 62
     0
 10
177.02
 20
91.1821
 30
0.0
 11
177.02
 21
96.9821
 31
0.0
  0
LINE
  8
0
 62
     0
 10
177.02
 20
96.9821
 30
0.0
 11
177.821
 21
96.9821
 31
0.0
  0
LINE
  8
0
 62
     0
 10
177.821
 20
96.9821
 30
0.0
 11
177.821
 21
100.083
 31
0.0
  0
LINE
  8
0
 62
     0
 10
177.821
 20
100.083
 30
0.0
 11
177.02
 21
100.083
 31
0.0
  0
LINE
  8
0
 62
     0
 10
177.02
 20
100.083
 30
0.0
 11
177.02
 21
101.082
 31
0.0
  0
LINE
  8
0
 62
     0
 10
177.02
 20
101.082
 30
0.0
 11
163.02
 21
101.082
 31
0.0
  0
LINE
  8
0
 62
     0
 10
143.97
 20
101.082
 30
0.0
 11
143.97
 21
100.083
 31
0.0
  0
LINE
  8
0
 62
     0
 10
143.97
 20
100.083
 30
0.0
 11
143.17
 21
100.083
 31
0.0
  0
LINE
  8
0
 62
     0
 10
143.17
 20
100.083
 30
0.0
 11
143.17
 21
96.9821
 31
0.0
  0
LINE
  8
0
 62
     0
 10
143.17
 20
96.9821
 30
0.0
 11
143.97
 21
96.9821
 31
0.0
  0
LINE
  8
0
 62
     0
 10
143.97
 20
96.9821
 30
0.0
 11
143.97
 21
91.1821
 31
0.0
  0
LINE
  8
0
 62
     0
 10
143.97
 20
91.1821
 30
0.0
 11
143.17
 21
91.1821
 31
0.0
  0
LINE
  8
0
 62
     0
 10
143.17
 20
91.1821
 30
0.0
 11
143.17
 21
88.083
 31
0.0
  0
LINE
  8
0
 62
     0
 10
143.17
 20
88.083
 30
0.0
 11
143.97
 21
88.083
 31
0.0
  0
LINE
  8
0
 62
     0
 10
143.97
 20
88.083
 30
0.0
 11
143.97
 21
87.0825
 31
0.0
  0
LINE
  8
0
 62
     0
 10
143.97
 20
87.0825
 30
0.0
 11
157.97
 21
87.0825
 31
0.0
  0
LINE
  8
0
 62
     0
 10
157.97
 20
87.0825
 30
0.0
 11
157.97
 21
88.083
 31
0.0
  0
LINE
  8
0
 62
     0
 10
157.97
 20
88.083
 30
0.0
 11
158.771
 21
88.083
 31
0.0
  0
LINE
  8
0
 62
     0
 10
158.771
 20
88.083
 30
0.0
 11
158.771
 21
91.1821
 31
0.0
  0
LINE
  8
0
 62
     0
 10
158.771
 20
91.1821
 30
0.0
 11
157.97
 21
91.1821
 31
0.0
  0
LINE
  8
0
 62
     0
 10
157.97
 20
91.1821
 30
0.0
 11
157.97
 21
96.9821
 31
0.0
  0
LINE
  8
0
 62
     0
 10
157.97
 20
96.9821
 30
0.0
 11
158.771
 21
96.9821
 31
0.0
  0
LINE
  8
0
 62
     0
 10
158.771
 20
96.9821
 30
0.0
 11
158.771
 21
100.083
 31
0.0
  0
LINE
  8
0
 62
     0
 10
158.771
 20
100.083
 30
0.0
 11
157.97
 21
100.083
 31
0.0
  0
LINE
  8
0
 62
     0
 10
157.97
 20
100.083
 30
0.0
 11
157.97
 21
101.082
 31
0.0
  0
LINE
  8
0
 62
     0
 10
157.97
 20
101.082
 30
0.0
 11
143.97
 21
101.082
 31
0.0
  0
LINE
  8
0
 62
     0
 10
124.919
 20
101.082
 30
0.0
 11
124.919
 21
100.083
 31
0.0
  0
LINE
  8
0
 62
     0
 10
124.919
 20
100.083
 30
0.0
 11
124.12
 21
100.083
 31
0.0
  0
LINE
  8
0
 62
     0
 10
124.12
 20
100.083
 30
0.0
 11
124.12
 21
96.9821
 31
0.0
  0
LINE
  8
0
 62
     0
 10
124.12
 20
96.9821
 30
0.0
 11
124.919
 21
96.9821
 31
0.0
  0
LINE
  8
0
 62
     0
 10
124.919
 20
96.9821
 30
0.0
 11
124.919
 21
91.1821
 31
0.0
  0
LINE
  8
0
 62
     0
 10
124.919
 20
91.1821
 30
0.0
 11
124.12
 21
91.1821
 31
0.0
  0
LINE
  8
0
 62
     0
 10
124.12
 20
91.1821
 30
0.0
 11
124.12
 21
88.083
 31
0.0
  0
LINE
  8
0
 62
     0
 10
124.12
 20
88.083
 30
0.0
 11
124.919
 21
88.083
 31
0.0
  0
LINE
  8
0
 62
     0
 10
124.919
 20
88.083
 30
0.0
 11
124.919
 21
87.0825
 31
0.0
  0
LINE
  8
0
 62
     0
 10
124.919
 20
87.0825
 30
0.0
 11
138.92
 21
87.0825
 31
0.0
  0
LINE
  8
0
 62
     0
 10
138.92
 20
87.0825
 30
0.0
 11
138.92
 21
88.083
 31
0.0
  0
LINE
  8
0
 62
     0
 10
138.92
 20
88.083
 30
0.0
 11
139.721
 21
88.083
 31
0.0
  0
LINE
  8
0
 62
     0
 10
139.721
 20
88.083
 30
0.0
 11
139.721
 21
91.1821
 31
0.0
  0
LINE
  8
0
 62
     0
 10
139.721
 20
91.1821
 30
0.0
 11
138.92
 21
91.1821
 31
0.0
  0
LINE
  8
0
 62
     0
 10
138.92
 20
91.1821
 30
0.0
 11
138.92
 21
96.9821
 31
0.0
  0
LINE
  8
0
 62
     0
 10
138.92
 20
96.9821
 30
0.0
 11
139.721
 21
96.9821
 31
0.0
  0
LINE
  8
0
 62
     0
 10
139.721
 20
96.9821
 30
0.0
 11
139.721
 21
100.083
 31
0.0
  0
LINE
  8
0
 62
     0
 10
139.721
 20
100.083
 30
0.0
 11
138.92
 21
100.083
 31
0.0
  0
LINE
  8
0
 62
     0
 10
138.92
 20
100.083
 30
0.0
 11
138.92
 21
101.082
 31
0.0
  0
LINE
  8
0
 62
     0
 10
138.92
 20
101.082
 30
0.0
 11
124.919
 21
101.082
 31
0.0
  0
LINE
  8
0
 62
     0
 10
105.869
 20
101.082
 30
0.0
 11
105.869
 21
100.083
 31
0.0
  0
LINE
  8
0
 62
     0
 10
105.869
 20
100.083
 30
0.0
 11
105.07
 21
100.083
 31
0.0
  0
LINE
  8
0
 62
     0
 10
105.07
 20
100.083
 30
0.0
 11
105.07
 21
96.9821
 31
0.0
  0
LINE
  8
0
 62
     0
 10
105.07
 20
96.9821
 30
0.0
 11
105.869
 21
96.9821
 31
0.0
  0
LINE
  8
0
 62
     0
 10
105.869
 20
96.9821
 30
0.0
 11
105.869
 21
91.1821
 31
0.0
  0
LINE
  8
0
 62
     0
 10
105.869
 20
91.1821
 30
0.0
 11
105.07
 21
91.1821
 31
0.0
  0
LINE
  8
0
 62
     0
 10
105.07
 20
91.1821
 30
0.0
 11
105.07
 21
88.083
 31
0.0
  0
LINE
  8
0
 62
     0
 10
105.07
 20
88.083
 30
0.0
 11
105.869
 21
88.083
 31
0.0
  0
LINE
  8
0
 62
     0
 10
105.869
 20
88.083
 30
0.0
 11
105.869
 21
87.0825
 31
0.0
  0
LINE
  8
0
 62
     0
 10
105.869
 20
87.0825
 30
0.0
 11
119.87
 21
87.0825
 31
0.0
  0
LINE
  8
0
 62
     0
 10
119.87
 20
87.0825
 30
0.0
 11
119.87
 21
88.083
 31
0.0
  0
LINE
  8
0
 62
     0
 10
119.87
 20
88.083
 30
0.0
 11
120.669
 21
88.083
 31
0.0
  0
LINE
  8
0
 62
     0
 10
120.669
 20
88.083
 30
0.0
 11
120.669
 21
91.1821
 31
0.0
  0
LINE
  8
0
 62
     0
 10
120.669
 20
91.1821
 30
0.0
 11
119.87
 21
91.1821
 31
0.0
  0
LINE
  8
0
 62
     0
 10
119.87
 20
91.1821
 30
0.0
 11
119.87
 21
96.9821
 31
0.0
  0
LINE
  8
0
 62
     0
 10
119.87
 20
96.9821
 30
0.0
 11
120.669
 21
96.9821
 31
0.0
  0
LINE
  8
0
 62
     0
 10
120.669
 20
96.9821
 30
0.0
 11
120.669
 21
100.083
 31
0.0
  0
LINE
  8
0
 62
     0
 10
120.669
 20
100.083
 30
0.0
 11
119.87
 21
100.083
 31
0.0
  0
LINE
  8
0
 62
     0
 10
119.87
 20
100.083
 30
0.0
 11
119.87
 21
101.082
 31
0.0
  0
LINE
  8
0
 62
     0
 10
119.87
 20
101.082
 30
0.0
 11
105.869
 21
101.082
 31
0.0
  0
LINE
  8
0
 62
     0
 10
86.8204
 20
101.082
 30
0.0
 11
86.8204
 21
100.083
 31
0.0
  0
LINE
  8
0
 62
     0
 10
86.8204
 20
100.083
 30
0.0
 11
86.0199
 21
100.083
 31
0.0
  0
LINE
  8
0
 62
     0
 10
86.0199
 20
100.083
 30
0.0
 11
86.0199
 21
96.9821
 31
0.0
  0
LINE
  8
0
 62
     0
 10
86.0199
 20
96.9821
 30
0.0
 11
86.8204
 21
96.9821
 31
0.0
  0
LINE
  8
0
 62
     0
 10
86.8204
 20
96.9821
 30
0.0
 11
86.8204
 21
91.1821
 31
0.0
  0
LINE
  8
0
 62
     0
 10
86.8204
 20
91.1821
 30
0.0
 11
86.0199
 21
91.1821
 31
0.0
  0
LINE
  8
0
 62
     0
 10
86.0199
 20
91.1821
 30
0.0
 11
86.0199
 21
88.083
 31
0.0
  0
LINE
  8
0
 62
     0
 10
86.0199
 20
88.083
 30
0.0
 11
86.8204
 21
88.083
 31
0.0
  0
LINE
  8
0
 62
     0
 10
86.8204
 20
88.083
 30
0.0
 11
86.8204
 21
87.0825
 31
0.0
  0
LINE
  8
0
 62
     0
 10
86.8204
 20
87.0825
 30
0.0
 11
100.82
 21
87.0825
 31
0.0
  0
LINE
  8
0
 62
     0
 10
100.82
 20
87.0825
 30
0.0
 11
100.82
 21
88.083
 31
0.0
  0
LINE
  8
0
 62
     0
 10
100.82
 20
88.083
 30
0.0
 11
101.619
 21
88.083
 31
0.0
  0
LINE
  8
0
 62
     0
 10
101.619
 20
88.083
 30
0.0
 11
101.619
 21
91.1821
 31
0.0
  0
LINE
  8
0
 62
     0
 10
101.619
 20
91.1821
 30
0.0
 11
100.82
 21
91.1821
 31
0.0
  0
LINE
  8
0
 62
     0
 10
100.82
 20
91.1821
 30
0.0
 11
100.82
 21
96.9821
 31
0.0
  0
LINE
  8
0
 62
     0
 10
100.82
 20
96.9821
 30
0.0
 11
101.619
 21
96.9821
 31
0.0
  0
LINE
  8
0
 62
     0
 10
101.619
 20
96.9821
 30
0.0
 11
101.619
 21
100.083
 31
0.0
  0
LINE
  8
0
 62
     0
 10
101.619
 20
100.083
 30
0.0
 11
100.82
 21
100.083
 31
0.0
  0
LINE
  8
0
 62
     0
 10
100.82
 20
100.083
 30
0.0
 11
100.82
 21
101.082
 31
0.0
  0
LINE
  8
0
 62
     0
 10
100.82
 20
101.082
 30
0.0
 11
86.8204
 21
101.082
 31
0.0
  0
LINE
  8
0
 62
     0
 10
67.7704
 20
101.082
 30
0.0
 11
67.7704
 21
100.083
 31
0.0
  0
LINE
  8
0
 62
     0
 10
67.7704
 20
100.083
 30
0.0
 11
66.9699
 21
100.083
 31
0.0
  0
LINE
  8
0
 62
     0
 10
66.9699
 20
100.083
 30
0.0
 11
66.9699
 21
96.9821
 31
0.0
  0
LINE
  8
0
 62
     0
 10
66.9699
 20
96.9821
 30
0.0
 11
67.7704
 21
96.9821
 31
0.0
  0
LINE
  8
0
 62
     0
 10
67.7704
 20
96.9821
 30
0.0
 11
67.7704
 21
91.1821
 31
0.0
  0
LINE
  8
0
 62
     0
 10
67.7704
 20
91.1821
 30
0.0
 11
66.9699
 21
91.1821
 31
0.0
  0
LINE
  8
0
 62
     0
 10
66.9699
 20
91.1821
 30
0.0
 11
66.9699
 21
88.083
 31
0.0
  0
LINE
  8
0
 62
     0
 10
66.9699
 20
88.083
 30
0.0
 11
67.7704
 21
88.083
 31
0.0
  0
LINE
  8
0
 62
     0
 10
67.7704
 20
88.083
 30
0.0
 11
67.7704
 21
87.0825
 31
0.0
  0
LINE
  8
0
 62
     0
 10
67.7704
 20
87.0825
 30
0.0
 11
81.77
 21
87.0825
 31
0.0
  0
LINE
  8
0
 62
     0
 10
81.77
 20
87.0825
 30
0.0
 11
81.77
 21
88.083
 31
0.0
  0
LINE
  8
0
 62
     0
 10
81.77
 20
88.083
 30
0.0
 11
82.5708
 21
88.083
 31
0.0
  0
LINE
  8
0
 62
     0
 10
82.5708
 20
88.083
 30
0.0
 11
82.5708
 21
91.1821
 31
0.0
  0
LINE
  8
0
 62
     0
 10
82.5708
 20
91.1821
 30
0.0
 11
81.77
 21
91.1821
 31
0.0
  0
LINE
  8
0
 62
     0
 10
81.77
 20
91.1821
 30
0.0
 11
81.77
 21
96.9821
 31
0.0
  0
LINE
  8
0
 62
     0
 10
81.77
 20
96.9821
 30
0.0
 11
82.5708
 21
96.9821
 31
0.0
  0
LINE
  8
0
 62
     0
 10
82.5708
 20
96.9821
 30
0.0
 11
82.5708
 21
100.083
 31
0.0
  0
LINE
  8
0
 62
     0
 10
82.5708
 20
100.083
 30
0.0
 11
81.77
 21
100.083
 31
0.0
  0
LINE
  8
0
 62
     0
 10
81.77
 20
100.083
 30
0.0
 11
81.77
 21
101.082
 31
0.0
  0
LINE
  8
0
 62
     0
 10
81.77
 20
101.082
 30
0.0
 11
67.7704
 21
101.082
 31
0.0
  0
LINE
  8
0
 62
     0
 10
48.7204
 20
101.082
 30
0.0
 11
48.7204
 21
100.083
 31
0.0
  0
LINE
  8
0
 62
     0
 10
48.7204
 20
100.083
 30
0.0
 11
47.9199
 21
100.083
 31
0.0
  0
LINE
  8
0
 62
     0
 10
47.9199
 20
100.083
 30
0.0
 11
47.9199
 21
96.9821
 31
0.0
  0
LINE
  8
0
 62
     0
 10
47.9199
 20
96.9821
 30
0.0
 11
48.7204
 21
96.9821
 31
0.0
  0
LINE
  8
0
 62
     0
 10
48.7204
 20
96.9821
 30
0.0
 11
48.7204
 21
91.1821
 31
0.0
  0
LINE
  8
0
 62
     0
 10
48.7204
 20
91.1821
 30
0.0
 11
47.9199
 21
91.1821
 31
0.0
  0
LINE
  8
0
 62
     0
 10
47.9199
 20
91.1821
 30
0.0
 11
47.9199
 21
88.083
 31
0.0
  0
LINE
  8
0
 62
     0
 10
47.9199
 20
88.083
 30
0.0
 11
48.7204
 21
88.083
 31
0.0
  0
LINE
  8
0
 62
     0
 10
48.7204
 20
88.083
 30
0.0
 11
48.7204
 21
87.0825
 31
0.0
  0
LINE
  8
0
 62
     0
 10
48.7204
 20
87.0825
 30
0.0
 11
62.72
 21
87.0825
 31
0.0
  0
LINE
  8
0
 62
     0
 10
62.72
 20
87.0825
 30
0.0
 11
62.72
 21
88.083
 31
0.0
  0
LINE
  8
0
 62
     0
 10
62.72
 20
88.083
 30
0.0
 11
63.5208
 21
88.083
 31
0.0
  0
LINE
  8
0
 62
     0
 10
63.5208
 20
88.083
 30
0.0
 11
63.5208
 21
91.1821
 31
0.0
  0
LINE
  8
0
 62
     0
 10
63.5208
 20
91.1821
 30
0.0
 11
62.72
 21
91.1821
 31
0.0
  0
LINE
  8
0
 62
     0
 10
62.72
 20
91.1821
 30
0.0
 11
62.72
 21
96.9821
 31
0.0
  0
LINE
  8
0
 62
     0
 10
62.72
 20
96.9821
 30
0.0
 11
63.5208
 21
96.9821
 31
0.0
  0
LINE
  8
0
 62
     0
 10
63.5208
 20
96.9821
 30
0.0
 11
63.5208
 21
100.083
 31
0.0
  0
LINE
  8
0
 62
     0
 10
63.5208
 20
100.083
 30
0.0
 11
62.72
 21
100.083
 31
0.0
  0
LINE
  8
0
 62
     0
 10
62.72
 20
100.083
 30
0.0
 11
62.72
 21
101.082
 31
0.0
  0
LINE
  8
0
 62
     0
 10
62.72
 20
101.082
 30
0.0
 11
48.7204
 21
101.082
 31
0.0
  0
LINE
  8
0
 62
     0
 10
29.6706
 20
101.082
 30
0.0
 11
29.6706
 21
100.083
 31
0.0
  0
LINE
  8
0
 62
     0
 10
29.6706
 20
100.083
 30
0.0
 11
28.8699
 21
100.083
 31
0.0
  0
LINE
  8
0
 62
     0
 10
28.8699
 20
100.083
 30
0.0
 11
28.8699
 21
96.9821
 31
0.0
  0
LINE
  8
0
 62
     0
 10
28.8699
 20
96.9821
 30
0.0
 11
29.6706
 21
96.9821
 31
0.0
  0
LINE
  8
0
 62
     0
 10
29.6706
 20
96.9821
 30
0.0
 11
29.6706
 21
91.1821
 31
0.0
  0
LINE
  8
0
 62
     0
 10
29.6706
 20
91.1821
 30
0.0
 11
28.8699
 21
91.1821
 31
0.0
  0
LINE
  8
0
 62
     0
 10
28.8699
 20
91.1821
 30
0.0
 11
28.8699
 21
88.083
 31
0.0
  0
LINE
  8
0
 62
     0
 10
28.8699
 20
88.083
 30
0.0
 11
29.6706
 21
88.083
 31
0.0
  0
LINE
  8
0
 62
     0
 10
29.6706
 20
88.083
 30
0.0
 11
29.6706
 21
87.0825
 31
0.0
  0
LINE
  8
0
 62
     0
 10
29.6706
 20
87.0825
 30
0.0
 11
43.67
 21
87.0825
 31
0.0
  0
LINE
  8
0
 62
     0
 10
43.67
 20
87.0825
 30
0.0
 11
43.67
 21
88.083
 31
0.0
  0
LINE
  8
0
 62
     0
 10
43.67
 20
88.083
 30
0.0
 11
44.4708
 21
88.083
 31
0.0
  0
LINE
  8
0
 62
     0
 10
44.4708
 20
88.083
 30
0.0
 11
44.4708
 21
91.1821
 31
0.0
  0
LINE
  8
0
 62
     0
 10
44.4708
 20
91.1821
 30
0.0
 11
43.67
 21
91.1821
 31
0.0
  0
LINE
  8
0
 62
     0
 10
43.67
 20
91.1821
 30
0.0
 11
43.67
 21
96.9821
 31
0.0
  0
LINE
  8
0
 62
     0
 10
43.67
 20
96.9821
 30
0.0
 11
44.4708
 21
96.9821
 31
0.0
  0
LINE
  8
0
 62
     0
 10
44.4708
 20
96.9821
 30
0.0
 11
44.4708
 21
100.083
 31
0.0
  0
LINE
  8
0
 62
     0
 10
44.4708
 20
100.083
 30
0.0
 11
43.67
 21
100.083
 31
0.0
  0
LINE
  8
0
 62
     0
 10
43.67
 20
100.083
 30
0.0
 11
43.67
 21
101.082
 31
0.0
  0
LINE
  8
0
 62
     0
 10
43.67
 20
101.082
 30
0.0
 11
29.6706
 21
101.082
 31
0.0
  0
LINE
  8
0
 62
     0
 10
10.6192
 20
101.082
 30
0.0
 11
10.6192
 21
100.083
 31
0.0
  0
LINE
  8
0
 62
     0
 10
10.6192
 20
100.083
 30
0.0
 11
9.81989
 21
100.083
 31
0.0
  0
LINE
  8
0
 62
     0
 10
9.81989
 20
100.083
 30
0.0
 11
9.81989
 21
96.9821
 31
0.0
  0
LINE
  8
0
 62
     0
 10
9.81989
 20
96.9821
 30
0.0
 11
10.6192
 21
96.9821
 31
0.0
  0
LINE
  8
0
 62
     0
 10
10.6192
 20
96.9821
 30
0.0
 11
10.6192
 21
91.1821
 31
0.0
  0
LINE
  8
0
 62
     0
 10
10.6192
 20
91.1821
 30
0.0
 11
9.81989
 21
91.1821
 31
0.0
  0
LINE
  8
0
 62
     0
 10
9.81989
 20
91.1821
 30
0.0
 11
9.81989
 21
88.083
 31
0.0
  0
LINE
  8
0
 62
     0
 10
9.81989
 20
88.083
 30
0.0
 11
10.6192
 21
88.083
 31
0.0
  0
LINE
  8
0
 62
     0
 10
10.6192
 20
88.083
 30
0.0
 11
10.6192
 21
87.0825
 31
0.0
  0
LINE
  8
0
 62
     0
 10
10.6192
 20
87.0825
 30
0.0
 11
24.62
 21
87.0825
 31
0.0
  0
LINE
  8
0
 62
     0
 10
24.62
 20
87.0825
 30
0.0
 11
24.62
 21
88.083
 31
0.0
  0
LINE
  8
0
 62
     0
 10
24.62
 20
88.083
 30
0.0
 11
25.4207
 21
88.083
 31
0.0
  0
LINE
  8
0
 62
     0
 10
25.4207
 20
88.083
 30
0.0
 11
25.4207
 21
91.1821
 31
0.0
  0
LINE
  8
0
 62
     0
 10
25.4207
 20
91.1821
 30
0.0
 11
24.62
 21
91.1821
 31
0.0
  0
LINE
  8
0
 62
     0
 10
24.62
 20
91.1821
 30
0.0
 11
24.62
 21
96.9821
 31
0.0
  0
LINE
  8
0
 62
     0
 10
24.62
 20
96.9821
 30
0.0
 11
25.4207
 21
96.9821
 31
0.0
  0
LINE
  8
0
 62
     0
 10
25.4207
 20
96.9821
 30
0.0
 11
25.4207
 21
100.083
 31
0.0
  0
LINE
  8
0
 62
     0
 10
25.4207
 20
100.083
 30
0.0
 11
24.62
 21
100.083
 31
0.0
  0
LINE
  8
0
 62
     0
 10
24.62
 20
100.083
 30
0.0
 11
24.62
 21
101.082
 31
0.0
  0
LINE
  8
0
 62
     0
 10
24.62
 20
101.082
 30
0.0
 11
10.6192
 21
101.082
 31
0.0
  0
LINE
  8
0
 62
     0
 10
3.63114
 20
131.035
 30
0.0
 11
3.21359
 21
130.821
 31
0.0
  0
LINE
  8
0
 62
     0
 10
3.21359
 20
130.821
 30
0.0
 11
2.88148
 21
130.489
 31
0.0
  0
LINE
  8
0
 62
     0
 10
2.88148
 20
130.489
 30
0.0
 11
2.66788
 21
130.072
 31
0.0
  0
LINE
  8
0
 62
     0
 10
2.66788
 20
130.072
 30
0.0
 11
2.59485
 21
129.607
 31
0.0
  0
LINE
  8
0
 62
     0
 10
2.59485
 20
129.607
 30
0.0
 11
2.66788
 21
129.144
 31
0.0
  0
LINE
  8
0
 62
     0
 10
2.66788
 20
129.144
 30
0.0
 11
2.88148
 21
128.727
 31
0.0
  0
LINE
  8
0
 62
     0
 10
2.88148
 20
128.727
 30
0.0
 11
3.21359
 21
128.395
 31
0.0
  0
LINE
  8
0
 62
     0
 10
3.21359
 20
128.395
 30
0.0
 11
3.63114
 21
128.181
 31
0.0
  0
LINE
  8
0
 62
     0
 10
3.63114
 20
128.181
 30
0.0
 11
4.09554
 21
128.108
 31
0.0
  0
LINE
  8
0
 62
     0
 10
4.09554
 20
128.108
 30
0.0
 11
4.55856
 21
128.181
 31
0.0
  0
LINE
  8
0
 62
     0
 10
4.55856
 20
128.181
 30
0.0
 11
4.97611
 21
128.395
 31
0.0
  0
LINE
  8
0
 62
     0
 10
4.97611
 20
128.395
 30
0.0
 11
5.30821
 21
128.727
 31
0.0
  0
LINE
  8
0
 62
     0
 10
5.30821
 20
128.727
 30
0.0
 11
5.52178
 21
129.144
 31
0.0
  0
LINE
  8
0
 62
     0
 10
5.52178
 20
129.144
 30
0.0
 11
5.59484
 21
129.607
 31
0.0
  0
LINE
  8
0
 62
     0
 10
5.59484
 20
129.607
 30
0.0
 11
5.52178
 21
130.072
 31
0.0
  0
LINE
  8
0
 62
     0
 10
5.52178
 20
130.072
 30
0.0
 11
5.30821
 21
130.489
 31
0.0
  0
LINE
  8
0
 62
     0
 10
5.30821
 20
130.489
 30
0.0
 11
4.97611
 21
130.821
 31
0.0
  0
LINE
  8
0
 62
     0
 10
4.97611
 20
130.821
 30
0.0
 11
4.55856
 21
131.035
 31
0.0
  0
LINE
  8
0
 62
     0
 10
4.55856
 20
131.035
 30
0.0
 11
4.09554
 21
131.108
 31
0.0
  0
LINE
  8
0
 62
     0
 10
4.09554
 20
131.108
 30
0.0
 11
3.63114
 21
131.035
 31
0.0
  0
LINE
  8
0
 62
     0
 10
297.382
 20
131.035
 30
0.0
 11
296.964
 21
130.821
 31
0.0
  0
LINE
  8
0
 62
     0
 10
296.964
 20
130.821
 30
0.0
 11
296.632
 21
130.489
 31
0.0
  0
LINE
  8
0
 62
     0
 10
296.632
 20
130.489
 30
0.0
 11
296.42
 21
130.072
 31
0.0
  0
LINE
  8
0
 62
     0
 10
296.42
 20
130.072
 30
0.0
 11
296.347
 21
129.607
 31
0.0
  0
LINE
  8
0
 62
     0
 10
296.347
 20
129.607
 30
0.0
 11
296.42
 21
129.144
 31
0.0
  0
LINE
  8
0
 62
     0
 10
296.42
 20
129.144
 30
0.0
 11
296.632
 21
128.727
 31
0.0
  0
LINE
  8
0
 62
     0
 10
296.632
 20
128.727
 30
0.0
 11
296.964
 21
128.395
 31
0.0
  0
LINE
  8
0
 62
     0
 10
296.964
 20
128.395
 30
0.0
 11
297.382
 21
128.181
 31
0.0
  0
LINE
  8
0
 62
     0
 10
297.382
 20
128.181
 30
0.0
 11
297.846
 21
128.108
 31
0.0
  0
LINE
  8
0
 62
     0
 10
297.846
 20
128.108
 30
0.0
 11
298.31
 21
128.181
 31
0.0
  0
LINE
  8
0
 62
     0
 10
298.31
 20
128.181
 30
0.0
 11
298.727
 21
128.395
 31
0.0
  0
LINE
  8
0
 62
     0
 10
298.727
 20
128.395
 30
0.0
 11
299.059
 21
128.727
 31
0.0
  0
LINE
  8
0
 62
     0
 10
299.059
 20
128.727
 30
0.0
 11
299.273
 21
129.144
 31
0.0
  0
LINE
  8
0
 62
     0
 10
299.273
 20
129.144
 30
0.0
 11
299.347
 21
129.607
 31
0.0
  0
LINE
  8
0
 62
     0
 10
299.347
 20
129.607
 30
0.0
 11
299.273
 21
130.072
 31
0.0
  0
LINE
  8
0
 62
     0
 10
299.273
 20
130.072
 30
0.0
 11
299.059
 21
130.489
 31
0.0
  0
LINE
  8
0
 62
     0
 10
299.059
 20
130.489
 30
0.0
 11
298.727
 21
130.821
 31
0.0
  0
LINE
  8
0
 62
     0
 10
298.727
 20
130.821
 30
0.0
 11
298.31
 21
131.035
 31
0.0
  0
LINE
  8
0
 62
     0
 10
298.31
 20
131.035
 30
0.0
 11
297.846
 21
131.108
 31
0.0
  0
LINE
  8
0
 62
     0
 10
297.846
 20
131.108
 30
0.0
 11
297.382
 21
131.035
 31
0.0
  0
LINE
  8
0
 62
     0
 10
223.945
 20
131.035
 30
0.0
 11
223.526
 21
130.821
 31
0.0
  0
LINE
  8
0
 62
     0
 10
223.526
 20
130.821
 30
0.0
 11
223.194
 21
130.489
 31
0.0
  0
LINE
  8
0
 62
     0
 10
223.194
 20
130.489
 30
0.0
 11
222.982
 21
130.072
 31
0.0
  0
LINE
  8
0
 62
     0
 10
222.982
 20
130.072
 30
0.0
 11
222.909
 21
129.607
 31
0.0
  0
LINE
  8
0
 62
     0
 10
222.909
 20
129.607
 30
0.0
 11
222.982
 21
129.144
 31
0.0
  0
LINE
  8
0
 62
     0
 10
222.982
 20
129.144
 30
0.0
 11
223.194
 21
128.727
 31
0.0
  0
LINE
  8
0
 62
     0
 10
223.194
 20
128.727
 30
0.0
 11
223.526
 21
128.395
 31
0.0
  0
LINE
  8
0
 62
     0
 10
223.526
 20
128.395
 30
0.0
 11
223.945
 21
128.181
 31
0.0
  0
LINE
  8
0
 62
     0
 10
223.945
 20
128.181
 30
0.0
 11
224.408
 21
128.108
 31
0.0
  0
LINE
  8
0
 62
     0
 10
224.408
 20
128.108
 30
0.0
 11
224.871
 21
128.181
 31
0.0
  0
LINE
  8
0
 62
     0
 10
224.871
 20
128.181
 30
0.0
 11
225.29
 21
128.395
 31
0.0
  0
LINE
  8
0
 62
     0
 10
225.29
 20
128.395
 30
0.0
 11
225.622
 21
128.727
 31
0.0
  0
LINE
  8
0
 62
     0
 10
225.622
 20
128.727
 30
0.0
 11
225.834
 21
129.144
 31
0.0
  0
LINE
  8
0
 62
     0
 10
225.834
 20
129.144
 30
0.0
 11
225.909
 21
129.607
 31
0.0
  0
LINE
  8
0
 62
     0
 10
225.909
 20
129.607
 30
0.0
 11
225.834
 21
130.072
 31
0.0
  0
LINE
  8
0
 62
     0
 10
225.834
 20
130.072
 30
0.0
 11
225.622
 21
130.489
 31
0.0
  0
LINE
  8
0
 62
     0
 10
225.622
 20
130.489
 30
0.0
 11
225.29
 21
130.821
 31
0.0
  0
LINE
  8
0
 62
     0
 10
225.29
 20
130.821
 30
0.0
 11
224.871
 21
131.035
 31
0.0
  0
LINE
  8
0
 62
     0
 10
224.871
 20
131.035
 30
0.0
 11
224.408
 21
131.108
 31
0.0
  0
LINE
  8
0
 62
     0
 10
224.408
 20
131.108
 30
0.0
 11
223.945
 21
131.035
 31
0.0
  0
LINE
  8
0
 62
     0
 10
150.507
 20
131.035
 30
0.0
 11
150.089
 21
130.821
 31
0.0
  0
LINE
  8
0
 62
     0
 10
150.089
 20
130.821
 30
0.0
 11
149.757
 21
130.489
 31
0.0
  0
LINE
  8
0
 62
     0
 10
149.757
 20
130.489
 30
0.0
 11
149.543
 21
130.072
 31
0.0
  0
LINE
  8
0
 62
     0
 10
149.543
 20
130.072
 30
0.0
 11
149.47
 21
129.607
 31
0.0
  0
LINE
  8
0
 62
     0
 10
149.47
 20
129.607
 30
0.0
 11
149.543
 21
129.144
 31
0.0
  0
LINE
  8
0
 62
     0
 10
149.543
 20
129.144
 30
0.0
 11
149.757
 21
128.727
 31
0.0
  0
LINE
  8
0
 62
     0
 10
149.757
 20
128.727
 30
0.0
 11
150.089
 21
128.395
 31
0.0
  0
LINE
  8
0
 62
     0
 10
150.089
 20
128.395
 30
0.0
 11
150.507
 21
128.181
 31
0.0
  0
LINE
  8
0
 62
     0
 10
150.507
 20
128.181
 30
0.0
 11
150.971
 21
128.108
 31
0.0
  0
LINE
  8
0
 62
     0
 10
150.971
 20
128.108
 30
0.0
 11
151.434
 21
128.181
 31
0.0
  0
LINE
  8
0
 62
     0
 10
151.434
 20
128.181
 30
0.0
 11
151.853
 21
128.395
 31
0.0
  0
LINE
  8
0
 62
     0
 10
151.853
 20
128.395
 30
0.0
 11
152.185
 21
128.727
 31
0.0
  0
LINE
  8
0
 62
     0
 10
152.185
 20
128.727
 30
0.0
 11
152.397
 21
129.144
 31
0.0
  0
LINE
  8
0
 62
     0
 10
152.397
 20
129.144
 30
0.0
 11
152.47
 21
129.607
 31
0.0
  0
LINE
  8
0
 62
     0
 10
152.47
 20
129.607
 30
0.0
 11
152.397
 21
130.072
 31
0.0
  0
LINE
  8
0
 62
     0
 10
152.397
 20
130.072
 30
0.0
 11
152.185
 21
130.489
 31
0.0
  0
LINE
  8
0
 62
     0
 10
152.185
 20
130.489
 30
0.0
 11
151.853
 21
130.821
 31
0.0
  0
LINE
  8
0
 62
     0
 10
151.853
 20
130.821
 30
0.0
 11
151.434
 21
131.035
 31
0.0
  0
LINE
  8
0
 62
     0
 10
151.434
 20
131.035
 30
0.0
 11
150.971
 21
131.108
 31
0.0
  0
LINE
  8
0
 62
     0
 10
150.971
 20
131.108
 30
0.0
 11
150.507
 21
131.035
 31
0.0
  0
LINE
  8
0
 62
     0
 10
77.0696
 20
131.035
 30
0.0
 11
76.6519
 21
130.821
 31
0.0
  0
LINE
  8
0
 62
     0
 10
76.6519
 20
130.821
 30
0.0
 11
76.3199
 21
130.489
 31
0.0
  0
LINE
  8
0
 62
     0
 10
76.3199
 20
130.489
 30
0.0
 11
76.1062
 21
130.072
 31
0.0
  0
LINE
  8
0
 62
     0
 10
76.1062
 20
130.072
 30
0.0
 11
76.0317
 21
129.607
 31
0.0
  0
LINE
  8
0
 62
     0
 10
76.0317
 20
129.607
 30
0.0
 11
76.1062
 21
129.144
 31
0.0
  0
LINE
  8
0
 62
     0
 10
76.1062
 20
129.144
 30
0.0
 11
76.3199
 21
128.727
 31
0.0
  0
LINE
  8
0
 62
     0
 10
76.3199
 20
128.727
 30
0.0
 11
76.6519
 21
128.395
 31
0.0
  0
LINE
  8
0
 62
     0
 10
76.6519
 20
128.395
 30
0.0
 11
77.0696
 21
128.181
 31
0.0
  0
LINE
  8
0
 62
     0
 10
77.0696
 20
128.181
 30
0.0
 11
77.5324
 21
128.108
 31
0.0
  0
LINE
  8
0
 62
     0
 10
77.5324
 20
128.108
 30
0.0
 11
77.997
 21
128.181
 31
0.0
  0
LINE
  8
0
 62
     0
 10
77.997
 20
128.181
 30
0.0
 11
78.4144
 21
128.395
 31
0.0
  0
LINE
  8
0
 62
     0
 10
78.4144
 20
128.395
 30
0.0
 11
78.7467
 21
128.727
 31
0.0
  0
LINE
  8
0
 62
     0
 10
78.7467
 20
128.727
 30
0.0
 11
78.9587
 21
129.144
 31
0.0
  0
LINE
  8
0
 62
     0
 10
78.9587
 20
129.144
 30
0.0
 11
79.0317
 21
129.607
 31
0.0
  0
LINE
  8
0
 62
     0
 10
79.0317
 20
129.607
 30
0.0
 11
78.9587
 21
130.072
 31
0.0
  0
LINE
  8
0
 62
     0
 10
78.9587
 20
130.072
 30
0.0
 11
78.7467
 21
130.489
 31
0.0
  0
LINE
  8
0
 62
     0
 10
78.7467
 20
130.489
 30
0.0
 11
78.4144
 21
130.821
 31
0.0
  0
LINE
  8
0
 62
     0
 10
78.4144
 20
130.821
 30
0.0
 11
77.997
 21
131.035
 31
0.0
  0
LINE
  8
0
 62
     0
 10
77.997
 20
131.035
 30
0.0
 11
77.5324
 21
131.108
 31
0.0
  0
LINE
  8
0
 62
     0
 10
77.5324
 20
131.108
 30
0.0
 11
77.0696
 21
131.035
 31
0.0
  0
ENDSEC
  0
EOF
